<svg width="360" height="360" viewBox="0 0 360 360" fill="none" xmlns="http://www.w3.org/2000/svg">
<path d="M295.2 225.102C290.5 228.102 284.4 228.802 279.3 226.802C275.6 225.402 272.2 223.102 270.2 219.302C268.5 216.602 267.5 213.902 267.5 211.202C266.8 204.802 269.9 198.002 275.6 194.302C284.1 188.902 295.2 191.302 300.7 199.702C301 200.002 301.4 200.702 301.4 201.102C302.8 203.802 303.4 207.202 303.4 210.202C303.3 216.302 300.3 221.702 295.2 225.102ZM213.6 199.302C209.5 207.102 202.8 213.502 194.3 216.602C191.9 217.602 189.6 218.302 187.2 218.602C186.5 218.602 185.8 218.902 184.8 218.902C183.4 218.902 181.8 219.202 180.4 219.202C179.4 219.202 178.4 219.202 177.4 219.202C169.6 218.502 162.5 215.502 156.7 211.102C154.3 209.102 152 206.702 150.3 204.302C145.9 198.202 143.2 190.802 143.2 182.602C143.2 180.202 143.5 178.202 143.9 176.202C144.2 174.502 144.6 173.202 144.9 171.502C145.2 170.102 145.9 168.502 146.6 167.102C147.3 165.702 148 164.402 149 163.002C152.4 157.902 156.8 153.502 162.2 150.502C164.9 149.102 167.6 147.802 170.7 147.102H171C173.7 146.402 176.8 146.102 180.1 145.702H180.4C190.2 145.702 199 149.402 205.8 155.502C208.2 157.502 210.2 160.202 211.9 163.002C215.6 168.802 217.7 175.502 217.7 182.602C217.7 184.002 217.7 185.602 217.4 187.002C217.4 188.402 217.1 189.402 216.7 190.702C216.4 192.702 215.7 194.402 215 196.102C214.6 197.002 214.2 198.302 213.6 199.302ZM157.7 87.3017C155.3 85.6017 153.6 83.6017 152.3 81.2017C150.9 78.5017 149.9 75.4017 150.3 72.4017C150.3 68.7017 151.7 65.3017 153.7 62.2017C154.4 61.2017 155.1 60.5017 155.7 59.8017C158.1 57.4017 160.8 56.1017 163.8 55.4017C168.9 54.0017 174.6 55.1017 179 58.1017C187.1 63.9017 188.8 75.4017 183.1 83.5017C177.3 91.3017 165.8 93.3017 157.7 87.3017ZM221 271.502C230.1 275.602 234.5 286.102 230.5 295.202C228.1 300.602 223.4 304.302 218 305.702C215.3 306.402 212.2 306.402 209.2 305.702C208.2 305.402 207.5 305.002 206.5 304.702C202.1 302.702 198.7 299.302 197 295.202C196 292.502 195.3 289.402 195.6 286.402C195.6 284.702 196.3 282.702 197 281.002C201.4 271.802 211.9 267.702 221 271.502ZM93.7 280.602C83.5 280.602 75.4 272.502 75.4 262.302C75.4 252.102 83.5 244.002 93.7 244.002C103.9 244.002 112 252.102 112 262.302C111.6 272.502 103.5 280.602 93.7 280.602ZM86.9 149.602C85.5 151.002 83.9 152.002 82.2 153.002C77.8 155.002 73.1 155.402 69 154.002C64.3 152.602 60.2 149.302 58.2 144.502C55.5 138.702 55.8 132.602 58.9 127.602C60.3 124.902 62.3 122.902 65 121.202C65.7 120.902 66 120.502 66.7 120.202C75.8 115.802 86.7 119.502 91.1 128.702C94 135.702 92.3 144.102 86.9 149.602ZM273.5 83.5017C283.7 83.5017 291.8 91.6017 291.8 101.802C291.8 112.002 283.7 120.102 273.5 120.102C263.3 120.102 255.2 112.002 255.2 101.802C255.2 91.6017 263.4 83.5017 273.5 83.5017ZM311.4 205.102C310.7 201.702 309.7 198.702 307.7 195.602C299.9 183.402 283.3 179.702 271.1 187.502C266.4 190.502 263 194.602 260.9 199.402L226 189.602C226.3 187.202 226.7 184.902 226.7 182.502C226.7 173.002 223.7 163.902 218.6 156.402L256.9 122.502C261.3 125.902 267.1 127.902 273.2 127.902C287.8 127.902 299.6 116.002 299.6 101.502C299.6 87.0017 287.7 75.1017 273.2 75.1017C258.7 75.1017 246.8 87.0017 246.8 101.502C246.8 106.602 248.2 111.302 250.9 115.402L213 148.902C204.5 140.802 193.4 135.702 180.8 135.702C180.5 135.702 179.8 135.702 179.4 135.702L175.7 97.8017C181.1 96.1017 186.2 93.1017 189.6 88.0017C198.1 76.1017 195.7 59.6017 183.8 51.1017C177 46.0017 168.6 45.0017 161.1 47.0017C158.4 47.7017 156 49.0017 153.6 50.4017C151.2 52.1017 148.9 54.1017 147.2 56.8017C142.8 62.6017 141.4 69.7017 142.5 76.4017C143.5 83.2017 147.2 89.3017 153 93.7017C153.7 94.0017 154 94.4017 154.7 94.7017C158.4 97.1017 162.5 98.1017 166.6 98.4017L170.3 136.302C169.6 136.302 169.3 136.602 168.6 136.602C165.6 137.302 162.5 138.602 159.8 140.002C152 144.102 145.2 150.202 140.8 157.902L100.2 141.002C101.2 135.602 100.9 129.502 98.2 124.102C91.7 111.002 75.7 105.502 62.9 112.002C59.9 113.402 57.1 115.402 55.1 117.802C52.7 120.202 51 123.202 49.7 126.602C47.3 133.002 47.3 140.802 50.7 147.602C53.4 153.002 57.8 157.402 62.9 159.802C65.9 161.202 69.3 162.202 72.7 162.502C77.1 162.802 81.8 161.802 85.9 159.802C86.6 159.502 86.9 159.102 87.6 159.102C91 157.102 93.7 154.702 95.7 151.602C96 151.302 96.4 150.902 96.4 150.202L107.9 154.902L136.7 166.802C136 168.502 135.7 170.502 135 172.602C134.3 175.602 134 178.702 134 181.702C134 192.202 137.4 202.002 143.5 209.502L108.6 240.302C104.2 237.302 99.1 235.602 93.4 235.602C78.8 235.602 67 247.502 67 262.002C67 276.602 78.9 288.402 93.4 288.402C107.9 288.402 119.8 276.502 119.8 262.002C119.8 256.602 118.1 251.502 115.4 247.102L149.9 216.602C157.7 223.402 167.5 227.402 178.3 228.102C179 228.102 179.7 228.102 180.3 228.102C182.7 228.102 185.4 227.802 187.8 227.402L188.1 228.102L200.3 265.002C197.3 266.702 194.5 269.402 192.5 272.502C191.5 273.902 190.5 275.502 189.8 277.202C187.4 283.002 187.1 289.102 188.4 294.502C190.4 302.002 195.9 308.402 203.3 311.802C205.7 312.802 208 313.502 210.4 313.802C213.1 314.102 216.2 314.102 218.9 313.502C227 311.802 234.5 306.402 238.2 297.902C244 284.402 237.9 268.802 224.3 263.002C219.2 261.002 213.8 260.302 209.1 261.302L197.2 224.702C208 220.602 217.2 212.502 222.3 202.002C223 200.602 223.7 199.302 224.3 197.602L259.2 207.802C259.2 211.202 259.5 214.902 260.9 218.302C261.6 220.002 262.3 221.702 263.6 223.402C266 226.802 268.7 229.502 272.1 231.502C275.1 233.502 278.5 234.502 281.9 235.202C288 236.202 294.4 234.902 300.2 231.502C306.3 227.802 310.4 221.702 311.7 215.202C312.1 212.202 312.1 208.502 311.4 205.102Z" fill="white"/>
</svg>
