<?xml version="1.0" encoding="utf-8"?>
<!-- Generator: Adobe Illustrator 25.2.1, SVG Export Plug-In . SVG Version: 6.00 Build 0)  -->
<svg version="1.1" id="Layer_1" xmlns="http://www.w3.org/2000/svg" xmlns:xlink="http://www.w3.org/1999/xlink" x="0px" y="0px"
	 viewBox="0 0 360 360" style="enable-background:new 0 0 360 360;" xml:space="preserve">
<style type="text/css">
	.st0{fill:#02E30F;}
</style>
<g>
	<path class="st0" d="M228.5,77.7c0-5.9,0-11.7,0-17.8c12.7,0,25,0,37.7,0c0,1,0,1.9,0,2.8c0,14.7,0,29.3,0,44c0,1.8,0.5,2.9,1.9,4
		c16.1,12.8,32.2,25.7,48.3,38.6c0.5,0.4,1,0.8,1.7,1.5c-1.1,0.1-1.7,0.1-2.4,0.1c-9.5,0-18.9,0-28.4,0c-3,0-3,0-3,2.9
		c0,39.3,0,78.7,0,118c0,1,0,2,0,3.2c-0.7,0.1-1.3,0.2-2,0.2c-5.4,0-10.8,0-16.2,0c-2.9,0-5.1-1.7-4.9-4c0.2-2.5,2-4.2,4.9-4.1
		c2.5,0.2,5.1-0.1,7.6,0.1c1.9,0.1,2.9-0.4,2.6-2.5c-0.1-0.6,0-1.3,0-1.9c0-38.9,0-77.8,0-116.7c0-0.9,0-1.9,0-3.1
		c6.2,0,12.3,0,18.4,0c0.1-0.2,0.1-0.4,0.2-0.5c-0.7-0.6-1.3-1.2-2-1.7c-11.1-8.9-22.2-17.9-33.4-26.8c-1.1-0.9-1.4-1.8-1.4-3.1
		c0-13.6,0-27.3,0-40.9c0-0.6-0.1-1.1-0.1-1.9c-7.2,0-14.3,0-21.6,0c0,8.9,0,17.9,0,27.4c-3.7-3-7-5.6-10.3-8.3
		c-14.9-12-29.8-23.9-44.6-35.9c-1.5-1.2-2.4-1-3.8,0.1c-15.9,12.9-31.9,25.7-47.8,38.5c-21.3,17.2-42.7,34.3-64,51.5
		c-0.4,0.3-0.7,0.7-1.4,1.5c2.1,0,3.6,0,5.2,0c4,0,8.1,0,12.1,0c1.4,0,2,0.4,1.9,1.9c-0.1,0.7,0,1.4,0,2.2c0,39,0,78,0,116.9
		c0,3.4,0,3.4,3.4,3.4c5.4,0,10.8,0,16.2,0.1c2.3,0,4,1.8,4,4c0,2-1.7,4-3.8,4c-9.2,0.1-18.5,0-27.9,0c0-41.4,0-82.6,0-124.2
		c-11.3,0-22.3,0-33.4,0c-0.1-0.2-0.1-0.3-0.2-0.5c45.9-37,91.9-73.9,138-111.1c16,12.8,32,25.6,48,38.5
		C228.1,77.9,228.3,77.8,228.5,77.7z"/>
	<path class="st0" d="M245.4,265.9c-2.1-6.2-4.1-11.9-6-17.6c-3.5-10.4-6.9-20.7-10.3-31.1c-0.3-1.1-0.7-2.5-0.3-3.3
		c0.6-1.1,1.8-2.4,3-2.6c1.1-0.2,2.7,0.6,3.7,1.5c0.8,0.7,1.2,2.1,1.5,3.3c3.1,9.1,6.1,18.2,9.1,27.3c0.7,2.1,2.4,2.8,4.9,2.1
		c1.8-0.6,2.7-2.1,2.1-4.1c-0.5-2-1.2-4-1.9-6c-3.1-9.9-6.2-19.8-9.3-29.6c-3.2-10.2-12.6-17.1-23.3-17c-4.9,0-9.8,0-14.7,0.5
		c-3.9,0.3-7.3,2.1-10.3,4.6c-1,0.9-1.8,1-3,0.3c-1.8-1-3.8-1.7-5.9-2.7c0.4-0.5,0.8-1,1.3-1.5c5.9-5.6,12.8-9.1,21.1-9.2
		c6.2-0.1,12.5-0.4,18.5,0.8c12.6,2.6,20.5,10.9,24.3,23c3.5,11,7,21.9,10.2,32.9c0.8,2.5,1.1,5.4,0.7,8c-0.8,5.2-4,7.8-9.3,8.2
		c-0.4,0-0.8,0.1-1.6,0.1c1.1,3.4,2.2,6.6,3.2,9.8c0.3,1.1,0.7,2.2,0.8,3.3c0.4,4.6-1.9,7.1-6.5,7.1c-2.2,0-4.5,0.1-6.7,0
		c-1.9-0.1-2.5,0.4-2.5,2.4c0.1,7.9,0,15.9,0,23.8c0,5.1,0,10.2,0,15.4c0,2.8-1.6,4.7-3.9,4.8c-2.3,0.1-4.1-2-4.1-4.8
		c0-13,0-26,0-39c0-2-0.5-2.7-2.5-2.5c-1.8,0.2-3.6,0.1-5.4,0c-1.4-0.1-1.9,0.5-1.9,1.9c0.1,4.8,0,9.7,0,14.5c0,8.4,0,16.7,0,25.1
		c0,3.6-2.8,5.9-5.6,4.3c-1.1-0.6-2.4-2.2-2.4-3.4c-0.2-16.2-0.1-32.3-0.1-48.5c0-1.7,1-1.6,2.1-1.6c9.2-0.1,18.5-0.2,27.7-0.3
		C243.2,265.9,244.1,265.9,245.4,265.9z"/>
	<path class="st0" d="M179.6,190.5c-2.7,0.5-5.2,1-7.5,1.5c-1.1-2.4-1.9-4.8-3.3-6.9c-2.8-4.2-6.8-6.3-11.9-6.4
		c-10.9,0-21.8-0.1-32.7,0c-8,0-14.6,6.6-14.6,14.6c0,12.2-0.1,24.4,0,36.6c0,5.4,2.6,9.4,7.5,12.6c0-1.1,0.1-1.8,0.1-2.6
		c0-11.8,0-23.7,0-35.5c0-1.2,0.3-2.6,0.9-3.7c1.6-2.9,5.2-2.8,6.7,0.1c0.5,1,0.8,2.3,0.8,3.5c0,36.7,0,73.5,0,110.2
		c0,1.2-0.3,2.4-0.8,3.5c-0.6,1.5-2.1,2.6-3.6,2.1c-1.3-0.4-2.6-1.6-3.5-2.8c-0.6-0.8-0.5-2.2-0.5-3.4c0-20,0-40,0-60
		c0-1.8-0.4-2.8-2.3-3.7c-8.4-4.1-13.3-10.8-13.5-20.3c-0.2-12.4-0.1-24.8,0-37.2c0-13.1,11.5-22.5,22.6-22.2
		c11,0.2,22.1-0.1,33.1,0C168.9,170.7,178.8,179.7,179.6,190.5z"/>
	<path class="st0" d="M196.5,276c2.3-2.7,3.7-5.2,3.7-8.1c0.1-5.8,0.3-11.7-0.3-17.5c-0.7-6.4-6.5-11-13-11.1c-4.7,0-9.4,0-14.1,0
		c-8.2,0-13.8,4.8-14.4,13c-0.4,5.5-0.1,11.1,0.2,16.6c0.1,2.9,1.6,5.3,4.2,7.7c0.1-1.2,0.2-1.9,0.2-2.6c0-5.5,0-11,0-16.5
		c0-3.1,1.4-4.9,3.9-4.9c2.6,0,4.2,1.8,4.2,4.9c0,19.3,0,38.5,0,57.8c0,2-0.6,3.8-2.4,4.5c-1.1,0.4-2.7,0.2-3.8-0.2
		c-1.7-0.7-1.9-2.3-1.9-4c0-8.9,0-17.8,0-26.6c0-1.6-0.5-2.6-1.9-3.4c-6.7-3.8-10.5-9.7-10.8-17.4c-0.3-6-0.2-12.1,0.3-18.1
		c0.9-9.4,9.2-17.3,18.7-18.2c7.5-0.7,15-1.2,22.4,0.4c9.8,2.1,16.7,11,16.7,21c0,5.8,0.2,11.6-0.4,17.3c-0.7,6.4-4.3,11.3-9.7,14.6
		c-1.5,0.9-2,1.9-1.9,3.6c0.1,8.9,0.1,17.9,0,26.8c0,3.6-3,5.8-5.8,4.3c-1.5-0.8-2.3-2.1-2.2-3.9c0-4.3,0-8.5,0-12.8
		c0-15.2,0-30.5,0-45.7c0-2.6,1.2-4.5,3.1-4.9c2.7-0.5,5,1.4,5,4.3c0,5.5,0,11,0,16.5C196.4,274,196.5,274.7,196.5,276z"/>
	<path class="st0" d="M141.7,123.7c11.8,0,21.5,9.6,21.4,21.3c-0.1,11.6-9.6,20.9-21,21.2c-10.7,0.3-21.6-8.5-21.6-21.2
		C120.4,133.2,129.8,123.7,141.7,123.7z M141.9,131.9c-7.4,0-13.3,5.7-13.4,12.9c-0.1,7.3,5.8,13.2,13.1,13.3
		c7.4,0,13.2-5.7,13.2-13.1C154.9,137.7,149.2,131.9,141.9,131.9z"/>
	<path class="st0" d="M236.8,156.8c0.2,11.2-9.7,20.7-21.1,20.2c-10.4-0.4-19.6-9.6-19.5-20.4c0.1-11.3,9.4-20.3,21-20.2
		C227.9,136.5,236.9,145.9,236.8,156.8z M228.7,156.8c0-6.9-5.3-12.3-12.1-12.3c-6.7,0-12.3,5.5-12.3,12.2c0,6.6,5.5,12.1,12.1,12.2
		C223.3,169,228.7,163.6,228.7,156.8z"/>
	<path class="st0" d="M196,213.5c0,8.9-7.4,16.4-16.2,16.3c-8.8-0.1-16.1-7.5-16.1-16.2c0-8.9,7.3-16.2,16.3-16.1
		C189,197.4,196,204.5,196,213.5z M179.9,221.5c4.4,0.1,8-3.4,8.1-7.8c0.1-4.5-3.3-8-7.8-8.1c-4.6-0.1-8.2,3.3-8.3,7.8
		C171.7,217.8,175.3,221.4,179.9,221.5z"/>
	<path class="st0" d="M137.7,284.5c0-10.4,0-20.8,0-31.2c0-2.9,1.5-4.6,4-4.6c2.5,0,4.1,1.8,4.1,4.7c0,20.8,0,41.6,0,62.3
		c0,2.2-0.7,3.9-2.9,4.5c-1.9,0.6-3.7,0.1-4.6-1.7c-0.4-0.8-0.6-1.9-0.6-2.9C137.6,305.2,137.7,294.8,137.7,284.5z"/>
	<path class="st0" d="M183.9,300.5c0,5,0,9.9,0,14.9c0,3-1.7,5-4,4.9c-2.4-0.1-4.1-2.1-4.1-4.9c0-9.8,0-19.6,0-29.4
		c0-3.9,3.1-6,6.1-4.2c1.4,0.9,2,2.1,2,3.8C183.9,290.5,183.9,295.5,183.9,300.5z"/>
</g>
</svg>
