<?xml version="1.0" encoding="utf-8"?>
<!-- Generator: Adobe Illustrator 25.2.1, SVG Export Plug-In . SVG Version: 6.00 Build 0)  -->
<svg version="1.1" id="Layer_1" xmlns="http://www.w3.org/2000/svg" xmlns:xlink="http://www.w3.org/1999/xlink" x="0px" y="0px"
	 viewBox="0 0 360 360" style="enable-background:new 0 0 360 360;" xml:space="preserve">
<style type="text/css">
	.st0{fill:#02E30F;}
</style>
<g>
	<path class="st0" d="M294.6,194.6c0,41.1,0,82.2,0,123.3c0,10.7-8.4,18.9-19.7,19.3c-0.5,0-1,0-1.4,0c-62.2,0-124.5,0-186.7,0
		c-10.5,0-18.3-5.5-20.7-14.7c-0.5-2-0.7-4.1-0.7-6.1c0-81.6,0-163.1,0-244.7c0-12.3,8.5-20.7,20.8-20.7c13.1,0,26.3,0,39.4,0
		c1.6,0,2.5-0.3,3.2-2c1.7-4,5-6,9.4-6.1c3.9-0.1,7.8-0.1,11.6,0c1.3,0,2.1-0.3,2.7-1.6c5.1-11.3,13.9-17.5,26.2-18.2
		c11.9-0.7,23.3,6,28.2,17.6c0.7,1.7,1.6,2.4,3.5,2.3c4-0.2,8.1,0,12.1,0c4.9,0,8.4,2.2,10.2,6.6c0.6,1.6,1.6,1.4,2.8,1.4
		c12.4,0,24.7,0.3,37.1-0.1c15.1-0.4,22.4,11.5,22.3,22.2C294.4,113.5,294.6,154,294.6,194.6C294.6,194.6,294.6,194.6,294.6,194.6z
		 M93,193.7c0,34.5,0.1,69-0.1,103.6c0,7.1,5.7,11.6,11.6,11.6c50-0.1,100.1-0.1,150.1-0.1c0.9,0,1.9,0,2.8-0.2
		c5.4-1.1,8.7-5.4,8.7-11.1c0-69.3,0-138.6,0-207.9c0-0.4,0-0.8,0-1.2c-0.4-5.1-4.4-9.7-9.1-9.8c-7.5-0.2-15-0.1-22.6,0
		c-0.5,0-1.5,0.8-1.6,1.3c-0.8,6.5-6.2,9.2-12.4,9.2c-7.8-0.1-15.7,0-23.5,0c-19.3,0-38.6,0-58,0c-6.3,0-10.7-3.1-11.5-8.4
		c-0.3-1.9-1.1-2.1-2.6-2.1c-7,0.1-14,0.3-20.9-0.1c-6-0.3-11.2,5.2-11.1,11.2C93.1,124.4,93,159.1,93,193.7z M127.2,60.3
		c-0.6-0.1-1.1-0.2-1.6-0.2c-14.2,0-28.4,0-42.5,0c-3.3,0-5.8,1.9-7.6,4.6c-1.8,2.6-1.9,5.5-1.9,8.4c0,80.9,0,161.7,0,242.6
		c0,0.7,0,1.4,0,2.1c0.3,5.6,4.7,10.1,10,10.1c63.8,0,127.7,0,191.5-0.1c1.7,0,3.6-0.7,5.1-1.6c3.9-2.4,5-6.2,5-10.6
		c0-81.1,0-162.2,0-243.3c0-0.6,0-1.3,0-1.9c-0.4-6.3-4.7-10.4-10.9-10.4c-12.7,0-25.3,0-38,0c-0.9,0-1.8,0-2.8,0c0,3.3,0,6.2,0,9.3
		c7.1,0,14,0,20.9,0c14.1,0,20.9,10.8,20.9,20.9c-0.2,69.1-0.1,138.3-0.1,207.4c0,11.7-8.2,20-19.8,20c-50.8,0-101.5,0-152.3,0
		c-3.8,0-7.2-1.1-10.3-3.2c-6.5-4.4-8.9-10.8-8.9-18.4c0-67.7,0-135.4,0-203.1c0-2.3,0.2-4.6,0.4-6.9c0.9-8.2,8.1-15.7,16.4-16.3
		c7.9-0.5,15.8-0.4,23.7-0.5c0.9,0,1.8-0.1,2.8-0.1C127.2,66.1,127.2,63.2,127.2,60.3z M199.5,52c-0.8-11.8-9.1-19.1-19.1-19.8
		c-4.6-0.3-8.9,0.9-12.8,3.5c-5.7,3.9-8.4,9.5-9.1,16.3c-1.1,0-2,0-2.8,0c-5.6,0-11.2,0-16.9,0c-1.4,0-2.5,0.1-2.6,2
		c-0.2,7.7-0.5,15.4-0.7,23.1c-0.1,2,0.6,2.8,2.8,2.8c27.5-0.1,54.9-0.1,82.4,0c2.1,0,2.8-0.7,2.8-2.7c-0.1-7.2,0-14.4,0-21.6
		c0-3.4-0.1-3.5-3.5-3.5C213.2,52,206.4,52,199.5,52z"/>
	<path class="st0" d="M226.2,170.2c-3.1,2.1-5.7,3.7-8.2,5.5c-1.3,0.9-2.1,1-3-0.5c-1.1-1.9-2.5-3.6-3.9-5.7c3.9-2.7,7.8-5.4,11.7-8
		c2.1-1.4,4.2-2.8,6.4-4.1c2.7-1.5,5.8-0.8,7.4,2c3.3,5.7,6.5,11.6,9.8,17.5c-2.6,1.5-5.2,2.9-7.9,4.5c-1.4-2.4-2.7-4.6-4.1-6.9
		c-0.3,0.2-0.5,0.2-0.6,0.3c-4.7,13.5-14.6,21.4-27.8,25.8c-8.1,2.7-16.5,3.8-25,3.8c-7.6,0.1-15.2,0.8-22.4,3.5
		c-14.7,5.6-22.8,16.6-26.2,31.6c-0.1,0.5-0.3,0.9-0.3,1.4c-0.2,1.6-1,3.5-0.5,4.9c0.5,1.2,2.4,1.9,3.8,2.6
		c6.1,3.5,10.6,11.6,9.8,17.5c-1.1,7.4-6.7,13.5-13.9,15.1c-9.1,2-18.2-3.4-20.9-12.2c-2.7-8.9,1.9-18.4,10.6-21.7
		c1.6-0.6,2-1.4,2.2-3c2.5-19.9,11.4-35.3,30.3-43.8c8.3-3.7,17.1-5,26.1-5c8.8-0.1,17.4-1,25.7-3.9c9-3.1,16-8.6,19.7-17.6
		c0.2-0.6,0.5-1.2,0.7-1.8C225.9,171.7,226,171.3,226.2,170.2z M126.4,272.8c5.2,0,9-3.6,9.1-8.6c0.1-4.8-3.9-8.9-8.8-9
		c-4.9-0.1-8.9,3.8-8.9,8.8C117.7,269,121.4,272.7,126.4,272.8z"/>
	<path class="st0" d="M221.3,277.5c0,9.7-8.2,17.8-17.9,17.8c-9.7,0-17.8-8.2-17.8-17.9c0-9.6,8.2-17.8,17.9-17.9
		C213.4,259.4,221.4,267.5,221.3,277.5z M194.7,277c0,5,3.7,8.9,8.7,9c4.8,0,8.9-3.9,9-8.8c0.1-4.8-4-8.9-8.8-9
		C198.6,268.2,194.7,272,194.7,277z"/>
	<path class="st0" d="M215.7,130.1c0-9.7,8.1-17.9,17.8-17.9c9.7,0,17.8,8.2,17.8,17.9c0,9.7-8.1,17.9-17.8,17.9
		C223.8,148,215.7,139.8,215.7,130.1z M233.5,121.3c-5.1,0-8.9,3.7-8.9,8.8c0,5,3.9,8.8,8.9,8.8c4.9,0,9-4.1,8.9-9
		C242.3,125.1,238.4,121.3,233.5,121.3z"/>
	<path class="st0" d="M158.5,127.2c-2.4,2.5-4.5,4.8-6.7,7c-1.5,1.5-3.5,2.1-5.4,1.2c-1.2-0.6-2.3-2-2.6-3.3c-0.3-0.9,0.3-2.5,1-3.3
		c1.8-2.2,3.8-4.3,5.8-6.2c1.3-1.3,1.2-2.1-0.1-3.3c-1.7-1.6-3.3-3.4-5-5.1c-2.5-2.6-2.8-5.1-0.8-7c2.3-2.3,4.6-2.2,7.4,0.7
		c2.1,2.1,4,4.2,6.4,6.8c2.1-2.3,3.9-4.4,5.9-6.3c1-0.9,2.4-1.9,3.6-1.9c1.4,0,3.3,0.8,4.1,1.9c1.4,1.8,0.9,4-0.6,5.6
		c-1.7,1.9-3.4,3.7-5.3,5.5c-1.2,1.1-1.2,1.9,0,3.1c2.2,2,4.3,4.2,6.4,6.4c2.6,2.7,2.8,5,0.7,7c-2.2,2.1-4.6,2-7.2-0.6
		C163.7,132.7,161.3,130.1,158.5,127.2z"/>
	<path class="st0" d="M233.7,236c-2.4,2.5-4.4,4.7-6.6,6.8c-2.1,2.1-5.2,2.3-7,0.5c-1.7-1.7-1.5-4.7,0.5-6.8
		c2.1-2.3,4.3-4.6,6.7-7.2c-2.4-2.3-4.7-4.4-6.9-6.7c-2.2-2.3-2.3-4.6-0.6-6.5c2-2.2,4.6-2.4,6.7-0.3c2.4,2.3,4.6,4.8,7.4,7.6
		c2.4-2.5,4.4-4.8,6.6-6.9c2.9-2.7,7.2-1.6,7.7,2.1c0.2,1.3-0.4,3-1.3,4.1c-1.9,2.5-4.2,4.7-6.7,7.3c2.9,2.8,5.8,5.5,8.5,8.3
		c2.8,2.9,1.6,7-2.4,7.7c-1.2,0.2-2.9-0.5-3.9-1.4C239.4,242,236.8,239.1,233.7,236z"/>
	<path class="st0" d="M178.2,172.8c-1.8,2.1-3.3,3.9-4.9,5.6c-0.7,0.8-1.4,1.5-2.2,2.1c-2,1.6-4.6,1.6-6.2-0.1
		c-1.6-1.6-1.6-4.4,0-6.3c2.2-2.5,4.6-5,7.4-7.9c-2.3-2.1-4.5-4.1-6.6-6.1c-2.6-2.5-2.8-5.1-0.9-7c1.9-1.9,5-1.7,7.4,0.7
		c2.1,2.1,4,4.2,6.4,6.7c2.3-2.4,4.1-4.6,6.3-6.5c1.2-1,2.9-1.8,4.4-1.7c3.6,0.2,4.9,4.5,2.6,7.4c-1,1.3-2.2,2.5-3.4,3.7
		c-1.1,1.1-2.4,2-3.9,3.3c3.2,3.2,5.9,5.9,8.6,8.7c2.3,2.3,2.3,4.7,0.2,6.6c-2,1.9-4.4,2-6.3,0C184.2,179.1,181.5,176.2,178.2,172.8
		z"/>
	<path class="st0" d="M125.3,165.1c2.2-2.4,4-4.4,5.9-6.3c2.4-2.4,5.5-2.8,7.3-0.9c1.8,1.8,1.4,4.9-0.9,7.4c-1.9,2-3.7,4-6,6.4
		c2.8,2.6,5.5,5.2,8.1,7.8c2.1,2.1,2.5,4.4,1.2,6.2c-1.9,2.7-4.9,3-7.3,0.6c-2.8-2.7-5.4-5.5-8.5-8.5c-2.2,2.3-4.2,4.5-6.3,6.5
		c-0.8,0.8-1.9,1.5-2.9,1.8c-2,0.5-3.8,0-4.9-1.9c-1.1-1.9-0.7-3.7,0.7-5.2c2.2-2.4,4.6-4.8,7.1-7.4c-2.5-2.7-4.8-5.2-7.2-7.7
		c-1.4-1.5-1.8-3.3-0.9-5c1-1.9,2.6-3,4.9-2.6c0.9,0.2,1.9,0.8,2.6,1.4C120.4,160,122.6,162.3,125.3,165.1z"/>
	<path class="st0" d="M171.7,233.8c-2.5-2.4-4.7-4.5-6.9-6.7c-2.3-2.3-2.4-4.8-0.5-6.7c2.1-2.1,4.5-2,6.8,0.3
		c2.2,2.2,4.3,4.4,6.7,6.9c2.1-2.1,3.8-3.9,5.7-5.7c1-0.9,2.1-1.8,3.3-2.3c1.9-0.8,3.6-0.1,4.8,1.5c1.2,1.6,1.1,4.2-0.4,5.9
		c-1.6,1.8-3.3,3.4-4.9,5.2c-0.6,0.6-1.1,1.3-1.9,2.1c2.7,2.7,5.3,5.2,7.9,7.8c2.4,2.4,2.7,5,0.9,6.9c-2.1,2.2-4.8,2-7.3-0.5
		c-2.6-2.6-5.1-5.2-8-8.1c-2.5,2.6-4.6,5-6.9,7.2c-2.9,2.7-7.2,1.5-7.6-2.2c-0.2-1.4,0.7-3.2,1.6-4.4
		C166.9,238.7,169.3,236.5,171.7,233.8z"/>
	<path class="st0" d="M179.5,55.9c-4-0.1-6.9-3.1-6.8-7.2c0.1-3.8,3.4-7,7.2-6.9c3.9,0.1,6.9,3.3,6.8,7.3
		C186.6,53.1,183.5,56,179.5,55.9z"/>
</g>
</svg>
