<svg width="250" height="250" viewBox="0 0 250 250" fill="none" xmlns="http://www.w3.org/2000/svg">
<g clip-path="url(#clip0_353_107)">
<path d="M69.141 85.6462C71.3639 82.2371 73.4877 82.7463 77.2758 82.6856C79.7999 82.645 82.3471 82.7068 84.8727 82.7219L85.5155 82.5859C85.9806 83.0044 86.4933 83.4124 86.839 83.9246C87.1163 85.4817 88.8048 85.5586 89.1224 86.9353C89.58 87.0024 92.3683 88.7561 93.1779 89.2283L93.4945 89.0881C94.3654 89.1829 95.6268 89.2136 96.2955 89.697C96.6061 90.6497 96.4515 90.3406 97.3185 91.0125C98.5343 90.886 99.4496 90.5808 100.407 91.0796L100.545 91.1035L100.797 91.1951C102.189 91.4756 104.669 91.3716 106.179 91.3569C109.978 91.3398 114.331 91.2156 118.086 91.3374C120.722 91.3069 123.358 91.3108 125.994 91.3499L126.787 91.3198C129.694 91.3235 133.028 91.2454 135.897 91.3396C142.978 91.3237 150.35 91.2085 157.407 91.3572L166.041 91.3149L174.781 91.3096C174.786 92.6543 174.87 95.4473 174.734 96.6772L174.8 97.6807L174.822 107.437L174.84 108.357L174.823 112.148L174.805 113.109L174.769 115.618C174.781 116.695 174.678 122.047 174.786 122.611L174.859 125.151L174.873 125.971C174.859 127.281 174.811 128.767 174.839 130.061L174.824 130.651C174.823 133.102 174.775 135.719 174.857 138.156C175 139.384 175.012 140.114 175.973 140.986L175.664 142.04L175.517 141.72L174.884 142.265C174.976 143.116 175.06 143.865 175.083 144.722C175.697 145.654 175.612 145.26 175.593 146.339C175.743 147.526 176.014 148.033 176.496 149.141L176.999 149.359C177.961 149.425 178.562 149.538 179.455 149.177L179.94 148.813C181.824 149.212 182.837 149.208 184.747 148.973L184.17 150.285C184.368 151.76 184.944 154.715 184.859 155.991C184.007 157.651 183.241 158.232 181.954 159.549L181.561 159.813C180.475 158.858 180.104 158.875 178.681 158.544C177.177 159.022 176.541 159.15 175.003 159.396C173.742 159.154 173.057 159.259 171.821 159.523L171.222 159.251L171.348 158.472C169.607 158.414 161.7 158.052 160.691 158.586C157.462 159.016 147.683 158.717 144.215 158.584C144.004 158.732 143.803 158.813 143.724 159.011C136.39 159.218 137.963 158.72 137.43 165.814L137.137 165.947L137.11 167.675C134.021 168.053 129.119 167.107 125.902 166.952C122.233 166.774 118.859 166.979 115.214 167.196C115.04 167.713 114.957 168.072 114.836 168.605L114.789 167.26C114.734 165.077 114.85 161.281 115.019 159.131L115.207 158.424L114.589 158.499L114.387 158.543C112.952 158.84 111.97 158.416 111.07 158.849C110.95 159.226 110.866 159.385 110.91 159.784C109.336 160.889 101.331 160.495 98.8947 160.486L80.3314 160.432C75.9711 160.403 73.7201 160.974 70.6849 157.899C69.3585 156.287 69.1754 155.851 68.9345 153.777C68.7304 151.866 68.8551 148.126 68.8663 146.044L68.9415 131.929L68.9489 114.618C68.9454 111.467 68.8366 107.448 69.0529 104.381C68.9733 100.171 68.744 89.2659 69.141 85.6462Z" fill="#BEEDC4"/>
<path d="M69.141 85.6462C71.3639 82.2371 73.4877 82.7463 77.2758 82.6856C79.7999 82.645 82.3471 82.7068 84.8727 82.7219L85.5155 82.5859C85.9806 83.0044 86.4933 83.4124 86.839 83.9246C87.1163 85.4817 88.8048 85.5586 89.1224 86.9353C89.58 87.0024 92.3683 88.7561 93.1779 89.2283C92.6649 89.469 92.3561 89.5571 91.7946 89.6318L91.6017 90.0034C91.8544 90.5032 91.9743 90.803 92.3573 91.2305L92.5236 91.2788C92.7262 92.4624 95.0258 95.9087 95.6805 96.5049C96.1588 96.7564 96.6344 96.9836 97.0714 97.2998L97.3671 97.6848C97.4149 101.681 97.6823 108.104 97.121 111.828L96.5866 111.793C96.587 112.541 96.486 113.527 97.109 114.073C97.3578 116.211 97.1779 122.673 97.0421 125.006L96.4279 125.474L96.422 126.389L97.091 126.897C97.3075 129.066 97.2826 139.577 96.7694 141.141L96.6544 142.42L96.6972 146.995L106.355 146.983L113.875 146.992L120.642 146.984C122.354 146.976 124.234 147.008 125.93 146.955L126.876 146.959L131.174 146.994L136.039 147.014L142.561 147.013L148.109 146.997L156.372 146.997C156.735 145.252 156.292 144.016 156.692 142.316C159.806 142.392 162.915 142.348 165.986 142.42C168.337 142.402 172.7 142.484 174.884 142.265C174.976 143.116 175.06 143.865 175.083 144.722C175.697 145.654 175.612 145.26 175.593 146.339C175.743 147.526 176.014 148.033 176.496 149.141L176.999 149.359C177.961 149.425 178.562 149.538 179.455 149.177L179.94 148.813C181.824 149.212 182.837 149.208 184.747 148.973L184.17 150.285C184.368 151.76 184.944 154.715 184.859 155.991C184.007 157.651 183.241 158.232 181.954 159.549L181.561 159.813C180.475 158.858 180.104 158.875 178.681 158.544C177.177 159.022 176.541 159.15 175.003 159.396C173.742 159.154 173.057 159.259 171.821 159.523L171.222 159.251L171.348 158.472C169.607 158.414 161.7 158.052 160.691 158.586C157.462 159.016 147.683 158.717 144.215 158.584C144.004 158.732 143.803 158.813 143.724 159.011C136.39 159.218 137.963 158.72 137.43 165.814L137.137 165.947L137.11 167.675C134.021 168.053 129.119 167.107 125.902 166.952C122.233 166.774 118.859 166.979 115.214 167.196C115.04 167.713 114.957 168.072 114.836 168.605L114.789 167.26C114.734 165.077 114.85 161.281 115.019 159.131L115.207 158.424L114.589 158.499L114.387 158.543C112.952 158.84 111.97 158.416 111.07 158.849C110.95 159.226 110.866 159.385 110.91 159.784C109.336 160.889 101.331 160.495 98.8947 160.486L80.3314 160.432C75.9711 160.403 73.7201 160.974 70.6849 157.899C69.3585 156.287 69.1754 155.851 68.9345 153.777C68.7304 151.866 68.8551 148.126 68.8663 146.044L68.9415 131.929L68.9489 114.618C68.9454 111.467 68.8366 107.448 69.0529 104.381C68.9733 100.171 68.744 89.2659 69.141 85.6462Z" fill="#F8F8F8"/>
<path d="M179.456 149.175L179.941 148.811C181.825 149.209 182.838 149.205 184.748 148.971L184.171 150.283C184.369 151.757 184.945 154.713 184.86 155.989C184.009 157.648 183.242 158.23 181.956 159.547L181.562 159.811C180.476 158.856 180.105 158.873 178.682 158.542C177.178 159.02 176.542 159.147 175.004 159.394C173.743 159.151 173.058 159.257 171.823 159.521L171.223 159.249L171.349 158.47C169.608 158.411 161.701 158.049 160.692 158.584C157.463 159.014 147.684 158.715 144.217 158.582C144.005 158.73 143.804 158.811 143.725 159.009C136.391 159.216 137.964 158.718 137.431 165.812L137.138 165.945L137.111 167.673C134.022 168.051 129.12 167.105 125.903 166.95C122.234 166.772 118.86 166.977 115.215 167.193C115.041 167.711 114.958 168.07 114.837 168.603L114.79 167.258C114.735 165.075 114.851 161.279 115.021 159.129L115.208 158.421L114.59 158.497L114.388 158.541C112.953 158.838 111.971 158.413 111.071 158.847C110.951 159.224 110.867 159.383 110.911 159.782C109.337 160.886 101.333 160.493 98.8958 160.484L80.3325 160.429C75.9722 160.401 73.7212 160.972 70.686 157.897C69.3596 156.284 69.1765 155.849 68.9355 153.775C69.4431 153.522 69.9451 153.241 70.4436 152.97C70.5508 152.824 70.5093 152.839 70.6563 152.775C71.6484 152.343 72.1084 151.186 72.5493 150.234L73.115 149.895L72.9065 149.583C73.9976 149.271 80.7236 149.381 82.4285 149.384L102.197 149.402L176.498 149.139L177 149.357C177.962 149.422 178.563 149.536 179.456 149.175Z" fill="#03173E"/>
<path d="M179.456 149.175L179.941 148.811C181.825 149.209 182.837 149.205 184.748 148.971L184.171 150.283C184.369 151.757 184.945 154.713 184.86 155.989C184.008 157.648 183.242 158.23 181.955 159.547L181.562 159.811C180.476 158.856 180.104 158.873 178.682 158.542C177.178 159.02 176.542 159.147 175.004 159.394C173.743 159.151 173.057 159.257 171.822 159.521L171.223 159.249L171.349 158.47L172.821 158.233C172.345 156.356 172.261 155.167 172.447 153.287C171.429 152.9 164.92 153.682 163.173 153.64C151.978 153.368 140.859 154.49 129.7 154.836C128.95 154.86 128.56 155.234 127.79 155.067C126.813 156.043 126.757 156.267 125.338 156.114C122.202 156.245 117.361 155.061 114.054 154.927C112.023 154.698 109.851 154.065 107.82 153.986C95.3643 153.502 82.8411 154.123 70.4434 152.97C70.5505 152.824 70.509 152.839 70.656 152.775C71.6482 152.343 72.1082 151.186 72.5491 150.234L73.1148 149.895L72.9063 149.583C73.9973 149.271 80.7234 149.381 82.4282 149.384L102.197 149.402L176.497 149.139L177 149.357C177.962 149.422 178.563 149.536 179.456 149.175Z" fill="#253F6B"/>
<path d="M172.447 153.288C172.739 152.638 172.801 152.367 173.348 151.902C174.052 152.132 173.864 152.107 174.361 152.862C176.679 152.745 179.657 153.859 182.876 153.856C183.777 154.577 184.347 154.94 184.86 155.99C184.008 157.649 183.242 158.231 181.955 159.547L181.562 159.811C180.475 158.857 180.104 158.873 178.681 158.543C177.177 159.021 176.541 159.148 175.003 159.395C173.742 159.152 173.057 159.258 171.822 159.522L171.223 159.25L171.348 158.471L172.82 158.233C172.344 156.357 172.261 155.168 172.447 153.288Z" fill="#03173E"/>
<path d="M172.447 153.288C172.739 152.638 172.801 152.367 173.348 151.902C174.052 152.132 173.864 152.107 174.361 152.862C174.978 154.25 176.274 156.808 176.505 158.154L178.681 158.543C177.177 159.021 176.541 159.148 175.003 159.395C173.742 159.152 173.057 159.258 171.822 159.522L171.223 159.25L171.348 158.471L172.82 158.233C172.344 156.357 172.261 155.168 172.447 153.288Z" fill="#027952"/>
<path d="M176.505 158.156L178.681 158.545C177.177 159.022 176.541 159.15 175.003 159.397C173.742 159.154 173.057 159.26 171.822 159.524L171.223 159.252L171.348 158.473L172.82 158.235C173.751 158.231 175.658 158.275 176.505 158.156Z" fill="#3DD558"/>
<path d="M179.458 149.175L179.943 148.811C181.827 149.209 182.839 149.205 184.75 148.971L184.173 150.283C182.589 150.412 177.611 150.795 176.711 149.559L177.002 149.357C177.964 149.422 178.564 149.536 179.458 149.175Z" fill="#03173E"/>
<path d="M125.337 156.115L124.654 155.291C124.629 154.356 124.551 154.731 125.001 153.867C125.86 153.385 125.471 153.488 126.495 153.519C127.246 153.847 127.415 154.348 127.788 155.068C126.811 156.045 126.755 156.269 125.337 156.115Z" fill="#F8F8F8"/>
<path d="M115.022 159.13C120.461 159.144 131.769 159.459 136.709 158.939C136.648 161.115 136.439 163.937 137.139 165.946L137.113 167.675C134.023 168.052 129.122 167.107 125.904 166.951C122.235 166.774 118.862 166.979 115.216 167.195C115.042 167.712 114.959 168.071 114.839 168.605L114.791 167.26C114.736 165.076 114.853 161.281 115.022 159.13Z" fill="#0B1D4C"/>
<path d="M70.6855 157.9C72.0471 157.75 71.8228 157.555 72.7615 158.157C73.0464 158.973 73.0227 159.042 73.9417 159.168C78.1462 159.747 109.021 158.323 110.91 159.785C109.337 160.889 101.332 160.496 98.8953 160.487L80.332 160.432C75.9717 160.404 73.7207 160.975 70.6855 157.9Z" fill="#0F254B"/>
<path d="M72.7617 158.156C75.6804 158.424 80.4243 158.318 83.4597 158.326L102.825 158.341C106.407 158.345 111.08 158.27 114.59 158.499L114.387 158.542C112.953 158.84 111.971 158.415 111.071 158.849C110.95 159.226 110.867 159.385 110.91 159.784C109.021 158.322 78.1465 159.747 73.9419 159.167C73.023 159.041 73.0466 158.972 72.7617 158.156Z" fill="#D9D5E4"/>
<path d="M115.209 158.423C117.903 158.286 143.064 158.161 144.218 158.583C144.006 158.731 143.805 158.812 143.726 159.01C136.392 159.217 137.965 158.719 137.432 165.814L137.139 165.946C136.439 163.936 136.647 161.114 136.709 158.939C131.769 159.459 120.461 159.144 115.021 159.13L115.209 158.423Z" fill="#D9D5E4"/>
<path d="M92.3585 91.2305L92.5247 91.2788C92.7274 92.4624 95.0269 95.9087 95.6817 96.5049C96.16 96.7563 96.6356 96.9836 97.0726 97.2998L97.3683 97.6848C97.4161 101.681 97.6834 108.104 97.1222 111.828L96.5877 111.793C96.5882 112.541 96.4872 113.527 97.1102 114.073C97.359 116.211 97.179 122.673 97.0433 125.006L96.429 125.474L96.4232 126.389L97.0921 126.897C97.3087 129.066 97.2838 139.577 96.7706 141.141L96.1798 141.006C94.877 141.212 89.5728 141.218 87.868 141.253C87.8902 139.409 88.3121 131.138 87.5406 130.218L87.1158 130.279C85.3397 130.996 79.9461 130.673 77.6432 130.793L77.6212 129.917C77.5489 128.374 77.4632 127.478 77.7176 125.941L77.586 125.115C77.5575 124.221 77.5973 123.522 77.6778 122.632C77.9769 119.326 77.6847 116.036 77.6427 112.721L77.6151 112.189C77.6214 110.925 77.6478 109.661 77.6942 108.398L77.7655 107.445C77.422 106.229 77.6473 99.2056 77.6939 97.6589C77.951 97.2529 77.8575 97.3391 77.7784 96.7209C77.5287 95.1079 77.6322 92.9758 77.6615 91.3C80.9906 91.3564 84.4508 91.3125 87.7911 91.3176C89.1729 91.3403 91.0304 91.4351 92.3585 91.2305Z" fill="#14992B"/>
<path d="M77.7655 107.445C80.3629 107.483 84.4088 107.397 86.8763 107.597C86.8631 109.905 86.8868 113.026 86.7552 115.265C86.5204 119.26 87.8885 117.584 88.4486 119.02C88.1041 119.911 87.7728 119.795 86.8646 120.509C86.9139 122.111 86.7938 129.315 87.1158 130.279C85.3397 130.996 79.9461 130.673 77.6432 130.793L77.6212 129.917C77.5489 128.375 77.4632 127.479 77.7176 125.942L77.586 125.116C77.5575 124.221 77.5973 123.522 77.6778 122.633C77.9769 119.326 77.6847 116.037 77.6427 112.721L77.6151 112.189C77.6214 110.925 77.6478 109.662 77.6942 108.398L77.7655 107.445Z" fill="#038D26"/>
<path d="M77.644 112.721L77.8227 112.774C78.9489 113.1 79.5649 112.871 80.6848 112.578C81.372 113.811 81.152 123.311 81.0319 125.205C79.923 125.189 78.6828 125.2 77.5873 125.115C77.5588 124.221 77.5986 123.522 77.6791 122.632C77.9782 119.325 77.686 116.036 77.644 112.721Z" fill="#038D26"/>
<path d="M77.7654 107.445C80.3628 107.483 84.4087 107.397 86.8762 107.597C86.863 109.905 86.8867 113.026 86.7551 115.265C86.5203 119.26 87.8884 117.584 88.4485 119.02C88.104 119.911 87.7727 119.795 86.8645 120.509C86.9138 122.111 86.7937 129.315 87.1157 130.279C85.3396 130.996 79.946 130.673 77.6431 130.793L77.6211 129.917C79.9453 130.035 84.0034 129.941 86.0225 130.156C85.8704 126.998 86.1272 123.873 85.8706 120.749C85.7649 119.464 85.2248 120.295 85.0605 118.827C86.4795 116.515 85.9963 111.325 85.989 108.252C83.8958 108.435 79.9243 108.374 77.6941 108.398L77.7654 107.445Z" fill="#DDFBE9"/>
<path d="M86.0225 130.155L86.3635 130.252C87.0334 129.273 86.4885 122.762 86.8645 120.508C86.9138 122.11 86.7937 129.314 87.1157 130.278C85.3396 130.995 79.946 130.672 77.6431 130.792L77.6211 129.916C79.9453 130.034 84.0034 129.94 86.0225 130.155Z" fill="#31CB93"/>
<path d="M77.6169 112.188C79.4119 111.888 80.0916 111.933 81.8428 112.117C81.9656 116.655 82.167 121.392 81.7786 125.911C80.5784 125.945 78.876 126.045 77.7195 125.94L77.5879 125.114C78.6833 125.199 79.9236 125.188 81.0325 125.204C81.1526 123.31 81.3726 113.81 80.6853 112.577C79.5654 112.871 78.9495 113.099 77.8232 112.773L77.6445 112.72L77.6169 112.188Z" fill="#BEEDC4"/>
<path d="M92.3585 91.2305L92.5248 91.2788C92.7274 92.4624 95.0269 95.9087 95.6817 96.5049C96.16 96.7563 96.6356 96.9836 97.0726 97.2998L97.3683 97.6848C97.4161 101.681 97.6834 108.104 97.1222 111.828L96.5877 111.793L96.401 111.703C95.5782 109.027 96.9513 100.988 96.388 98.1719C94.5873 97.2886 81.5543 98.4863 78.608 97.7078L77.6939 97.6589C77.951 97.2529 77.8575 97.3391 77.7784 96.7209C77.5287 95.1079 77.6322 92.9758 77.6615 91.3C80.9906 91.3564 84.4508 91.3125 87.7911 91.3176C89.1729 91.3403 91.0304 91.4351 92.3585 91.2305Z" fill="#38AF36"/>
<path d="M77.6615 91.2988C80.9906 91.3552 84.4508 91.3113 87.7911 91.3164C87.9432 93.1633 87.9322 94.9099 87.9391 96.7615C84.5521 96.7769 81.1651 96.7629 77.7784 96.7197C77.5287 95.1067 77.6322 92.9746 77.6615 91.2988Z" fill="#038D26"/>
<path d="M92.3584 91.2305L92.5247 91.2788C92.7273 92.4624 95.0269 95.9087 95.6816 96.5049C94.2532 96.8403 89.614 96.7629 87.939 96.7627C87.9321 94.9111 87.9431 93.1645 87.791 91.3176C89.1729 91.3403 91.0303 91.4351 92.3584 91.2305Z" fill="#38AF36"/>
<path d="M77.7778 96.72C81.1646 96.7632 84.5515 96.7771 87.9385 96.7617C89.6135 96.762 94.2527 96.8394 95.6812 96.5039C96.1594 96.7554 96.635 96.9827 97.072 97.2988C95.2236 98.2878 81.9077 97.3135 78.6074 97.7068L77.6934 97.658C77.9504 97.252 77.8569 97.3381 77.7778 96.72Z" fill="#BEEDC4"/>
<path d="M96.4234 126.389L97.0924 126.896C97.3089 129.065 97.284 139.576 96.7709 141.14L96.18 141.005C95.909 139.597 96.1461 127.906 96.4234 126.389Z" fill="#38AF36"/>
<path d="M96.4018 111.701L96.5886 111.791C96.5891 112.539 96.488 113.524 97.1111 114.071C97.3599 116.209 97.1799 122.671 97.0442 125.004L96.4299 125.471C95.2214 123.89 96.4512 114.519 96.4018 111.701Z" fill="#38AF36"/>
<path d="M69.141 85.6462C71.3639 82.2371 73.4877 82.7463 77.2758 82.6856C79.7999 82.645 82.3471 82.7068 84.8727 82.7219L85.5155 82.5859C85.9806 83.0044 86.4933 83.4124 86.839 83.9246C87.1163 85.4817 88.8048 85.5586 89.1224 86.9353L87.7843 86.8716L72.7499 86.9128C72.6566 100.96 72.6388 115.008 72.6964 129.055C72.6859 132.127 72.4655 147.809 72.9054 149.585L73.1139 149.897L72.5482 150.236C72.1073 151.188 71.6473 152.345 70.6552 152.777C70.5082 152.841 70.5497 152.826 70.4425 152.972C69.944 153.243 69.442 153.524 68.9345 153.777C68.7304 151.866 68.8551 148.126 68.8663 146.044L68.9415 131.929L68.9489 114.618C68.9454 111.467 68.8366 107.448 69.0529 104.381C68.9733 100.171 68.744 89.2659 69.141 85.6462Z" fill="#0F254B"/>
<path d="M68.9345 153.777C68.7304 151.866 68.8551 148.125 68.8663 146.044L68.9415 131.929L68.9489 114.617C68.9454 111.466 68.8366 107.447 69.0529 104.381C69.2665 106.612 69.1676 108.868 69.1937 111.108C69.3502 124.45 68.9247 137.895 69.1491 151.228C70.3834 150.562 71.1195 150.021 72.5482 150.235C72.1073 151.188 71.6473 152.345 70.6552 152.777C70.5082 152.841 70.5497 152.826 70.4425 152.971C69.944 153.243 69.442 153.524 68.9345 153.777Z" fill="#1F3A66"/>
<path d="M84.873 82.7219L85.5159 82.5859C85.981 83.0044 86.4936 83.4124 86.8394 83.9246C87.1167 85.4817 88.8052 85.5586 89.1228 86.9353L87.7847 86.8716C87.0889 86.6799 86.0386 86.6274 85.2905 86.564C84.9692 84.9819 84.9333 84.3162 84.873 82.7219Z" fill="#01040D"/>
<path d="M87.1171 130.279L87.5419 130.219C88.3133 131.138 87.8915 139.409 87.8693 141.253C89.5741 141.218 94.8783 141.212 96.181 141.006L96.7718 141.141L96.6569 142.42C94.6246 142.263 90.3881 142.4 88.1949 142.408C85.1591 142.335 80.6637 142.255 77.6761 142.565C77.3253 140.669 77.1957 132.957 77.5887 131.132L77.6444 130.793C79.9474 130.673 85.3409 130.996 87.1171 130.279Z" fill="#038D26"/>
<path d="M77.6761 142.566C77.3253 140.67 77.1957 132.957 77.5887 131.133C77.7528 134.321 77.6612 138.058 77.6486 141.294C80.8695 141.284 84.7027 141.376 87.8693 141.253C89.5741 141.218 94.8783 141.213 96.181 141.007L96.7718 141.142L96.6569 142.42C94.6246 142.264 90.3881 142.4 88.1949 142.408C85.1591 142.335 80.6637 142.256 77.6761 142.566Z" fill="#BEEDC4"/>
<path d="M77.6751 142.566C80.6626 142.256 85.158 142.335 88.1939 142.408L87.8633 147.013C84.3033 147.001 80.7432 146.965 77.1834 146.905C77.1292 145.231 77.0354 144.113 77.6751 142.566Z" fill="#038D26"/>
<path d="M156.692 142.314C159.806 142.39 162.916 142.346 165.986 142.418C166 143.57 165.974 145.942 166.117 146.987L156.373 146.996C156.736 145.25 156.293 144.014 156.692 142.314Z" fill="#14992B"/>
<path d="M165.986 142.419C168.337 142.401 172.7 142.483 174.885 142.264C174.976 143.115 175.061 143.865 175.084 144.721C175.698 145.653 175.612 145.259 175.594 146.338L174.624 146.863C172.088 147.069 168.717 146.983 166.117 146.987C165.974 145.943 166 143.571 165.986 142.419Z" fill="#038D26"/>
<path d="M175.083 144.723C175.698 145.655 175.612 145.261 175.593 146.34L174.623 146.864L175.083 144.723Z" fill="#BEEDC4"/>
<path d="M88.1938 142.406C90.387 142.399 94.6235 142.262 96.6558 142.419L96.6985 146.994L87.8633 147.011L88.1938 142.406Z" fill="#38AF36"/>
<path d="M74.483 116.32L74.986 116.689C75.2814 117.59 75.1424 118.833 75.0987 119.809L74.5797 119.555C74.3219 118.611 74.4442 117.325 74.483 116.32Z" fill="#5E5F7F"/>
<path d="M135.898 91.3388C142.979 91.3229 150.351 91.2077 157.408 91.3564L166.042 91.3141L174.783 91.3088C174.788 92.6535 174.872 95.4464 174.735 96.6764L174.802 97.6798L174.824 107.436L174.842 108.357L174.825 112.147L174.806 113.109L174.77 115.617C174.782 116.694 174.68 122.046 174.787 122.61L174.861 125.151L174.874 125.971C174.86 127.28 174.812 128.767 174.84 130.06L174.825 130.65C174.824 133.101 174.776 135.718 174.859 138.155C175.001 139.383 175.013 140.113 175.974 140.985L175.666 142.039L175.518 141.719L174.885 142.264C172.701 142.483 168.338 142.401 165.987 142.419C162.917 142.347 159.807 142.391 156.693 142.315C156.293 144.015 156.737 145.251 156.374 146.996L148.11 146.996L142.562 147.013L136.041 147.013C136.227 138.685 135.929 129.895 136.238 121.704C135.833 120.569 136.097 120.844 135.223 120.131C135.384 118.498 135.374 117.937 135.253 116.315L136.261 115.244C135.666 108.317 136.805 98.3305 135.923 91.6357L135.898 91.3388Z" fill="#39B132"/>
<path d="M157.409 91.3562L166.043 91.314L174.783 91.3086C174.788 92.6533 174.872 95.4463 174.736 96.6763L174.802 97.6797L174.824 107.436L174.842 108.356L174.825 112.147L174.807 113.108L174.771 115.617C174.783 116.694 174.68 122.046 174.788 122.61L174.861 125.15L174.875 125.97C174.861 127.28 174.813 128.766 174.84 130.06L174.826 130.65C174.825 133.101 174.777 135.718 174.859 138.155C175.002 139.383 175.014 140.113 175.975 140.985L175.666 142.039L175.519 141.719L174.886 142.264C172.702 142.483 168.339 142.401 165.988 142.419C162.917 142.347 159.808 142.391 156.694 142.315L156.753 142.068C157.177 140.815 156.572 139.432 157.143 138.491C157.336 134.45 157.098 130.155 157.286 126.03L156.638 126.991C155.987 125.21 154.166 123.249 153.657 120.693C152.975 117.268 154.755 114.529 156.498 111.76C156.425 107.753 156.122 100.505 156.612 96.8389C156.48 95.7126 156.548 92.991 156.498 91.6269C156.909 91.656 157.045 91.5422 157.409 91.3562Z" fill="#14992B"/>
<path d="M157.409 91.3562L166.043 91.314L174.783 91.3086C174.788 92.6533 174.872 95.4463 174.736 96.6763L174.802 97.6797L165.908 97.7053C163.007 97.7241 159.926 97.7935 157.044 97.7175C157.172 103.65 157.215 109.583 157.175 115.517C157.164 117.556 156.99 124.406 157.286 126.03L156.638 126.991C155.987 125.21 154.166 123.249 153.657 120.693C152.975 117.268 154.755 114.529 156.498 111.76C156.425 107.753 156.122 100.505 156.612 96.8389C156.48 95.7126 156.548 92.991 156.498 91.6269C156.909 91.656 157.045 91.5422 157.409 91.3562Z" fill="#BEEDC4"/>
<path d="M157.409 91.3567L166.043 91.3145L165.939 96.7649C162.754 96.7324 159.793 96.7065 156.611 96.8394C156.48 95.7131 156.547 92.9915 156.498 91.6274C156.908 91.6565 157.044 91.5427 157.409 91.3567Z" fill="#38AF36"/>
<path d="M166.043 91.314L174.784 91.3086C174.789 92.6533 174.873 95.4463 174.736 96.6763L165.939 96.7644L166.043 91.314Z" fill="#14992B"/>
<path d="M156.129 113.674L156.408 113.969C156.337 115.157 156.381 124.159 156.345 124.236L155.854 123.946C153.413 119.946 154.108 117.61 156.129 113.674Z" fill="#038D26"/>
<path d="M167.191 108.478C169.722 108.322 172.304 108.357 174.843 108.357L174.826 112.148L174.808 113.109L174.771 115.618C174.783 116.695 174.681 122.047 174.788 122.611L174.862 125.151L174.875 125.971C174.862 127.28 174.814 128.767 174.841 130.061C172.752 130.065 169.548 129.987 167.537 130.185C167.32 127.461 167.409 123.5 167.275 120.533L167.257 118.284C167.418 116.398 167.615 110.177 167.191 108.478Z" fill="#038D26"/>
<path d="M170.976 112.799C171.764 112.484 173.489 113.115 174.806 113.108L174.77 115.617C174.781 116.694 174.679 122.045 174.787 122.609L174.86 125.15C173.622 125.197 172.194 125.332 170.941 125.422C171.017 121.196 170.926 117.016 170.976 112.799Z" fill="#038D26"/>
<path d="M174.788 122.61L174.475 122.199C173.709 122.069 173.352 121.982 173.185 121.151C172.928 119.875 172.586 117.433 173.244 116.312L173.835 116.283C174.34 117.12 173.699 117.566 174.201 118.483L174.268 118.47C174.889 117.62 174.245 117.374 174.77 115.617C174.782 116.695 174.68 122.046 174.788 122.61Z" fill="#31CB93"/>
<path d="M170.413 112.029L171.019 112.374L170.975 112.799C170.925 117.015 171.016 121.196 170.941 125.422C172.193 125.331 173.621 125.197 174.86 125.149L174.873 125.969C173.355 126.155 171.468 126.038 169.907 125.991C169.937 122.035 169.786 116.521 170.022 112.454C170.175 112.287 170.306 112.146 170.413 112.029Z" fill="#DDFBE9"/>
<path d="M170.414 112.03C171.558 111.88 173.608 112.073 174.824 112.147L174.806 113.108C173.489 113.115 171.764 112.485 170.976 112.8L171.02 112.375L170.414 112.03Z" fill="#31CB93"/>
<path d="M174.839 130.061L174.825 130.651C174.823 133.102 174.775 135.719 174.858 138.156C175 139.384 175.013 140.114 175.974 140.986L175.665 142.04L175.518 141.72C175.488 141.578 175.354 141.386 175.272 141.244C172.264 141.177 168.952 141.276 165.922 141.315C166.203 138.848 165.503 132.27 166.469 130.564L166.468 130.42L167.535 130.185C169.546 129.987 172.75 130.065 174.839 130.061Z" fill="#038D26"/>
<path d="M174.838 130.061L174.824 130.651C172.582 130.758 168.598 130.846 166.469 130.564L166.467 130.42L167.534 130.185C169.545 129.987 172.749 130.065 174.838 130.061Z" fill="#31CB93"/>
<path d="M165.909 97.7073L174.803 97.6816L174.825 107.438L174.843 108.358C172.304 108.358 169.722 108.323 167.191 108.479L166.714 108.318L166.486 107.728L166.309 107.721C165.579 106.338 166.065 100.019 165.909 97.7073Z" fill="#038D26"/>
<path d="M166.484 107.727C167.791 107.325 173.052 107.435 174.823 107.437L174.842 108.357C172.303 108.357 169.721 108.321 167.19 108.477L166.712 108.317L166.484 107.727Z" fill="#DDFBE9"/>
<path d="M156.753 142.069C157.177 140.816 156.572 139.433 157.143 138.492L157.187 141.302L165.923 141.315C168.953 141.276 172.265 141.177 175.273 141.244C175.355 141.386 175.489 141.578 175.519 141.72L174.886 142.265C172.702 142.484 168.339 142.402 165.988 142.42C162.917 142.348 159.808 142.392 156.693 142.316L156.753 142.069Z" fill="#BEEDC4"/>
<path d="M166.195 120.561L167.275 120.533C167.409 123.5 167.32 127.462 167.537 130.185L166.469 130.42C166.068 129.388 166.3 122.405 166.195 120.561Z" fill="#8DE6B1"/>
<path d="M166.308 107.719L166.485 107.726L166.712 108.316L167.19 108.477C167.614 110.176 167.417 116.397 167.256 118.283L166.321 117.979C166.184 114.959 166.211 110.747 166.308 107.719Z" fill="#8DE6B1"/>
<path d="M166.32 117.979L167.255 118.282L167.274 120.531L166.193 120.559C165.229 120.186 164.215 120.011 164.298 118.863C164.823 118.251 165.527 118.174 166.32 117.979Z" fill="#F8F8F8"/>
<path d="M148.556 91.5364C150.741 91.5117 154.312 91.4685 156.497 91.626C156.547 92.99 156.479 95.7117 156.61 96.8379C156.12 100.504 156.424 107.752 156.497 111.759C154.754 114.528 152.974 117.267 153.656 120.692C154.165 123.248 155.986 125.209 156.637 126.99L157.285 126.029C157.097 130.154 157.335 134.449 157.142 138.49C156.57 139.431 157.176 140.814 156.752 142.067L156.692 142.314C156.293 144.014 156.736 145.25 156.373 146.995L148.11 146.995C147.811 139.914 148.193 131.26 148.138 123.983C148.027 116.72 148.022 109.456 148.126 102.193C148.163 99.3098 148.119 94.2178 148.556 91.5364Z" fill="#038D26"/>
<path d="M157.285 126.029C157.097 130.154 157.335 134.449 157.142 138.491C156.571 139.432 157.176 140.814 156.752 142.068C156.19 140.576 156.229 128.549 156.637 126.99L157.285 126.029Z" fill="#8DE6B1"/>
<path d="M142.669 91.6436C144.711 91.6567 146.518 91.6379 148.556 91.5371C148.12 94.2185 148.164 99.3105 148.127 102.194C148.023 109.457 148.027 116.721 148.139 123.984C148.194 131.26 147.812 139.915 148.111 146.995L142.562 147.012L142.669 91.6436Z" fill="#38AF36"/>
<path d="M136.261 115.244C136.332 117.532 136.322 119.415 136.238 121.704C135.833 120.569 136.097 120.844 135.223 120.131C135.384 118.498 135.374 117.937 135.253 116.315L136.261 115.244Z" fill="#14992B"/>
<path d="M93.1777 89.228L93.4944 89.0879C94.3652 89.1826 95.6267 89.2134 96.2954 89.6968C96.606 90.6494 96.4514 90.3403 97.3184 91.0122C98.5342 90.8857 99.4495 90.5806 100.407 91.0793L100.545 91.1033L100.797 91.1948C102.189 91.4753 104.669 91.3713 106.179 91.3567C106.716 92.4751 106.446 141.735 106.355 146.983L96.697 146.995L96.6543 142.419L96.7693 141.141C97.2825 139.577 97.3074 129.065 97.0908 126.896L96.4219 126.389L96.4277 125.473L97.042 125.006C97.1777 122.673 97.3577 116.211 97.1089 114.073C96.4858 113.526 96.5869 112.541 96.5864 111.793L97.1208 111.827C97.6821 108.104 97.4148 101.681 97.3669 97.6846L97.0713 97.2996C96.6343 96.9834 96.1587 96.7561 95.6804 96.5046C95.0256 95.9084 92.7261 92.4622 92.5234 91.2786L92.3572 91.2302C91.9741 90.8027 91.8542 90.5029 91.6016 90.0032L91.7944 89.6316C92.356 89.5569 92.6648 89.4687 93.1777 89.228Z" fill="#038D26"/>
<path d="M93.1777 89.228L93.4944 89.0879C94.3652 89.1826 95.6267 89.2134 96.2954 89.6968C96.606 90.6494 96.4514 90.3403 97.3184 91.0122C98.5342 90.8857 99.4495 90.5806 100.407 91.0793L100.545 91.1033L100.752 91.6738L101.448 91.9475C101.32 92.2585 97.471 97.6055 97.3669 97.6846L97.0713 97.2996C96.6343 96.9834 96.1587 96.7561 95.6804 96.5046C95.0256 95.9084 92.7261 92.4622 92.5234 91.2786L92.3572 91.2302C91.9741 90.8027 91.8542 90.5029 91.6016 90.0032L91.7944 89.6316C92.356 89.5569 92.6648 89.4687 93.1777 89.228Z" fill="#016A2C"/>
<path d="M93.1777 89.228L93.4944 89.0879C94.3652 89.1826 95.6267 89.2134 96.2954 89.6968C96.606 90.6494 96.4514 90.3403 97.3184 91.0122C98.5342 90.8857 99.4495 90.5806 100.407 91.0793C97.6313 92.1648 95.1992 90.3369 92.5234 91.2786L92.3572 91.2302C91.9741 90.8027 91.8542 90.5029 91.6016 90.0032L91.7944 89.6316C92.356 89.5569 92.6648 89.4687 93.1777 89.228Z" fill="#0F254B"/>
<path d="M96.5884 111.793L97.1228 111.827C98.1211 113.972 99.6138 116.507 100.668 118.566C101.206 119.615 97.7551 125.818 97.0928 126.896L96.4238 126.389L96.4297 125.473L97.0439 125.006C97.1797 122.673 97.3596 116.21 97.1108 114.073C96.4878 113.526 96.5889 112.541 96.5884 111.793Z" fill="#BEEDC4"/>
<path d="M97.1118 114.072C99.6421 116.947 99.6265 122.251 97.0449 125.005C97.1807 122.672 97.3606 116.21 97.1118 114.072Z" fill="#038D26"/>
<path d="M106.18 91.3557C109.979 91.3386 114.332 91.2143 118.087 91.3361L118.146 91.5715L114.089 91.5544C113.717 93.5581 113.811 97.7551 113.801 99.9326L113.747 114.145L113.754 135.539C113.758 138.529 113.609 144.187 113.876 146.991L106.356 146.982C106.447 141.734 106.717 92.4741 106.18 91.3557Z" fill="#38AF36"/>
<path d="M118.147 91.571C118.92 91.5412 119.668 91.4125 120.317 91.7639C121.272 94.1838 119.923 108.846 121.005 110.428L121.117 110.593C115.734 115.803 115.84 119.816 120.601 125.31C120.378 132.103 120.62 140.073 120.644 146.982L113.877 146.991C113.61 144.186 113.759 138.528 113.755 135.539L113.747 114.144L113.802 99.9321C113.812 97.7546 113.718 93.5576 114.09 91.5539L118.147 91.571Z" fill="#14992B"/>
<path d="M126.789 91.3199C129.695 91.3236 133.03 91.2454 135.899 91.3397L135.923 91.6366C136.805 98.3314 135.666 108.318 136.262 115.245L135.253 116.316C134.501 113.783 132.711 111.888 130.69 110.323C129.879 109.573 128.063 109.447 126.97 109.33C126.848 103.366 126.917 97.3443 126.789 91.3199Z" fill="#14992B"/>
<path d="M126.789 91.3199C129.695 91.3236 133.03 91.2454 135.899 91.3397L135.923 91.6366C134.653 91.629 132.407 91.5567 131.226 91.6668C131.198 94.6793 131.393 108.812 130.69 110.323C129.879 109.573 128.063 109.447 126.97 109.33C126.848 103.366 126.917 97.3443 126.789 91.3199Z" fill="#38AF36"/>
<path d="M135.222 120.131C136.096 120.844 135.832 120.569 136.238 121.704C135.929 129.895 136.226 138.685 136.04 147.013L131.174 146.993C130.912 140.639 131.28 132.33 131.293 125.697C133.44 124.002 134.187 122.571 135.222 120.131Z" fill="#14992B"/>
<path d="M120.6 125.311C123.179 126.936 123.07 126.751 125.981 127.065C125.911 133.255 125.73 140.85 125.93 146.953C124.234 147.007 122.354 146.974 120.642 146.982C120.618 140.073 120.377 132.103 120.6 125.311Z" fill="#39B132"/>
<path d="M118.088 91.3366C120.724 91.3061 123.36 91.31 125.996 91.3491C125.984 97.2255 126.036 103.235 125.949 109.1C124.129 109.411 122.714 109.59 121.117 110.594L121.005 110.429C119.923 108.847 121.272 94.1848 120.317 91.7649C119.668 91.4135 118.92 91.5422 118.147 91.572L118.088 91.3366Z" fill="#39B132"/>
<path d="M126.787 127.06C128.855 126.902 129.439 126.557 131.293 125.697C131.281 132.33 130.912 140.639 131.175 146.993L126.877 146.958C126.882 140.426 127.059 133.561 126.787 127.06Z" fill="#38AF36"/>
<path d="M120.528 112.345C121.362 111.541 123.297 110.119 124.448 109.92C126.737 110.519 125.996 114.721 125.929 116.691L126.528 116.893C126.967 118.065 126.807 118.872 126.513 120.044C126.383 120.051 126.078 120.081 125.968 120.057C125.848 122.025 125.908 124.27 125.918 126.264C124.109 125.94 121.438 125.314 120.249 123.739L118.24 121.095C118.136 119.019 118.144 117.476 118.217 115.395C119.028 114.216 119.57 113.427 120.528 112.345Z" fill="#39B132"/>
<path d="M120.528 112.346C120.787 113.994 121.087 122.598 120.249 123.74L118.24 121.096C118.136 119.02 118.144 117.477 118.217 115.396C119.028 114.217 119.57 113.428 120.528 112.346Z" fill="#14992B"/>
<path d="M125.928 116.691L126.528 116.893C126.967 118.066 126.807 118.873 126.513 120.044C126.383 120.052 126.078 120.082 125.967 120.058C125.551 119.432 125.402 119.181 125.074 118.494C125.181 117.424 125.212 117.673 125.928 116.691Z" fill="#F8F8F8"/>
<path d="M126.969 109.783C129.243 110.472 129.766 110.806 131.689 112.088C135.583 115.944 135.114 120.02 131.998 124.086C130.356 125.492 128.955 125.817 126.92 126.208L126.969 109.783Z" fill="#38AF36"/>
<path d="M131.691 112.088C135.584 115.944 135.115 120.02 131.999 124.086C130.815 122.549 130.757 113.776 131.691 112.088Z" fill="#14992B"/>
<path d="M190.349 144.471C190.931 142.695 189.858 142.064 191.783 140.523C192.188 141.068 192.594 141.556 192.843 142.19L192.887 142.362C193.605 142.997 193.42 143.29 193.241 144.281L193.512 144.448C194.356 144.03 195.66 143.597 196.501 144.343C197.489 143.654 198.582 142.846 199.627 142.272C200.607 143.784 200.887 144.22 201.467 145.989C201.79 147.148 202.15 148.343 202.371 149.523L203.34 149.096C202.841 150.499 202.648 149.446 202.691 150.564C202.914 150.205 203.067 150.136 203.431 149.969C203.87 149.979 203.743 149.986 204.17 150.31C204.759 151.563 204.686 152.856 204.471 154.194C204.829 154.414 204.79 154.328 205.32 154.276C205.337 154.701 205.386 154.562 205.232 154.923L204.524 155.167C205.354 158.274 205.228 158.225 202.846 160.346C202.353 162.155 201.078 165.445 200.275 167.228C203.304 168.435 209.489 165.762 211.88 169.048L211.908 169.639C212.728 171.128 212.621 171.564 212.345 173.278C214.741 173.493 223.232 174.735 223.624 177.483C223.532 177.684 223.424 177.877 223.268 178.037C220.68 180.692 198.298 182.499 193.416 182.899C190.232 183.16 187.026 183.102 183.837 183.298C158.443 184.726 133.004 185.173 107.576 184.638C82.5902 184.292 57.3526 184.106 32.5553 180.738C30.3233 180.435 19.7652 179.586 19.8205 176.975C21.2709 174.167 39.1937 172.107 42.1754 172.475C43.1305 172.275 43.0321 172.448 43.597 171.842C43.0245 171.062 41.7152 168.666 41.7928 167.712L42.2635 167.486C44.0504 167.417 42.9701 166.716 44.0619 167.297L44.5997 168.299L44.8739 168.295L45.0694 167.22L45.3343 167.152C45.6361 167.613 45.9325 168.078 46.2237 168.546C46.3783 169.008 46.5372 169.852 46.9212 169.876C50.2174 170.083 60.777 170.159 63.45 169.592C64.1996 169.586 65.2127 169.657 65.8573 169.358L65.3497 169.09L65.0416 168.018C70.148 167.411 74.0899 167.595 79.1341 167.358C79.7616 167.455 80.2733 167.505 80.8717 167.727C80.8014 167.685 112.279 167.316 114.789 167.26L114.837 168.605C114.958 168.071 115.04 167.712 115.215 167.195C118.86 166.979 122.234 166.774 125.903 166.951C129.12 167.107 134.021 168.052 137.111 167.675L137.137 165.946L137.431 165.814C137.963 158.719 136.39 159.218 143.724 159.01C143.804 158.812 144.005 158.731 144.216 158.583C147.683 158.716 157.463 159.016 160.692 158.585C161.701 158.051 169.608 158.413 171.349 158.471L171.223 159.25L171.822 159.522C173.057 159.259 173.743 159.153 175.004 159.396C176.542 159.149 177.178 159.021 178.682 158.543C180.104 158.874 180.475 158.858 181.562 159.812L181.955 159.548C183.242 158.232 184.008 157.65 184.86 155.99C184.944 154.714 184.369 151.759 184.171 150.284L184.748 148.973C186.247 148.403 186.907 148.025 188.038 146.899C189.238 146.125 189.649 145.696 190.349 144.471Z" fill="#42B550"/>
<path d="M190.351 144.471C190.932 142.695 189.86 142.064 191.784 140.523C192.189 141.068 192.595 141.556 192.844 142.19L192.888 142.362C193.606 142.997 193.421 143.29 193.242 144.281L193.513 144.448C194.357 144.03 195.662 143.597 196.502 144.343C197.49 143.654 198.583 142.846 199.628 142.272C200.608 143.784 200.889 144.22 201.468 145.989C201.792 147.148 202.152 148.343 202.373 149.523L203.342 149.096C202.842 150.499 202.65 149.446 202.692 150.564C202.915 150.205 203.068 150.136 203.433 149.969C203.871 149.979 203.745 149.986 204.171 150.31C204.76 151.563 204.687 152.856 204.472 154.194C204.831 154.414 204.791 154.328 205.321 154.276C205.339 154.701 205.388 154.562 205.233 154.923L204.526 155.167C205.355 158.274 205.229 158.225 202.848 160.346C202.354 162.155 201.08 165.445 200.276 167.228C199.645 167.623 199.115 167.532 198.352 167.527L193.311 167.429L191.913 167.443C186.747 167.699 182.153 167.028 177.09 166.402C175.972 166.263 173.829 167.09 172.598 167.218C171.207 164.936 170.272 163.35 169.752 160.73C170.438 160.129 171.594 160.907 172.444 161.199L172.643 160.966C172.462 160.03 172.517 160.304 171.823 159.522C173.059 159.259 173.744 159.153 175.005 159.396C176.543 159.149 177.179 159.021 178.683 158.543C180.106 158.874 180.477 158.858 181.563 159.812L181.957 159.548C183.243 158.232 184.01 157.65 184.861 155.99C184.946 154.714 184.37 151.759 184.172 150.284L184.749 148.973C186.249 148.403 186.908 148.025 188.039 146.899C189.239 146.125 189.65 145.696 190.351 144.471Z" fill="#39B132"/>
<path d="M190.349 144.471C190.931 142.695 189.858 142.064 191.783 140.523C192.188 141.068 192.594 141.556 192.843 142.19L192.886 142.362C193.604 142.997 193.42 143.29 193.241 144.281L193.512 144.448C194.355 144.03 195.66 143.597 196.501 144.343C196.038 144.833 194.559 146.307 194.329 146.806C195.318 148.499 192.18 153.203 191.083 154.674C190.482 155.451 190.98 155.679 190.302 156.555L190.602 158.475C190.873 159.352 191.243 160.241 191.063 161.126L190.713 161.653C190.211 161.893 188.178 163.349 187.622 163.776L187.251 164.076C186.912 164.029 186.585 164.003 186.266 163.882L186.149 163.516C184.558 162.526 183.621 160.877 181.955 159.548C183.242 158.232 184.008 157.65 184.86 155.99C184.944 154.714 184.369 151.759 184.171 150.284L184.748 148.973C186.247 148.403 186.906 148.025 188.038 146.899C189.238 146.125 189.648 145.696 190.349 144.471Z" fill="#F8F8F8"/>
<path d="M194.33 146.807C195.319 148.499 192.181 153.203 191.083 154.674C190.483 155.451 190.98 155.68 190.303 156.556L189.927 155.268L189.354 153.946C190.121 152.456 191.392 150.185 191.801 148.646L191.975 148.739C192.625 148.532 193.766 147.334 194.33 146.807Z" fill="#3DD558"/>
<path d="M187.999 158.745C186.852 156.963 188.173 155.248 189.354 153.945L189.927 155.267L190.303 156.555L190.603 158.475C190.874 159.351 191.244 160.24 191.064 161.125L190.714 161.652L190.08 161.548C188.817 160.67 189.888 159.421 187.999 158.745Z" fill="#F7D336"/>
<path d="M189.927 155.268L190.302 156.555L190.602 158.475C190.331 158.817 190.151 158.936 189.816 159.2L189.318 158.987C188.357 157.622 188.866 156.327 189.927 155.268Z" fill="#FDDD53"/>
<path d="M192.888 142.363C193.606 142.999 193.421 143.292 193.242 144.283L193.513 144.449C194.357 144.032 195.661 143.599 196.502 144.345C196.039 144.834 194.56 146.308 194.33 146.808C193.766 147.335 192.625 148.533 191.975 148.74L191.801 148.648C191.776 145.67 193.019 144.276 192.888 142.363Z" fill="#027952"/>
<path d="M187.998 158.746C189.886 159.422 188.816 160.671 190.078 161.549L190.712 161.653C190.21 161.893 188.178 163.349 187.621 163.776C187.827 161.957 187.985 160.57 187.998 158.746Z" fill="#3DD558"/>
<path d="M178.683 158.545C180.106 158.875 180.477 158.859 181.563 159.813L181.957 159.55C183.623 160.879 184.559 162.527 186.15 163.517L186.267 163.884C185.202 164.457 183.739 164.116 182.375 164.329C180.571 164.61 180.683 164.95 179.195 165.456C181.104 165.98 180.59 164.817 182.241 165.351C181.693 165.51 181.214 165.559 180.902 165.995L181.135 166.284C182.624 167.019 189.093 167.001 191.058 166.975C192.003 166.403 191.791 166.399 192.386 165.275L192.671 165.25C192.504 165.881 192.303 167.057 191.913 167.445C186.747 167.701 182.153 167.03 177.09 166.403C175.972 166.265 173.829 167.092 172.598 167.219C171.207 164.937 170.272 163.352 169.752 160.731C170.438 160.131 171.594 160.908 172.444 161.2L172.643 160.968C172.462 160.032 172.517 160.305 171.823 159.524C173.059 159.26 173.744 159.154 175.005 159.397C176.543 159.15 177.179 159.023 178.683 158.545Z" fill="#14992B"/>
<path d="M178.684 158.545C180.106 158.875 180.478 158.859 181.564 159.813L181.957 159.55C183.624 160.879 184.56 162.527 186.151 163.517L186.268 163.884C185.202 164.457 183.739 164.116 182.376 164.329C180.572 164.61 180.684 164.95 179.196 165.456L178.19 164.043C178.002 162.143 179.56 162.152 180.159 160.615L179.874 160.162C178.134 159.318 176.897 159.398 175.006 159.397C176.544 159.15 177.18 159.023 178.684 158.545Z" fill="#38AF36"/>
<path d="M181.562 159.811L181.955 159.547C183.622 160.876 184.558 162.525 186.149 163.514C184.298 163.915 183.488 163.593 181.722 163.038C181.286 162.199 180.984 161.71 180.795 160.778C181.062 160.06 180.886 160.321 181.562 159.811Z" fill="#3DD558"/>
<path d="M202.372 149.522L203.342 149.096C202.842 150.498 202.649 149.446 202.692 150.564C202.915 150.204 203.068 150.136 203.432 149.969C203.871 149.978 203.744 149.986 204.171 150.31C204.76 151.563 204.687 152.856 204.472 154.194C204.831 154.414 204.791 154.328 205.321 154.276C205.338 154.701 205.387 154.562 205.233 154.923L204.525 155.167C205.355 158.274 205.229 158.225 202.847 160.346C202.354 162.154 201.079 165.445 200.276 167.228C199.645 167.622 199.115 167.532 198.352 167.527L193.311 167.429C192.924 166.79 194.076 164.585 194.418 163.849C196.491 162.02 199.464 157.977 200.643 155.492C202.042 153.186 202.367 152.24 202.372 149.522Z" fill="#027952"/>
<path d="M202.847 160.347C202.674 158.732 202.233 156.802 203.074 155.45C203.931 155.019 203.55 155.099 204.525 155.167C205.354 158.275 205.228 158.226 202.847 160.347Z" fill="#0C5963"/>
<path d="M196.502 144.345C197.49 143.655 198.583 142.847 199.628 142.273C200.608 143.785 200.888 144.222 201.468 145.99C201.792 147.15 202.152 148.344 202.372 149.524C202.367 152.242 202.042 153.188 200.643 155.493C198.408 156.914 197.199 161.111 195.315 161.826L195.116 161.605C195.598 159.704 196.759 156.919 196.935 155.287L196.777 155.177C196.272 155.912 196.257 156.599 196.138 157.485L195.885 155.978C196.727 153.989 196.842 150.199 197.313 148.111C197.713 146.343 198.045 146.287 198.39 144.031L198.152 143.811C197.045 144.03 195.803 145.705 195.153 146.582C195.09 148.799 193.797 154.129 191.781 155.097L191.084 154.675C192.182 153.204 195.319 148.5 194.33 146.808C194.56 146.308 196.039 144.834 196.502 144.345Z" fill="#38AF36"/>
<path d="M192.67 165.25C193.963 163.187 194.276 160.282 195.265 158.971C195.303 160.498 194.401 162.021 194.417 163.851C194.075 164.587 192.923 166.792 193.31 167.431L191.912 167.445C192.302 167.057 192.503 165.881 192.67 165.25Z" fill="#38AF36"/>
<path d="M195.884 155.977L196.137 157.483C195.843 158.056 195.998 157.968 195.522 158.184C195.381 157.262 195.584 156.859 195.884 155.977Z" fill="#66DA53"/>
<path d="M172.597 167.216C173.828 167.089 175.971 166.262 177.089 166.4C182.152 167.027 186.746 167.698 191.912 167.442L193.31 167.428L198.351 167.525C199.114 167.53 199.644 167.621 200.275 167.226C203.305 168.434 209.49 165.76 211.881 169.046L211.908 169.638C212.729 171.127 212.622 171.563 212.346 173.277L212.424 173.599C212.791 175.866 212.321 177.129 209.844 177.191C196.573 177.526 183.248 177.731 169.978 177.481C168.31 177.449 167.438 175.788 167.445 174.264C167.445 174.122 167.448 173.981 167.454 173.84L167.506 170.058C169.617 169.037 170.37 169.126 172.669 169.008C171.647 169.016 170.365 169.179 169.639 168.576L169.699 168.013C170.667 167.95 171.859 167.849 172.597 167.216Z" fill="#0A2448"/>
<path d="M172.597 167.216C173.828 167.089 175.97 166.262 177.089 166.4C182.152 167.027 186.746 167.698 191.912 167.442L193.31 167.428L198.351 167.525L197.767 168.026L197.903 168.205C198.851 168.229 200.075 168.102 200.787 168.527L200.664 168.709C199.32 168.676 197.918 168.596 196.588 168.758C196.771 169.031 196.655 168.922 196.976 169.04C191.692 169.433 185.974 169.011 180.653 169.166C178.148 169.24 175.156 169.219 172.668 169.008C171.646 169.016 170.365 169.179 169.639 168.576L169.698 168.013C170.667 167.95 171.858 167.849 172.597 167.216Z" fill="#66DA53"/>
<path d="M211.91 169.639C212.73 171.128 212.623 171.564 212.347 173.278L212.425 173.6L212.189 173.666C210.669 174.312 196.772 174.17 196.08 172.881C196.267 172.675 196.726 172.223 197.027 172.233C201.575 172.378 206.258 171.942 210.761 171.262C210.803 170.664 210.829 170.586 211.081 170.041L211.806 169.839L211.91 169.639Z" fill="#1F3A66"/>
<path d="M211.908 169.639C212.728 171.128 212.621 171.564 212.345 173.278L212.423 173.6L212.187 173.666L211.048 173.458C210.805 171.558 210.542 171.823 211.804 169.839L211.908 169.639Z" fill="#32517B"/>
<path d="M200.275 167.229C203.305 168.436 209.49 165.762 211.881 169.048C207.187 168.848 201.726 169.01 196.976 169.042C196.655 168.924 196.771 169.033 196.588 168.76C197.918 168.598 199.32 168.678 200.665 168.711L200.787 168.529C200.075 168.104 198.851 168.231 197.903 168.207L197.767 168.028L198.351 167.527C199.114 167.532 199.644 167.623 200.275 167.229Z" fill="#87BF30"/>
<path d="M179.17 172.172C179.601 172.121 180.032 172.076 180.464 172.037C181.401 171.958 181.709 171.941 182.347 172.484L182.323 173.183C181.45 173.334 180.809 173.506 179.938 173.334C179.271 172.838 179.492 173.093 179.17 172.172Z" fill="#039E68"/>
<path d="M160.692 158.585C161.702 158.05 169.609 158.413 171.349 158.471L171.224 159.25L171.823 159.522C172.516 160.304 172.461 160.03 172.642 160.966L172.443 161.199C171.593 160.907 170.437 160.129 169.751 160.729C170.272 163.35 171.206 164.935 172.597 167.217C171.859 167.85 170.668 167.951 169.699 168.014L169.639 168.577C170.365 169.18 171.647 169.017 172.669 169.009C170.37 169.127 169.617 169.038 167.506 170.059L167.454 173.841C163.536 174.202 154.982 171.784 150.461 172.31C149.632 172.407 145.764 172.621 145.35 172.377L145.029 171.785C144.221 171.101 140.122 171.357 138.826 171.386C138.097 170.154 137.127 168.918 137.772 167.48C138.437 167.483 138.643 167.272 139.207 166.911C140.406 164.872 142.835 161.012 143.725 159.01C143.804 158.812 144.005 158.731 144.217 158.583C147.684 158.716 157.464 159.015 160.692 158.585Z" fill="#F8F8F8"/>
<path d="M137.772 167.482C138.437 167.484 138.643 167.274 139.207 166.912C141.7 167.471 144.035 167.203 146.434 167.384C152.46 167.837 164.098 166.953 169.699 168.015L169.639 168.578C170.365 169.182 171.647 169.019 172.669 169.011C170.37 169.129 169.617 169.039 167.506 170.061L167.454 173.842C163.536 174.204 154.982 171.786 150.461 172.312C149.632 172.408 145.764 172.623 145.35 172.379L145.029 171.787C144.221 171.103 140.122 171.358 138.826 171.388C138.097 170.156 137.127 168.919 137.772 167.482Z" fill="#38AF36"/>
<path d="M160.693 158.585C161.702 158.05 169.609 158.413 171.35 158.471L171.224 159.25L171.823 159.522C172.516 160.304 172.462 160.03 172.642 160.966L172.443 161.199C171.593 160.907 170.437 160.129 169.751 160.729C168.36 161.09 163.29 160.72 161.634 160.591C160.902 160.534 160.838 160.294 160.506 159.822L160.693 158.585Z" fill="#1F3A66"/>
<path d="M160.693 158.585C161.702 158.05 169.609 158.413 171.35 158.471L171.224 159.25C169.141 159.195 161.811 158.696 160.506 159.822L160.693 158.585Z" fill="#989FAF"/>
<path d="M42.2651 167.486C44.052 167.417 42.9717 166.716 44.0635 167.297L44.6013 168.299L44.8755 168.295L45.071 167.22L45.3359 167.152C45.6377 167.613 45.9341 168.078 46.2253 168.546C46.3799 169.008 46.5388 169.852 46.9229 169.876C50.219 170.083 60.7786 170.159 63.4517 169.592C64.2012 169.586 65.2144 169.657 65.8589 169.358L65.3513 169.091L65.0432 168.018C70.1497 167.412 74.0915 167.595 79.1357 167.358C78.8535 167.843 77.7913 169.466 77.7646 169.886C78.1428 170.41 79.0789 171.343 79.1345 171.65L79.7939 172.909L80.2773 173.255C80.8833 174.379 81.3479 175.393 81.0488 176.685C80.0237 177.66 77.5071 177.568 76.0869 177.581C64.7031 177.68 53.241 177.161 41.8687 177.262L41.2627 176.86C40.7292 176.043 40.7776 175.499 40.7246 174.522L41.8054 173.31L42.1375 172.728L42.177 172.475C43.1321 172.275 43.0337 172.448 43.5986 171.842C43.0261 171.062 41.7168 168.666 41.7944 167.712L42.2651 167.486Z" fill="#01040D"/>
<path d="M42.2631 167.486C44.0499 167.417 42.9696 166.716 44.0614 167.297L44.5993 168.299L44.8734 168.295L45.069 167.22L45.3339 167.152C45.6356 167.613 45.932 168.078 46.2233 168.546C46.3778 169.008 46.5368 169.852 46.9208 169.876C50.2169 170.083 60.7765 170.159 63.4496 169.592C64.1991 169.586 65.2123 169.657 65.8568 169.358L65.3493 169.091L65.0411 168.018C70.1476 167.412 74.0895 167.595 79.1337 167.358C78.8514 167.843 77.7892 169.466 77.7626 169.886C78.1408 170.41 79.0768 171.343 79.1325 171.65L79.7919 172.909L78.8471 173.26C77.6134 172.744 77.2843 172.666 75.9581 172.474C72.2399 172.33 68.3507 172.504 64.6608 172.28L63.7062 172.275C62.799 173.184 63.4274 174.563 63.0573 175.883C62.9899 174.869 63.0519 174.53 63.2169 173.517L63.0023 172.718C62.2677 172.013 46.3456 172.308 44.2706 172.309L43.5966 171.842C43.0241 171.062 41.7147 168.666 41.7924 167.712L42.2631 167.486Z" fill="#03173E"/>
<path d="M65.043 168.019C70.1494 167.413 74.0913 167.597 79.1355 167.359C78.8533 167.845 77.791 169.468 77.7644 169.887C77.439 170.457 77.3162 170.87 76.6973 171.025C76.2163 170.523 76.1174 169.662 75.9473 168.941C72.5505 168.949 69.2385 168.933 65.8586 169.359L65.3511 169.092L65.043 168.019Z" fill="#3DD558"/>
<path d="M75.9456 168.939C76.1158 169.661 76.2147 170.522 76.6956 171.024C77.3145 170.869 77.4373 170.455 77.7628 169.886C78.141 170.41 79.077 171.343 79.1327 171.65L79.7921 172.909L78.8473 173.26C77.6136 172.744 77.2845 172.666 75.9583 172.474L76.6424 172.064C76.4779 170.833 75.6634 171.747 75.9456 168.939Z" fill="#091932"/>
<path d="M43.5979 171.842L44.272 172.309C46.3469 172.308 62.269 172.013 63.0037 172.718L63.2183 173.517C63.0532 174.53 62.9912 174.868 63.0586 175.883C62.678 176.024 43.0315 176.105 42.3149 175.896C41.8813 175.293 41.8723 174.094 41.8047 173.31L42.1367 172.728L42.1763 172.475C43.1313 172.275 43.033 172.448 43.5979 171.842Z" fill="#1F3A66"/>
<path d="M43.5979 171.842L44.272 172.309C46.3469 172.308 62.269 172.013 63.0037 172.718L63.2183 173.517C61.4353 174.052 46.2834 173.801 43.7043 173.623L43.8638 173.557H42.5876L42.678 172.983L42.1367 172.728L42.1763 172.475C43.1313 172.275 43.033 172.448 43.5979 171.842Z" fill="#32517B"/>
<path d="M64.6602 172.279C68.3501 172.504 72.2393 172.33 75.9575 172.474C77.2837 172.666 77.6128 172.743 78.8464 173.259C79.5071 174.128 79.9956 174.869 79.2383 175.76C75.822 175.802 68.1841 176.146 65.0911 175.877C64.6174 174.989 64.6921 173.347 64.6602 172.279Z" fill="#1F3A66"/>
<path d="M80.8723 167.727C80.802 167.685 112.28 167.316 114.79 167.26L114.838 168.605C114.835 169.512 114.935 170.315 114.44 171.058L113.749 171.586C112.474 171.224 109.012 171.062 107.647 171.543C107.405 171.629 107.275 172.145 107.141 172.465L106.928 172.848C99.2161 173.1 91.3174 172.43 83.5769 173.107C82.4954 173.202 81.363 173.251 80.2764 173.255L79.793 172.909L79.1336 171.65C79.0779 171.343 78.1418 170.41 77.7637 169.886C77.7903 169.466 78.8525 167.843 79.1348 167.358C79.7622 167.456 80.2739 167.505 80.8723 167.727Z" fill="#38AF36"/>
<path d="M79.1348 167.359C79.7622 167.457 80.2739 167.507 80.8723 167.728C80.0977 169.213 79.6326 170.046 79.1336 171.652C79.0779 171.345 78.1418 170.412 77.7637 169.887C77.7903 169.468 78.8525 167.845 79.1348 167.359Z" fill="#0F254B"/>
<path d="M137.431 165.813C137.964 158.719 136.391 159.217 143.725 159.01C142.834 161.012 140.405 164.872 139.207 166.911C138.642 167.272 138.437 167.483 137.771 167.48C137.126 168.918 138.096 170.155 138.826 171.386C140.122 171.357 144.221 171.101 145.028 171.785L145.349 172.377C143.023 172.859 138.827 172.751 136.299 172.749C131.631 172.745 126.962 172.717 122.294 172.666C121.486 172.658 116.383 172.694 115.812 172.6C114.633 172.258 114.485 172.383 113.748 171.585L114.439 171.058C114.934 170.314 114.834 169.511 114.837 168.604C114.958 168.071 115.041 167.712 115.215 167.195C118.86 166.978 122.234 166.773 125.903 166.951C129.12 167.106 134.021 168.052 137.111 167.674L137.137 165.946L137.431 165.813Z" fill="#1F3A66"/>
<path d="M41.8691 177.263C40.3547 177.361 37.9001 177.292 36.7397 176.226C36.5112 175.461 36.4897 175.789 36.8859 174.991C37.8415 174.221 39.6674 173.805 40.7251 174.523C40.778 175.5 40.7297 176.044 41.2631 176.861L41.8691 177.263Z" fill="#14992B"/>
<path d="M107.141 172.466C107.274 172.145 107.405 171.629 107.647 171.544C109.011 171.062 112.473 171.224 113.748 171.586C114.485 172.384 114.633 172.259 115.812 172.601C113.35 172.707 109.441 172.963 107.141 172.466Z" fill="#19395E"/>
<path d="M35.7853 147.973C35.5578 143.361 32.3029 136.713 31.7971 132.001C31.2395 126.808 40.7045 127.677 43.9099 127.647C44.8903 127.739 45.4497 127.551 46.0144 128.565C46.3669 129.198 46.257 129.686 45.7805 130.252L44.5339 130.6C45.5978 130.578 48.8198 130.333 49.5612 130.587L49.7333 130.833C49.9274 131.647 50.0964 132.519 50.4372 133.277C50.8693 134.003 51.1894 135.042 51.3439 135.868C51.6442 137.072 52.5053 139.754 52.0793 140.825C52.528 140.946 52.7617 141.003 53.1848 141.191L53.4077 141.836C53.8378 142.713 53.9558 142.913 54.1176 143.873L54.5444 144.825L54.6144 144.85C56.0251 145.9 56.7319 144.112 59.0029 146.902C59.3662 146.366 59.9279 145.745 60.3557 145.24C60.7692 144.759 61.4267 144.412 61.979 144.069C62.8964 143.777 62.5395 143.771 63.3862 143.977C64.1242 144.64 64.2644 145.516 64.362 146.479L64.3615 146.683L64.8586 147.295C65.7597 147.848 65.6291 147.592 66.0178 148.445C65.9059 149.585 65.4228 150.327 65.6711 151.232C66.2998 151.737 66.9084 151.957 67.2214 152.72C68.1298 154.933 67.8105 157.052 66.8261 159.131C65.2617 162.102 64.7392 161.38 62.9116 162.781C63.1706 163.258 63.9436 164.614 64.0881 165.045C64.3017 165.666 64.9631 167.465 65.0424 168.018L65.3505 169.091L65.8581 169.358C65.2136 169.657 64.2004 169.587 63.4509 169.592C60.7778 170.159 50.2182 170.083 46.9221 169.876C46.538 169.852 46.3791 169.008 46.2246 168.546C45.9333 168.078 45.6369 167.614 45.3352 167.152L45.0703 167.22L44.8747 168.296L44.6005 168.299L44.0627 167.298C42.9709 166.716 44.0512 167.417 42.2644 167.486C43.8513 165.076 41.6606 162.839 41.2709 160.195C40.6098 159.982 39.9792 159.841 39.3059 159.681C37.3127 158.492 36.3962 156.143 35.4584 154.122C34.5815 152.474 33.5512 150.998 33.8762 149.152C34.4287 148.768 35.2001 148.311 35.7853 147.973Z" fill="#039E68"/>
<path d="M35.7853 147.973C35.5578 143.361 32.3029 136.713 31.7971 132.001C31.2395 126.808 40.7045 127.677 43.9099 127.647C44.8903 127.739 45.4497 127.551 46.0144 128.565C46.3669 129.198 46.257 129.686 45.7805 130.252L44.5339 130.6C45.5978 130.578 48.8198 130.333 49.5612 130.587L49.7333 130.833C49.9274 131.647 50.0964 132.519 50.4372 133.277C50.8693 134.003 51.1894 135.042 51.3439 135.868C51.6442 137.072 52.5053 139.754 52.0793 140.825C47.288 140.477 41.3977 140.932 36.3857 140.814L36.4448 141.798L38.1101 147.049L38.1113 147.219L35.7853 147.973Z" fill="#31CB93"/>
<path d="M35.7853 147.973C35.5578 143.361 32.3029 136.713 31.7971 132.001C31.2395 126.808 40.7045 127.677 43.9099 127.647C44.8903 127.739 45.4497 127.551 46.0144 128.565C46.3669 129.198 46.257 129.686 45.7805 130.252L44.5339 130.6C41.2614 130.711 37.7136 130.729 34.4934 131.204L35.2348 134.999C35.6071 136.913 35.9665 138.918 36.3857 140.814L36.4448 141.798L38.1101 147.049L38.1113 147.219L35.7853 147.973Z" fill="#091932"/>
<path d="M44.5327 130.6C45.5967 130.578 48.8186 130.333 49.5601 130.587L49.7322 130.833C49.9263 131.647 50.0952 132.519 50.436 133.277L49.9246 133.517C46.7144 133.462 38.2747 134.453 35.8467 133.651C35.6348 134.18 35.5071 134.501 35.2336 134.999L34.4922 131.203C37.7124 130.729 41.2603 130.711 44.5327 130.6Z" fill="#37D4D2"/>
<path d="M35.8477 133.65C35.9038 133.161 35.969 133.098 36.2136 132.658C39.417 131.1 46.5281 133.892 49.7332 130.832C49.9272 131.646 50.0962 132.518 50.437 133.276L49.9255 133.516C46.7153 133.46 38.2756 134.451 35.8477 133.65Z" fill="#A2F5F4"/>
<path d="M50.437 133.277C50.8691 134.003 51.1892 135.042 51.3438 135.868C48.283 136.093 49.3386 134.637 47.4434 137.123C46.9871 137.721 42.8203 137.808 41.8594 137.454L41.8892 137.157C42.593 136.89 43.1565 136.907 43.8857 136.823C45.9075 136.592 48.2219 135.621 49.8298 134.365L49.9255 133.517L50.437 133.277Z" fill="#8DE6B1"/>
<path d="M61.9773 144.07C62.8948 143.778 62.5378 143.773 63.3845 143.978C64.1225 144.641 64.2627 145.517 64.3603 146.481L64.3598 146.684L64.8569 147.297C65.758 147.85 65.6274 147.594 66.0161 148.446C65.9043 149.586 65.4211 150.329 65.6694 151.234C66.2981 151.738 66.9067 151.958 67.2197 152.721C68.1282 154.934 67.8088 157.053 66.8244 159.132C65.26 162.104 64.7375 161.381 62.9099 162.782L62.6833 162.755C54.7114 162.103 55.084 154.764 53.0464 148.578C52.6972 147.518 53.4197 146.786 54.0283 145.916L54.5427 144.826L54.6128 144.851C56.0234 145.901 56.7302 144.113 59.0012 146.904C59.3645 146.367 59.9263 145.746 60.354 145.241C60.7676 144.76 61.425 144.414 61.9773 144.07Z" fill="#FAB907"/>
<path d="M62.6833 162.753C54.7114 162.101 55.084 154.762 53.0464 148.576C52.6972 147.516 53.4197 146.784 54.0283 145.914C54.376 146.501 54.6863 146.908 54.7297 147.596C54.5364 149.478 55.9282 152.333 56.4514 154.112C58.0471 159.538 61.2265 163.631 66.8244 159.13C65.26 162.102 64.7375 161.379 62.9099 162.78L62.6833 162.753Z" fill="#BC8602"/>
<path d="M54.5437 144.824L54.6138 144.849C56.0244 145.899 56.7312 144.111 59.0022 146.902L57.5518 147.647C56.4375 147.712 55.8486 147.684 54.7307 147.596C54.6873 146.908 54.377 146.501 54.0293 145.914L54.5437 144.824Z" fill="#F7D336"/>
<path d="M59.0019 146.901C59.3651 146.364 59.9269 145.744 60.3546 145.238C60.5243 147.526 59.1073 148.232 57.9809 150.106C57.8637 150.301 57.5543 150.469 57.3576 150.577L57.0631 150.334C56.9403 149.02 57.3603 148.803 57.5514 147.646L59.0019 146.901Z" fill="#CF8001"/>
<path d="M61.9785 144.07C62.896 143.778 62.5391 143.773 63.3857 143.978C64.1238 144.641 64.2639 145.517 64.3616 146.481C63.5864 146.657 63.477 146.688 62.7583 146.367C62.166 145.616 62.2498 145.042 61.9785 144.07Z" fill="#F7D336"/>
<path d="M61.2871 151.721C61.863 150.582 63.4265 147.116 64.3616 146.684L64.8586 147.296C63.9497 148.739 62.4192 150.46 61.2871 151.721Z" fill="#CF8001"/>
<path d="M64.9443 150.547L65.2595 150.869C64.3679 152.612 62.2168 155.225 60.9641 156.966L60.6174 156.879L60.5215 156.404C60.8899 155.515 64.1548 151.569 64.9443 150.547Z" fill="#CF8001"/>
<path d="M66.2433 153.48C67.0531 155.183 63.8017 157.718 62.5004 158.685L62.4357 158.616C62.4101 158.199 65.6222 154.362 66.2433 153.48Z" fill="#B26100"/>
<path d="M38.1109 147.219C38.6673 147.92 38.7989 148.041 38.9305 148.941L39.7916 150.125L40.5084 150.073C42.5152 150.679 42.8426 151.545 43.2501 153.543L43.0645 153.976C43.5003 154.362 43.6788 154.483 44.1763 154.787L44.4051 155.932C43.3428 156.932 42.2679 157.747 40.9871 158.453C40.0799 158.869 39.9744 158.941 39.3055 159.681C37.3123 158.492 36.3958 156.143 35.4581 154.121C34.5811 152.473 33.5508 150.997 33.8758 149.152C34.4283 148.767 35.1998 148.31 35.785 147.972L38.1109 147.219Z" fill="#DB9A01"/>
<path d="M36.9941 152.045C37.5129 150.848 38.6353 150.53 39.7915 150.125L40.5083 150.074C42.5151 150.68 42.8425 151.546 43.25 153.544L43.0645 153.977C43.5002 154.363 43.6787 154.484 44.1763 154.788C43.4124 155.492 43.7617 155.351 42.8564 155.465C42.3879 155.228 42.1035 155.105 41.6907 154.784L41.2656 154.566C40.8748 154.812 40.5471 155.018 40.175 155.292C38.9778 154.636 37.9998 153.159 36.9941 152.045Z" fill="#FDDD53"/>
<path d="M44.178 154.787L44.4067 155.932C43.3445 156.931 42.2695 157.747 40.9888 158.453C40.5474 158.4 40.0615 158.248 39.6277 158.13L39.4219 157.675L39.8804 156.613L39.5098 156.467L40.1768 155.29C40.5488 155.017 40.8765 154.81 41.2673 154.564L41.6924 154.782C42.1052 155.104 42.3896 155.227 42.8582 155.464C43.7634 155.35 43.4141 155.491 44.178 154.787Z" fill="#FAB907"/>
<path d="M40.1768 155.29C40.5488 155.017 40.8765 154.81 41.2673 154.564L41.6924 154.782C41.3975 155.41 40.4629 156.242 39.8804 156.613L39.5098 156.467L40.1768 155.29Z" fill="#B26100"/>
<path d="M38.1121 147.219C38.6685 147.92 38.8001 148.041 38.9316 148.941C37.4319 149.732 37.3989 151.279 35.7737 151C34.8591 150.326 34.6194 150.028 33.877 149.152C34.4294 148.767 35.2009 148.31 35.7861 147.972L38.1121 147.219Z" fill="#FAB907"/>
<path d="M36.9945 152.045C38.0001 153.159 38.9782 154.636 40.1754 155.291L39.5084 156.468C38.5827 156.558 38.1855 156.104 37.456 155.527C37.1439 153.855 36.6212 153.676 36.9945 152.045Z" fill="#F2AE07"/>
<path d="M54.1174 143.873L54.5442 144.824L54.0298 145.914C53.4211 146.784 52.6987 147.516 53.0478 148.576C55.0854 154.762 54.7129 162.101 62.6848 162.753C61.9487 162.967 61.4666 163.403 60.8564 163.867C59.4448 164.189 56.186 161.992 55.5676 160.668C55.5498 160.629 55.6772 159.335 55.5503 159.105C55.1228 158.332 55.0293 158.024 54.2236 157.663L53.9834 158.051C54.0745 159.134 54.6863 159.111 54.8303 159.722C55.1272 160.982 54.9409 162.202 55.7332 163.406C56.2637 164.212 57.1289 164.245 58.1082 164.428L57.8169 164.652C54.272 165.083 51.3374 151.5 50.8477 148.817C51.8379 147.189 53.8462 145.218 54.1174 143.873Z" fill="#016A2C"/>
<path d="M41.2715 160.194C42.1389 159.465 43.0618 159.245 44.1333 158.895C43.3452 162.061 46.0881 165.945 46.2251 168.546C45.9338 168.078 45.6375 167.613 45.3357 167.151L45.0708 167.22L44.8752 168.295L44.6011 168.298L44.0632 167.297C42.9714 166.715 44.0518 167.417 42.2649 167.485C43.8518 165.075 41.6611 162.839 41.2715 160.194Z" fill="#091932"/>
<path d="M36.3848 140.814C41.3967 140.932 47.2871 140.477 52.0784 140.825C52.5271 140.946 52.7607 141.003 53.1838 141.191L53.4067 141.836C51.1123 141.898 37.3044 141.299 36.4438 141.797L36.3848 140.814Z" fill="#003649"/>
<path d="M46.1035 155.074C46.2312 156.93 45.5229 157.724 44.1316 158.895C43.0601 159.245 42.1372 159.465 41.2698 160.195C40.6086 159.982 39.978 159.841 39.3047 159.681C39.9736 158.941 40.0791 158.869 40.9863 158.453C42.2671 157.747 43.342 156.932 44.4043 155.932C45.5144 155.818 45.5588 155.966 46.1035 155.074Z" fill="#BC8602"/>
<path d="M38.1113 147.048C40.3569 146.534 41.0791 146.618 42.4834 148.554C41.8079 148.898 40.8074 149.298 40.4324 149.899L40.51 150.072L39.7932 150.123L38.9321 148.94C38.8005 148.04 38.6689 147.919 38.1125 147.218L38.1113 147.048Z" fill="#FDDD53"/>
<path d="M42.4807 148.557C43.5364 150.06 43.9912 150.761 44.8035 152.404C44.3135 152.788 43.782 153.237 43.249 153.545C42.8416 151.547 42.5142 150.68 40.5073 150.075L40.4297 149.901C40.8047 149.3 41.8052 148.901 42.4807 148.557Z" fill="#FAB907"/>
<path d="M44.8044 152.402L46.1042 155.074C45.5596 155.966 45.5151 155.818 44.405 155.932L44.1763 154.787C43.6787 154.483 43.5002 154.362 43.0645 153.976L43.25 153.543C43.783 153.235 44.3145 152.786 44.8044 152.402Z" fill="#F2AE07"/>
<path d="M64.0864 165.045C64.3 165.666 64.9614 167.465 65.0408 168.018L65.3489 169.091L65.8564 169.358C65.2119 169.657 64.1987 169.587 63.4492 169.592C64.0444 167.624 63.6387 165.983 64.0864 165.045Z" fill="#003649"/>
<path d="M93.442 60.1361C97.0438 58.3976 101.698 58.5644 105.358 59.8415C114.104 62.8925 117.44 73.4684 113.361 81.4372C113.112 81.9237 112.584 82.6032 112.759 83.0924C110.975 83.7538 109.803 85.4657 108.555 86.9296C106.535 87.9354 102.69 90.9364 100.799 91.1942L100.546 91.1027L100.409 91.0788C99.451 90.58 98.5357 90.8852 97.3199 91.0116C96.453 90.3397 96.6075 90.6488 96.297 89.6962C95.6283 89.2128 94.3668 89.182 93.4959 89.0873L93.1793 89.2274C92.3697 88.7553 89.5814 87.0016 89.1239 86.9345C88.8062 85.5578 87.1178 85.4809 86.8404 83.9237C86.4947 83.4115 85.982 83.0036 85.5169 82.5851C85.286 81.5753 85.3883 81.8949 84.6634 81.078C83.1973 81.0258 76.1217 79.5478 74.6192 79.0385C74.0902 78.9315 73.846 78.944 73.4823 78.5819C73.0726 76.776 74.3902 72.1474 74.8175 70.0734C75.0535 69.1881 75.231 68.1591 75.4095 67.2487C78.4679 67.9276 81.7567 67.8847 84.5611 69.2702C86.2093 65.2968 89.1573 61.4501 93.442 60.1361Z" fill="#1B3F70"/>
<path d="M96.1817 62.3825C100.26 61.303 103.919 61.9985 107.167 64.7766C108.017 65.4011 108.798 65.8928 109.383 66.7788C109.962 67.5864 110.871 69.5483 110.975 69.6548C111.386 71.5136 110.847 71.7541 111.67 74.095L111.514 74.8088C110.633 76.1221 110.188 75.3525 109.323 77.2309C108.726 78.4568 107.746 79.8 106.67 80.647C106.315 81.0705 105.288 82.1616 105.263 82.613C102.659 83.7615 102.359 82.7746 101.118 83.4902L100.794 83.4333C100.386 83.2339 99.4918 83.0859 99.0638 83.1662C96.7567 83.5991 91.6207 81.2637 89.8512 81.8545C89.4408 81.499 88.7787 80.2158 88.4706 79.6726C87.7623 75.6716 86.5938 75.4912 87.9613 70.8056C89.5572 66.572 92.1485 64.2204 96.1817 62.3825Z" fill="#F8F8F8"/>
<path d="M87.9613 70.8066C88.2027 71.8828 88.909 72.9617 89.857 73.5654C90.3951 73.6653 90.7938 73.7324 91.3387 73.7812C93.4945 73.8037 93.0177 75.7346 94.1637 77.5186C95.8451 77.6445 99.4383 78.3235 101.016 77.9739C101.271 77.9175 101.349 77.2908 101.442 76.9319C101.59 77.8738 101.587 78.2368 102.228 78.9412C103.485 79.6279 105.426 79.0344 106.601 78.3472C106.833 78.7629 106.672 78.5852 107.167 78.8208C108.006 78.6951 108.693 77.8523 109.323 77.2319C108.726 78.4578 107.746 79.801 106.67 80.6479C106.315 81.0715 105.288 82.1626 105.263 82.614C102.659 83.7624 102.359 82.7756 101.118 83.4912L100.794 83.4343C100.386 83.2349 99.4918 83.0869 99.0638 83.1672C96.7567 83.6001 91.6207 81.2646 89.8512 81.8555C89.4408 81.5 88.7787 80.2168 88.4706 79.6736C87.7623 75.6726 86.5938 75.4922 87.9613 70.8066Z" fill="#BCD6EB"/>
<path d="M91.3386 73.7793C93.4943 73.8018 93.0175 75.7327 94.1635 77.5166C91.4606 83.0232 87.9453 77.4063 89.6208 74.3123C89.8974 73.801 90.7465 73.8547 91.3386 73.7793Z" fill="#01040D"/>
<path d="M102.372 73.7012L106.435 73.7473C106.649 75.4844 106.758 76.5837 106.6 78.3464C105.425 79.0337 103.484 79.6272 102.227 78.9404C101.585 78.2361 101.589 77.873 101.441 76.9312C101.737 75.8137 102.005 74.803 102.372 73.7012Z" fill="#01040D"/>
<path d="M107.167 64.7773C108.017 65.4019 108.798 65.8936 109.383 66.7795C109.962 67.5872 110.871 69.5491 110.975 69.6555L109.679 70.2041C109.438 70.2715 108.687 70.3022 108.403 70.3218C107.436 69.5657 106.328 67.5269 105.902 66.3037C105.796 66 106.28 65.4543 106.505 65.1389L107.167 64.7773Z" fill="#1F3A66"/>
<path d="M109.384 66.7793C109.964 67.5869 110.872 69.5488 110.977 69.6553L109.681 70.2039C109.966 68.7439 109.646 68.3594 108.846 67.1472L109.384 66.7793Z" fill="#546E87"/>
<path d="M107.166 64.7773C108.016 65.4019 108.797 65.8936 109.382 66.7795L108.843 67.1475C108.079 66.4602 107.299 65.7905 106.504 65.1389L107.166 64.7773Z" fill="#AFB3BA"/>
<path d="M97.675 64.8984C99.0581 65.2734 100.422 66.447 100.455 67.9197C100.503 70.0762 99.9448 70.7082 97.9602 70.7942C94.5278 70.9529 94.8291 70.3052 94.1406 67.2207C95.2988 66.1794 96.252 65.5298 97.675 64.8984Z" fill="#091932"/>
<path d="M75.4095 67.25C78.4679 67.929 81.7567 67.886 84.5611 69.2715L83.8258 70.949C83.4517 72.7537 83.492 74.2896 83.1966 75.7739C83.4803 78.0481 84.5064 79.6584 84.6634 81.0793C83.1973 81.0271 76.1217 79.5491 74.6192 79.0398C74.0902 78.9329 73.846 78.9453 73.4823 78.5832C73.0726 76.7773 74.3902 72.1487 74.8175 70.0747C75.0535 69.1895 75.231 68.1604 75.4095 67.25Z" fill="#04C248"/>
<path d="M75.4104 67.25C78.4688 67.929 81.7576 67.886 84.562 69.2715L83.8267 70.949C80.6372 70.7065 77.9111 69.9116 74.8184 70.0747C75.0544 69.1895 75.2319 68.1604 75.4104 67.25Z" fill="#66DA53"/>
<path d="M83.1965 75.7734C83.4802 78.0476 84.5063 79.658 84.6633 81.0789C83.1973 81.0266 76.1216 79.5486 74.6191 79.0393C78.5718 77.3557 82.4294 81.981 83.1965 75.7734Z" fill="#14992B"/>
<path d="M93.4426 60.1367C94.7517 60.1664 96.7458 59.416 97.6089 59.6855L97.5898 60.1528L96.2454 60.9216L94.9341 61.5971C95.8867 61.7455 96.9529 61.205 97.5312 61.4863C97.1265 61.893 97.0298 61.8759 96.446 62.0151L96.1819 62.3835C92.1487 64.2214 89.5574 66.5729 87.9614 70.8066C86.594 75.4921 87.7624 75.6725 88.4707 79.6735L88.1057 79.9877C88.761 81.4015 89.2681 81.944 90.2441 83.1367C89.4521 85.1577 91.0024 85.9062 90.3789 86.4926C89.0547 85.9516 87.4971 84.1952 86.8411 83.9243C86.4954 83.412 85.9827 83.0041 85.5176 82.5856C85.2866 81.5759 85.3889 81.8954 84.6641 81.0785C84.5071 79.6576 83.481 78.0473 83.1973 75.7731C83.4927 74.2888 83.4524 72.7529 83.8264 70.9482L84.5618 69.2707C86.21 65.2973 89.158 61.4506 93.4426 60.1367Z" fill="#0F254B"/>
<path d="M88.4695 79.6738C88.7776 80.217 89.4397 81.5002 89.8501 81.8557C91.6196 81.2649 96.7556 83.6003 99.0627 83.1675C99.4907 83.0872 100.385 83.2351 100.792 83.4346L101.116 83.4915C102.358 82.7759 102.658 83.7627 105.262 82.6143C106.417 83.0151 106.136 82.7307 106.696 83.6592L108.052 82.8091C107.904 85.2329 104.673 86.8474 102.715 87.729C99.8313 89.0276 96.6072 89.1367 93.4954 89.0881L93.1787 89.2283C92.3691 88.7561 89.5808 87.0024 89.1233 86.9353C88.8057 85.5586 87.1172 85.4817 86.8398 83.9246C87.4958 84.1956 89.0535 85.9519 90.3777 86.4929C91.0012 85.9065 89.4509 85.158 90.2429 83.137C89.2668 81.9443 88.7598 81.4019 88.1045 79.988L88.4695 79.6738Z" fill="#03173E"/>
<path d="M89.8516 81.8542C91.6211 81.2634 96.7571 83.5989 99.0642 83.166C99.4922 83.0857 100.387 83.2336 100.794 83.4331L101.118 83.49C101.744 84.5163 101.93 84.8139 102.29 85.948L102.302 86.458C100.151 87.1889 97.8123 87.1457 95.6897 86.3352C92.8733 85.1079 91.7251 84.4375 89.8516 81.8542Z" fill="#74B2E6"/>
<path d="M100.793 83.4342L101.117 83.4911C101.742 84.5175 101.929 84.8151 102.288 85.9491C100.199 85.9679 98.2864 85.9792 96.1934 85.8717C96.4114 85.1481 96.5439 84.5255 97.002 83.9242C97.9583 83.2643 99.5298 83.4462 100.793 83.4342Z" fill="#01040D"/>
<path d="M101.115 83.4905C102.356 82.7749 102.656 83.7617 105.261 82.6133C106.416 83.0142 106.135 82.7297 106.695 83.6582C105.481 84.7549 103.787 85.7773 102.3 86.4585L102.287 85.9485C101.927 84.8145 101.741 84.5168 101.115 83.4905Z" fill="#74B2E6"/>
<path d="M96.2429 60.9216C101.826 60.9233 105.302 60.4816 109.688 64.9323C111.92 67.1962 113.908 71.2394 111.667 74.0959C110.845 71.7551 111.384 71.5146 110.973 69.6557C110.869 69.5492 109.96 67.5873 109.381 66.7797C108.796 65.8937 108.015 65.402 107.165 64.7775C103.917 61.9994 100.258 61.3039 96.1794 62.3835L96.4436 62.0151C97.0273 61.8759 97.124 61.893 97.5288 61.4863C96.9504 61.205 95.8843 61.7455 94.9316 61.5971L96.2429 60.9216Z" fill="#03173E"/>
<path d="M109.324 77.2327C110.188 75.3542 110.633 76.1238 111.515 74.8105C111.36 77.7141 110.776 79.123 109.232 81.5496L108.054 82.8096L106.698 83.6597C106.137 82.7312 106.419 83.0156 105.264 82.6147C105.289 82.1633 106.316 81.0723 106.671 80.6487C107.747 79.8018 108.727 78.4585 109.324 77.2327Z" fill="#9DD0F0"/>
<path d="M106.671 80.6473C108.049 80.4755 108.205 80.6644 109.232 81.5482L108.054 82.8082L106.698 83.6583C106.137 82.7299 106.419 83.0143 105.264 82.6134C105.289 82.162 106.316 81.0709 106.671 80.6473Z" fill="#81C5F2"/>
<path d="M195.023 115.615C199.045 117.708 202.344 120.155 204.083 124.535L204.744 126.226C205.074 128.703 205.106 130.236 205.042 132.746L205.128 133.067C205.758 132.804 207.411 129.675 209.288 128.165C212.683 125.431 217.503 123.248 221.886 123.625C222.753 124.198 223.092 124.191 222.95 125.358C220.762 130.065 218.744 134.913 214.786 138.425C213.403 139.652 211.907 140.612 210.557 141.744L210.004 141.825C208.888 144.759 204.583 145.802 203.342 149.096L202.373 149.523C202.152 148.343 201.792 147.149 201.468 145.989C200.889 144.221 200.608 143.784 199.628 142.273C198.583 142.847 197.49 143.655 196.502 144.344C195.662 143.598 194.357 144.031 193.513 144.448L193.242 144.282C193.421 143.291 193.606 142.998 192.888 142.362L192.844 142.191C192.595 141.557 192.189 141.068 191.784 140.524L190.97 139.984L190.507 140.078C190.395 140.493 190.183 141.641 190.098 141.867C189.972 141.163 189.955 139.917 189.923 139.156L189.094 137.478L189.54 136.944C189.171 136.229 188.076 135.04 187.514 134.384C188.451 134.01 189.311 133.487 190.187 132.987C191.156 133.334 192.129 133.672 193.105 134C193.22 133.463 193.061 131.725 193.031 131.08C192.877 127.7 192.562 125.14 193.49 121.859C194.042 119.851 194.7 117.655 195.023 115.615Z" fill="#14A353"/>
<path d="M199.191 124.889C198.754 123.877 198.708 123.743 198.841 122.654L199.033 122.426C201.121 122.743 200.598 125.908 204.743 126.226C205.072 128.703 205.105 130.236 205.04 132.746L204.761 132.264L204.2 132.238C202.094 134.011 202.64 136.793 200.99 137.949L200.614 137.812C200.309 137.089 200.371 136.688 200.392 135.92C200.498 135.167 200.588 134.473 200.661 133.716L200.481 133.829C200.225 134.725 200.056 135.442 199.869 136.356C199.699 133.496 201.114 127.304 199.191 124.889Z" fill="#39B132"/>
<path d="M201.467 145.989C201.823 146.098 202.294 146.385 202.636 146.576C203.363 146.371 206.89 136.769 209.019 138.035C209.36 139.163 210.244 140.945 210.003 141.824C208.886 144.758 204.582 145.802 203.34 149.096L202.371 149.523C202.15 148.342 201.79 147.148 201.467 145.989Z" fill="#027952"/>
<path d="M205.127 133.067C205.756 132.804 207.409 129.675 209.286 128.164C212.681 125.431 217.501 123.248 221.885 123.624C220.438 123.938 220.327 123.673 219.722 125.121C216.859 127.024 213.627 126.988 210.717 129.18L209.37 132.218C207.513 133.091 207.142 133.1 205.152 133.378L205.127 133.067Z" fill="#38AF36"/>
<path d="M195.021 115.615C199.043 117.708 202.342 120.155 204.081 124.535C203.779 124.484 203.268 124.372 203.016 124.229C199.335 122.15 198.652 122.029 197.271 118.312C195.944 120.96 196.491 120.561 193.488 121.859C194.04 119.851 194.698 117.655 195.021 115.615Z" fill="#66DA53"/>
<path d="M187.514 134.384C188.451 134.01 189.311 133.487 190.187 132.986C191.156 133.334 192.129 133.671 193.105 134L193.059 135.547C193.131 137.738 193.119 138.626 190.807 139.483L190.499 139.29L190.509 138.587L189.923 139.156L189.094 137.477L189.54 136.944C189.171 136.229 188.076 135.04 187.514 134.384Z" fill="#01040D"/>
<path d="M189.538 136.943L190.507 138.586L189.922 139.155L189.092 137.477L189.538 136.943Z" fill="#AFB3BA"/>
<path d="M193.058 135.547C194.643 135.896 194.401 135.467 195.075 136.442C195.385 138.116 193.952 141.021 192.843 142.19C192.594 141.556 192.188 141.068 191.783 140.523L190.969 139.984L190.506 140.077C190.393 140.493 190.182 141.641 190.097 141.867C189.97 141.162 189.954 139.916 189.922 139.156L190.508 138.587L190.498 139.29L190.806 139.483C193.117 138.626 193.129 137.737 193.058 135.547Z" fill="#027952"/>
<path d="M199.869 136.356C199.853 137.246 199.797 137.857 199.695 138.743C199.203 135.808 199.056 128.886 198.744 125.629C198.919 125.34 199.068 125.093 199.191 124.889C201.114 127.304 199.7 133.496 199.869 136.356Z" fill="#38AF36"/>
<path d="M204.201 132.238L204.761 132.264L205.041 132.746L205.127 133.067L205.152 133.379C205.057 133.668 204.865 134.325 204.736 134.57L203.523 136.007L203.314 136.034C202.119 137.497 201.79 137.536 201.199 139.39L201.091 139.78C200.482 139.881 200.651 139.949 200.248 139.683C200.044 138.723 200.294 136.96 200.393 135.92C200.372 136.688 200.31 137.089 200.615 137.812L200.991 137.949C202.641 136.793 202.095 134.011 204.201 132.238Z" fill="#14992B"/>
<path d="M204.201 132.238L204.762 132.264L205.041 132.746L205.128 133.067L205.152 133.379C205.058 133.668 204.865 134.325 204.736 134.57L203.524 136.007L203.315 136.034C202.89 135.052 203.81 133.215 204.201 132.238Z" fill="#027952"/>
<path d="M221.885 123.625C222.752 124.198 223.091 124.191 222.949 125.358L219.723 125.122C220.328 123.674 220.439 123.939 221.885 123.625Z" fill="#39B132"/>
<path d="M203.315 136.035L203.524 136.008C203.689 136.37 203.902 136.902 204.142 137.2C202.8 137.648 202.999 138.65 201.199 139.391C201.79 137.537 202.119 137.498 203.315 136.035Z" fill="#39B132"/>
<path d="M204.736 134.568C205.357 135.432 205.447 136.163 204.887 137.119C204.361 137.315 204.605 137.326 204.141 137.198C203.901 136.9 203.689 136.368 203.523 136.006L204.736 134.568Z" fill="#38AF36"/>
<path d="M65.3259 99.0356L65.7476 98.3574L66.0498 98.3992C66.6133 100.811 64.9849 106.605 63.7566 108.892C63.5291 109.316 62.0359 111.131 61.6287 111.619C59.3618 114.593 56.1301 116.551 52.2986 116.328C50.3779 116.734 46.3687 116.356 44.4109 116C40.6963 114.884 37.5632 112.24 36.2861 108.521C35.2468 105.966 35.1028 103.331 34.3926 100.657C35.8804 100.433 36.2935 100.266 37.6714 99.6194C38.3464 100.386 40.0713 102.699 40.6565 103.188L41.4805 103.292C43.0154 102.532 44.7097 102.589 46.3601 102.835L47.0193 102.599C47.729 101.31 47.8977 101.013 48.9819 100.031C50.5327 100.068 53.7708 100.205 55.1475 99.8623L55.4136 100.237C57.4141 103.159 56.5557 102.026 57.4302 104.749L58.1946 104.726C59.6587 102.481 64.4541 100.732 65.3259 99.0356Z" fill="#80C0EC"/>
<path d="M34.3926 100.657C35.8804 100.433 36.2935 100.266 37.6714 99.6191C38.3464 100.386 40.0713 102.699 40.6565 103.188L41.4805 103.292C43.0154 102.532 44.7097 102.588 46.3601 102.834L47.0193 102.598C47.6187 103.501 48.8464 105.256 49.2854 106.145L51.0852 108.539L49.9788 109.347C49.9795 109.748 49.9563 110.51 49.9919 110.877C52.1772 112.459 54.5991 113.7 52.2986 116.327C50.3779 116.734 46.3687 116.356 44.4109 115.999C40.6963 114.884 37.5632 112.24 36.2861 108.521C35.2468 105.965 35.1028 103.331 34.3926 100.657Z" fill="#7FBBE7"/>
<path d="M34.3926 100.657C35.8804 100.433 36.2935 100.266 37.6714 99.6191C38.3464 100.386 40.0713 102.699 40.6565 103.188C40.7156 103.623 40.8044 104.102 40.7681 104.531C40.0603 105.341 39.7373 107.836 39.3992 109.042C38.5532 108.894 37.0933 108.591 36.2861 108.521C35.2468 105.965 35.1028 103.331 34.3926 100.657Z" fill="#01040D"/>
<path d="M49.9912 110.879C52.1765 112.461 54.5984 113.702 52.2979 116.329C50.3772 116.735 46.3679 116.358 44.4102 116.001C44.7456 114.625 44.0889 112.658 46.094 112.178C47.5408 111.831 48.6235 111.443 49.9912 110.879Z" fill="#01040D"/>
<path d="M41.4805 103.291C43.0154 102.531 44.7097 102.588 46.3601 102.834L47.0193 102.598C47.6187 103.501 48.8464 105.255 49.2854 106.145L48.8818 106.553C47.6719 106.799 43.9148 105.435 42.636 104.961C42.1162 104.769 42.0818 104.441 41.9373 104.007L42.208 103.527L41.4805 103.291Z" fill="#F8F8F8"/>
<path d="M41.4805 103.291C43.0154 102.532 44.7097 102.588 46.3601 102.834C45.4912 103.416 43.4546 103.309 42.208 103.527L41.4805 103.291Z" fill="#546E87"/>
<path d="M40.6562 103.188L41.4802 103.291L42.2078 103.527L41.937 104.007C42.0815 104.441 42.116 104.769 42.6357 104.961C43.9146 105.435 47.6716 106.799 48.8816 106.553L49.2852 106.145L51.085 108.538L49.9785 109.346C49.7593 109.217 49.8318 109.235 49.6487 109.187C46.533 108.376 43.1372 106.725 40.7678 104.531C40.8042 104.101 40.7153 103.622 40.6562 103.188Z" fill="#C9E2EF"/>
<path d="M55.1477 99.8633L55.4138 100.238C57.4143 103.16 56.5559 102.027 57.4304 104.75C56.8235 105.536 55.3462 106.373 54.4429 106.844C54.064 107.037 51.3008 108.503 51.0855 108.54L49.2856 106.146C48.8467 105.257 47.6189 103.503 47.0195 102.6C47.7292 101.311 47.8979 101.014 48.9822 100.031C50.533 100.069 53.771 100.206 55.1477 99.8633Z" fill="#01040D"/>
<path d="M65.3267 99.0356L65.7483 98.3574L66.0505 98.3992C66.614 100.811 64.9856 106.605 63.7573 108.892C63.5298 109.316 62.0366 111.131 61.6294 111.619C60.7471 110.163 62.1213 109.533 61.0737 106.865C61.6782 106.249 62.4141 105.231 62.96 104.523C60.3784 105.811 61.0811 105.716 58.1953 104.726C59.6594 102.481 64.4548 100.732 65.3267 99.0356Z" fill="#01040D"/>
<path d="M58.1953 104.726C59.6594 102.48 64.4548 100.732 65.3267 99.0352C65.2837 99.9277 65.2581 101.438 65.1443 102.276C64.4331 103.123 63.8674 103.876 62.96 104.523C60.3784 105.811 61.0811 105.716 58.1953 104.726Z" fill="#C9E2EF"/>
<path d="M57.4309 104.749L58.1953 104.726C61.0811 105.716 60.3784 105.811 62.96 104.523C62.4141 105.231 61.6782 106.249 61.0737 106.865C60.3816 108.741 56.1099 107.176 54.4434 106.843C55.3467 106.372 56.824 105.535 57.4309 104.749Z" fill="#BCD6EB"/>
<path d="M112.759 83.0922C114.55 82.7209 118.299 82.8244 120.237 82.812C125.152 82.7512 130.068 82.7661 134.982 82.8571C142.938 82.9668 150.806 82.8032 158.844 82.9875C163.267 82.9392 167.69 82.9145 172.113 82.9135C176.067 82.8994 181.284 81.9672 183.862 85.3442L184.268 86.395C183.639 86.4826 183.27 86.5175 182.656 86.7153C182.204 86.8 181.059 86.9892 180.679 87.115L179.726 87.1391C178.614 86.6753 162.417 86.8864 160.042 86.8657L108.555 86.9294C109.803 85.4655 110.975 83.7536 112.759 83.0922Z" fill="#1F325B"/>
<path d="M158.845 82.9894C163.268 82.9411 167.691 82.9164 172.114 82.9154C176.068 82.9013 181.285 81.9691 183.864 85.3461L184.269 86.3969C183.64 86.4845 183.271 86.5194 182.657 86.7172C182.205 86.8019 181.06 86.9911 180.68 87.1169L179.727 87.141C178.615 86.6772 162.418 86.8883 160.044 86.8676L158.531 86.5324C157.843 86.4491 154.13 86.1469 153.58 86.2404C154.198 85.9362 155.994 85.8595 156.878 85.7226C158.254 85.5766 160.323 86.1999 161.195 85.1159L161.001 84.8256C161.352 84.4042 161.25 84.286 161.295 83.6535L161.703 83.4071C161.517 83.3874 161.44 83.4059 161.271 83.4733L161.16 83.2909L158.845 82.9894Z" fill="#192C4F"/>
<path d="M158.844 82.9894C163.267 82.9411 167.689 82.9164 172.113 82.9154C176.067 82.9013 181.283 81.9691 183.862 85.3461C180.349 85.3952 175.195 83.9865 171.77 84.161C167.869 84.36 165.553 85.2953 161.194 85.1159L160.999 84.8256C161.351 84.4042 161.249 84.286 161.293 83.6535L161.701 83.4071C161.515 83.3874 161.438 83.4059 161.27 83.4733L161.158 83.2909L158.844 82.9894Z" fill="#1F3A66"/>
<path d="M141.827 85.9445C140.826 85.7097 140.832 85.8701 140.188 85.2521L140.439 84.9269C142.137 84.216 146.084 84.4484 148.055 84.507C149.204 84.714 150.829 84.5195 151.419 85.4379C147.818 86.2646 145.218 85.7404 141.827 85.9445Z" fill="#F8F8F8"/>
<path d="M151.421 85.4355C152.434 85.7417 155.634 85.6609 156.877 85.7202C155.993 85.8572 154.198 85.9338 153.579 86.238C154.129 86.1445 157.842 86.4468 158.531 86.53C155.668 86.9797 141.794 86.752 139.072 86.166L139.108 86.2114C140.11 86.1538 140.838 86.0876 141.829 85.9421C145.22 85.738 147.82 86.2622 151.421 85.4355Z" fill="#01040D"/>
<path d="M148.057 84.5058C151.597 84.4575 157.782 84.216 160.999 84.8244L161.194 85.1147C160.321 86.1987 158.253 85.5754 156.877 85.7214C155.633 85.6621 152.433 85.7429 151.42 85.4367C150.83 84.5183 149.206 84.7129 148.057 84.5058Z" fill="#B6B5C4"/>
<path d="M125.383 84.7745C126.81 84.6815 129.239 84.3173 130.346 85.1051L130.34 85.7745C129.129 85.8075 126.286 86.0477 125.408 85.3773L125.383 84.7745Z" fill="#D9D5E4"/>
<path d="M215.98 140.223C218.066 140.106 224.414 140.088 225.227 142.581C225.128 143.118 225.137 143.156 224.819 143.583C223.754 145.569 223.148 146.569 221.41 148.132C220.509 148.861 219.207 149.983 218.246 150.547C216.253 152.065 214.602 153.27 212.135 153.913C211.868 154.105 211.539 154.341 211.147 154.623C209.225 154.732 207.13 154.719 205.232 154.923C205.387 154.562 205.338 154.701 205.32 154.276C204.79 154.328 204.83 154.414 204.471 154.194C204.686 152.856 204.759 151.563 204.17 150.31C203.744 149.986 203.87 149.978 203.432 149.969C203.067 150.136 202.914 150.205 202.691 150.564C202.649 149.446 202.841 150.498 203.341 149.096C204.582 145.802 208.887 144.759 210.003 141.824L210.556 141.744C211.226 141.781 211.47 141.851 212.075 141.556C213.156 141.098 214.821 140.604 215.98 140.223Z" fill="#14992B"/>
<path d="M215.981 140.223C218.067 140.106 224.415 140.088 225.228 142.581C225.129 143.118 225.138 143.156 224.82 143.583C223.755 145.569 223.149 146.569 221.41 148.132C221.622 147.462 221.837 147.08 221.606 146.438C220.086 144.992 217.748 145.963 215.583 145.152L215.887 144.729C215.852 144.586 215.785 144.275 215.67 144.177C214.288 142.995 213.892 141.833 212.076 141.556C213.156 141.098 214.822 140.604 215.981 140.223Z" fill="#38AF36"/>
<path d="M215.98 140.223C218.066 140.106 224.415 140.088 225.228 142.581C225.128 143.118 225.137 143.156 224.819 143.583C222.491 142.548 219.145 143.479 217.569 141.14C216.988 140.278 216.934 140.455 215.98 140.223Z" fill="#66DA53"/>
<path d="M178.29 137.832C178.654 137.018 178.841 136.413 179.712 136.041C181.487 135.283 182.507 137.602 183.321 138.215C183.93 138.479 186.249 139.744 186.336 139.769C187.379 138.695 187.764 138.26 189.092 137.478L189.921 139.156C189.953 139.917 189.97 141.163 190.096 141.867C190.181 141.641 190.393 140.493 190.505 140.078L190.968 139.984L191.782 140.524C189.858 142.064 190.93 142.695 190.349 144.472C189.648 145.697 189.237 146.126 188.037 146.899C186.906 148.025 186.247 148.403 184.747 148.973C182.837 149.207 181.824 149.211 179.94 148.812L179.455 149.177C178.562 149.538 177.961 149.424 177 149.359L176.497 149.141C176.014 148.033 175.743 147.526 175.593 146.339C175.612 145.26 175.698 145.654 175.083 144.722C175.06 143.865 174.976 143.116 174.884 142.264L175.517 141.72L175.665 142.04L175.973 140.986C175.012 140.114 175 139.384 174.857 138.156C175.959 138.196 177.031 138.575 178.02 138.392L178.29 137.832Z" fill="#74B2E6"/>
<path d="M178.29 137.832C178.654 137.018 178.841 136.413 179.712 136.041C181.487 135.283 182.507 137.602 183.321 138.215C183.93 138.479 186.249 139.744 186.336 139.769C186.501 140.174 186.658 140.607 186.865 140.987C187.101 141.995 187.119 142.161 187.056 143.194C184.941 144.422 183.016 144.821 180.628 143.921C180.026 143.212 179.836 142.661 179.468 141.812C178.297 141.563 177.132 141.287 175.973 140.986C175.012 140.114 175 139.384 174.857 138.156C175.959 138.196 177.031 138.575 178.02 138.392L178.29 137.832Z" fill="#C9E2EF"/>
<path d="M183.323 138.215C183.932 138.479 186.251 139.745 186.338 139.769C186.503 140.174 186.66 140.607 186.868 140.987L186.422 141.682C185.614 142.114 184.067 141.902 183.19 141.677C181.567 141.26 181.411 141.694 180.611 140.512L183.323 138.215Z" fill="#F8F8F8"/>
<path d="M178.291 137.832C178.655 137.018 178.842 136.413 179.713 136.041C181.487 135.283 182.508 137.602 183.322 138.215L180.61 140.512C179.018 140.937 178.689 139.054 178.291 137.832Z" fill="#01040D"/>
<path d="M175.974 140.986C177.132 141.288 178.298 141.563 179.469 141.813C179.837 142.661 180.026 143.213 180.629 143.921C180.408 145.325 178.937 145.401 178.285 147.74C178.901 148.252 179.163 148.406 179.456 149.177C178.562 149.538 177.962 149.425 177 149.359L176.497 149.141C176.015 148.034 175.743 147.526 175.594 146.339C175.613 145.26 175.698 145.654 175.084 144.722C175.061 143.866 174.977 143.116 174.885 142.265L175.518 141.72L175.665 142.04L175.974 140.986Z" fill="#01040D"/>
<path d="M174.885 142.265L175.518 141.721L175.665 142.041C176.052 143.686 177.132 146.577 178.285 147.74C178.901 148.253 179.163 148.406 179.456 149.178C178.562 149.539 177.962 149.425 177 149.36L176.497 149.142C176.015 148.034 175.743 147.527 175.594 146.34C175.613 145.261 175.698 145.655 175.084 144.723C175.061 143.866 174.977 143.117 174.885 142.265Z" fill="#3DD558"/>
<path d="M186.336 139.77C187.379 138.696 187.764 138.261 189.091 137.479L189.921 139.157C189.953 139.918 189.969 141.164 190.096 141.868C189.746 142.662 189.645 143.094 188.868 143.46C187.987 143.532 187.867 143.484 187.056 143.195C187.119 142.162 187.101 141.996 186.865 140.988C186.658 140.608 186.5 140.175 186.336 139.77Z" fill="#01040D"/>
<path d="M188.037 146.9C188.08 145.437 188.833 144.535 190.349 144.473C189.648 145.698 189.237 146.127 188.037 146.9Z" fill="#0F254B"/>
<path d="M209.069 79.7793L210.806 81.1348C212.304 82.3074 212.706 83.6331 213.445 85.3665C214.035 85.8999 214 86.0439 214.7 86.1492C216.2 87.6919 215.758 88.4202 214.545 90.0388C214.16 90.7803 213.852 91.5505 213.092 91.9343C210.846 94.2825 207.093 96.1838 203.823 95.0825C202.482 95.3494 201.805 94.8489 200.698 94.1416C200.148 93.5088 199.249 92.7087 198.619 92.114C199.057 91.1414 199.575 89.7891 200.447 89.2288C202.12 89.3647 203.077 89.3816 204.665 89.9548C205.244 89.0405 206.894 86.8162 207.225 86.1479C206.351 84.509 206.299 84.1736 205.859 82.3882L209.069 79.7793Z" fill="#81C5F2"/>
<path d="M209.068 79.7793L210.805 81.1348C212.303 82.3074 212.704 83.6331 213.444 85.3665L211.454 87.0688C210.36 86.9922 208.078 87.0581 207.366 86.477L207.224 86.1479C206.35 84.509 206.297 84.1736 205.857 82.3882L209.068 79.7793Z" fill="#091932"/>
<path d="M209.068 79.7793L210.805 81.1348C209.815 82.8455 207.748 84.803 207.366 86.477L207.224 86.1479C206.35 84.509 206.297 84.1736 205.857 82.3882L209.068 79.7793Z" fill="#0F254B"/>
<path d="M200.447 89.2285C202.12 89.3645 203.077 89.3813 204.665 89.9546C204.923 90.6521 205.247 91.6133 205.543 92.2688L206.192 93.3542L205.861 94.207C204.721 94.1257 204.614 94.0688 203.823 95.0823C202.482 95.3491 201.805 94.8486 200.698 94.1414C200.148 93.5085 199.249 92.7085 198.619 92.1138C199.057 91.1411 199.575 89.7888 200.447 89.2285Z" fill="#01040D"/>
<path d="M207.224 86.1465L207.366 86.4756C208.078 87.0566 210.361 86.9907 211.454 87.0674C209.761 89.8254 207.592 89.1689 205.542 92.2676C205.246 91.6121 204.923 90.6509 204.664 89.9534C205.243 89.0391 206.894 86.8147 207.224 86.1465Z" fill="#C9E2EF"/>
<path d="M213.444 85.3652C214.033 85.8987 213.998 86.0427 214.698 86.1479C214.365 86.9377 214.463 87.1841 214.623 87.9993C213.501 88.4575 212.706 88.3975 211.595 88.6504C209.39 91.1289 207.717 90.7534 206.191 93.3533L205.541 92.2678C207.591 89.1692 209.76 89.8257 211.453 87.0676L213.444 85.3652Z" fill="#9DD0F0"/>
<path d="M205.86 94.2046C208.239 95.4163 210.405 92.4575 213.091 91.9316C210.845 94.2798 207.093 96.1811 203.822 95.0798C204.614 94.0664 204.72 94.1233 205.86 94.2046Z" fill="#091932"/>
<path d="M214.7 86.1465C216.2 87.6892 215.758 88.4175 214.545 90.0361C214.311 89.3293 214.49 88.7258 214.625 87.9978C214.465 87.1826 214.367 86.9363 214.7 86.1465Z" fill="#01040D"/>
<path d="M194.674 104.881C196.343 103.453 204.58 107.376 206.893 107.466C208.642 109.667 206.614 115.377 204.05 114.587C200.86 113.604 196.436 112.724 193.435 111.468L193.014 111.125C192.914 110.36 193.604 108.883 193.912 108.093C194.112 107.086 194.431 105.897 194.674 104.881Z" fill="#39B132"/>
<path d="M194.674 104.881C196.344 103.453 204.58 107.376 206.893 107.466L205.202 109.51L202.402 108.678L201.481 108.31C199.786 107.99 198.91 107.275 196.503 106.927C195.431 107.543 195.088 107.757 193.912 108.093C194.113 107.086 194.432 105.897 194.674 104.881Z" fill="#66DA53"/>
<path d="M196.503 106.926C198.91 107.274 199.786 107.989 201.481 108.309L202.401 108.677L205.202 109.509L204.823 109.902C204.125 109.888 203.706 109.713 203.058 109.654C200.037 109.38 196.719 110.691 193.925 110.903L193.435 111.467L193.014 111.124C192.914 110.359 193.604 108.882 193.912 108.092C195.087 107.756 195.431 107.542 196.503 106.926Z" fill="#3DD558"/>
<path d="M155.077 66.8853L155.134 66.6645C155.703 64.4241 154.471 64.9861 154.432 63.0962L154.625 62.9199C156.81 65.1125 156.527 69.5842 154.431 71.6028C154.242 71.7832 154.051 71.9602 153.856 72.134C151.949 73.813 151.173 73.8105 148.592 73.8064C146.481 74.0547 145.115 73.7656 143.91 71.9917C144.859 71.2559 145.309 71.584 146.105 70.7917C146.061 69.977 146.089 68.9878 145.705 68.2964C146.159 68.187 147.861 67.4045 148.38 67.1777L149.824 64.2041C152.047 64.2305 153.024 64.0041 154.298 66.0552C154.534 66.3206 154.813 66.6587 155.077 66.8853Z" fill="#C9E2EF"/>
<path d="M149.825 64.2031C152.048 64.2295 153.025 64.0032 154.299 66.0542C153.823 67.176 152.929 67.9927 151.998 68.7793C150.78 68.1841 149.627 67.7004 148.381 67.1768L149.825 64.2031Z" fill="#01040D"/>
<path d="M148.38 67.1777C149.626 67.7014 150.779 68.1851 151.997 68.7803C150.938 70.6091 149.907 70.2412 147.913 70.4407L146.375 71.1104L146.105 70.7917C146.061 69.977 146.088 68.9878 145.705 68.2964C146.159 68.187 147.861 67.4045 148.38 67.1777Z" fill="#F8F8F8"/>
<path d="M155.076 66.8853L155.134 66.6645C155.702 64.4241 154.47 64.9861 154.432 63.0962L154.625 62.9199C156.81 65.1125 156.526 69.5842 154.431 71.6028C154.242 71.7832 154.05 71.9602 153.855 72.134L153.094 71.324C153.955 69.0361 153.722 68.9885 155.076 66.8853Z" fill="#9DD0F0"/>
<path d="M146.105 70.791L146.375 71.1096C147.347 72.0288 148.412 72.3296 148.783 72.7466L148.592 73.8057C146.481 74.054 145.115 73.7649 143.91 71.991C144.859 71.2551 145.309 71.5833 146.105 70.791Z" fill="#74B2E6"/>
<path d="M151.413 71.2441L153.094 71.324L153.856 72.134C151.949 73.813 151.173 73.8106 148.592 73.8064L148.783 72.7473C149.819 72.3208 150.486 71.8499 151.413 71.2441Z" fill="#01040D"/>
<path d="M147.913 70.4399C149.588 70.4043 150.205 70.2004 151.413 71.2434C150.486 71.8491 149.819 72.3201 148.783 72.7466C148.412 72.3296 147.347 72.0288 146.375 71.1096L147.913 70.4399Z" fill="#9DD0F0"/>
<path d="M184.268 86.3945C184.614 89.7776 184.379 96.1494 184.361 99.7205L184.375 123.575C185.569 123.555 185.421 123.379 186.299 123.918C187.008 125.568 185.994 126.802 184.336 127.087C184.327 128.965 184.356 130.843 184.422 132.719C185.34 133.195 186.603 134.063 187.504 134.642C186.734 134.515 183.426 134.209 182.99 133.662C182.905 133.555 183.425 92.3481 183.041 87.7773C183.005 87.3508 182.913 87.063 182.656 86.7148C183.271 86.5171 183.64 86.4822 184.268 86.3945Z" fill="#1F3A66"/>
<path d="M184.375 123.576C185.569 123.556 185.421 123.38 186.299 123.919C187.008 125.569 185.995 126.803 184.336 127.088C184.304 126.015 184.36 124.672 184.375 123.576Z" fill="#3DD558"/>
<path d="M179.996 72.5614C182.154 72.0614 184.133 70.368 186.647 70.8314C187.541 71.4698 187.3 71.3771 187.772 72.5587C188.202 73.5606 189.029 75.2936 189.18 76.3041C189.129 76.3946 189.011 76.6427 188.94 76.6869C187.154 78.4005 183.958 78.3971 181.363 79.9974C180.796 78.0961 180.293 76.0904 179.782 74.1664C179.623 73.223 179.654 73.5228 179.996 72.5614Z" fill="#FAB907"/>
<path d="M179.781 74.168C182.275 74.6899 181.329 76.7061 183.469 77.3428C185.025 77.8057 187.532 75.7893 188.939 76.6885C187.154 78.4021 183.957 78.3987 181.362 79.999C180.795 78.0977 180.292 76.092 179.781 74.168Z" fill="#DB9A01"/>
<path d="M179.996 72.5614C182.154 72.0614 184.133 70.368 186.647 70.8314C187.541 71.4698 187.301 71.3771 187.772 72.5587C186.69 71.6402 187.372 71.6603 186.625 71.4012L186.302 72.4164C184.55 73.3092 182.168 73.255 180.315 72.6671C180.209 72.6329 180.102 72.5978 179.996 72.5614Z" fill="#F7D336"/>
<path d="M58.979 73.6426C60.5901 74.8042 62.4524 75.959 64.323 76.6304C63.54 77.9358 63.0488 79.323 62.4927 80.7388L59.718 81.9075L57.9294 82.6497C56.7568 81.019 55.7307 79.699 54.9082 77.8511C55.6357 76.9197 57.9453 74.7629 58.979 73.6426Z" fill="#0ABC4B"/>
<path d="M46.2356 87.6719C47.1765 87.9839 48.9038 90.3113 49.428 91.272L46.1826 95.1541L44.3267 94.5754C42.9805 94.2356 41.5498 94.469 40.6697 93.936C40.0986 93.3467 40.0698 92.1138 39.959 91.2444C42.4119 89.2825 43.2942 88.7578 46.2356 87.6719Z" fill="#01040D"/>
<path d="M54.6426 91.0955C55.7407 89.835 56.9058 89.075 56.9509 87.4492C60.7283 90.7117 61.802 89.0928 62.9705 95.6238C61.5334 95.666 58.8621 95.6716 57.5715 95.9668L57.2368 95.334C56.929 94.2463 55.4473 91.8694 54.6426 91.0955Z" fill="#01040D"/>
<path d="M179.727 87.1414L180.681 87.1172C180.424 92.2786 181.161 131.745 180.179 133.121C179.456 130.698 179.787 114.991 179.813 111.438C179.865 103.339 179.836 95.2397 179.727 87.1414Z" fill="#1F3A66"/>
<path d="M43.9082 127.647C45.1765 127.513 49.4851 127.052 50.0908 128.285C51.5234 131.201 55.3594 142.299 54.6128 144.85L54.5427 144.825L54.116 143.874C53.9541 142.913 53.8362 142.713 53.406 141.836L53.1831 141.191C52.76 141.003 52.5264 140.947 52.0776 140.826C52.5037 139.755 51.6426 137.073 51.3423 135.868C51.1877 135.043 50.8677 134.004 50.4355 133.278C50.0947 132.52 49.9258 131.647 49.7317 130.834L49.5596 130.588C48.8181 130.334 45.5962 130.578 44.5322 130.6L45.7788 130.252C46.2554 129.687 46.3652 129.198 46.0127 128.566C45.448 127.552 44.8887 127.739 43.9082 127.647Z" fill="#1F3A66"/>
<path d="M195.638 84.7402L196.071 84.8733L195.912 85.448C197.094 86.6892 198.878 86.2102 200.003 87.6768C200.295 88.0583 200.244 88.7834 200.446 89.2288C199.574 89.7891 199.056 91.1414 198.618 92.114C199.247 92.7087 200.147 93.5088 200.696 94.1416C199.429 93.8928 198.633 93.5913 197.608 92.7153C196.075 91.4058 192.453 86.7776 194.233 84.7927C194.827 84.8733 195.065 84.9167 195.638 84.7402Z" fill="#9DD0F0"/>
<path d="M62.0128 86.171C61.6214 85.4654 61.7906 83.7652 61.9764 83.0289C62.5445 80.7782 67.097 79.6024 68.3316 81.8131C68.9237 82.8731 68.0284 84.6441 67.6165 85.6683C66.2513 86.2149 63.3409 86.9234 62.0128 86.171Z" fill="#66DA53"/>
<path d="M62.0117 86.1728L62.2207 85.8843C63.5605 85.3286 65.9883 85.1836 67.4419 85.1641L67.6155 85.6702C66.2502 86.2168 63.3398 86.9253 62.0117 86.1728Z" fill="#14992B"/>
<path d="M198.777 78.375C199.576 79.5938 200.41 80.6897 201.282 81.853L200.784 82.4692C200.021 83.3042 198.924 84.4324 198.237 85.2859C197.337 85.0374 196.999 84.9666 196.072 84.8721L195.639 84.739C194.273 81.3662 196.204 80.2009 198.777 78.375Z" fill="#091932"/>
<path d="M167.826 76.1279L167.479 75.6787L167.572 75.1267C168.365 74.1877 170.014 73.3425 171.12 72.6914C172.332 73.6272 172.782 73.95 173.761 75.1675C173.795 76.3779 173.991 76.4011 173.46 77.2742C172.05 78.1721 170.933 78.269 169.362 78.9377C168.899 78.0969 168.228 76.9653 167.826 76.1279Z" fill="#87BF30"/>
<path d="M167.826 76.1279L167.479 75.6787L167.572 75.1267C168.365 74.1877 170.014 73.3425 171.12 72.6914C172.332 73.6272 172.782 73.95 173.761 75.1675C172.726 75.4995 169.208 76.2419 168.211 75.8501L167.826 76.1279Z" fill="#F7D336"/>
<path d="M216.041 117C215.338 113.97 217.573 113.072 220.15 113.767C220.685 114.556 221.079 115.322 220.91 116.326C220.804 116.945 220.442 117.49 219.914 117.829C218.616 118.674 216.98 118.115 216.041 117Z" fill="#BC8602"/>
<path d="M216.041 117C215.338 113.97 217.573 113.072 220.15 113.767C220.014 113.913 219.54 114.397 219.472 114.535C218.779 115.737 218.62 116.179 217.29 116.678C216.912 116.752 216.364 116.831 216.041 117Z" fill="#FDDD53"/>
<path d="M217.291 116.679C217.229 115.116 217.908 114.42 219.472 114.536C218.78 115.737 218.621 116.18 217.291 116.679Z" fill="#F7D336"/>
<path d="M34.3926 100.658C34.8318 97.9175 36.031 94.3213 37.8196 92.1641C37.4761 94.0994 35.6741 98.5911 37.6714 99.6206C36.2935 100.268 35.8804 100.434 34.3926 100.658Z" fill="#9DD0F0"/>
<path d="M143.239 67.5918L145.704 68.2957C146.087 68.9871 146.06 69.9763 146.104 70.791C145.307 71.5833 144.858 71.2551 143.909 71.991C143.265 70.398 142.459 70.2026 142.666 68.3245L143.239 67.5918Z" fill="#01040D"/>
<path d="M142.667 68.3231L142.683 67.9842C141.869 66.8792 130.708 68.3082 128.262 67.744L128.043 67.3521C128.98 66.7249 141.518 67.1107 143.24 67.5904L142.667 68.3231Z" fill="#AFB3BA"/>
<path d="M60.2583 117.4C60.8945 117.485 60.959 117.601 61.4795 118.028C62.2532 119.778 61.1501 120.178 59.8257 120.887C59.0273 120.266 58.3997 119.453 57.748 118.677L60.2583 117.4Z" fill="#66DA53"/>
<path d="M34.2562 122.391C35.3587 122.369 35.8338 122.272 36.6773 122.783C37.0042 123.534 36.6248 124.309 36.3675 125.13C35.4061 125.178 35.1795 125.007 34.5499 124.512C34.1065 123.646 34.1856 123.357 34.2562 122.391Z" fill="#FDDD53"/>
<path d="M139.341 69.459C139.839 69.4468 140.467 69.4939 140.975 69.5171L141.041 69.7129L140.525 69.7105L140.584 69.8252C137.793 70.022 134.827 70.0349 132.018 70.0948C131.092 70.147 130.949 70.1543 130.052 69.8975L129.953 69.6734C132.916 69.3326 136.276 69.8382 139.341 69.459Z" fill="#AFB3BA"/>
<path d="M209.872 156.678C210.642 156.957 210.363 156.779 210.921 157.597C211.112 158.937 210.745 159.02 209.712 159.395C208.834 159.045 208.543 159.002 208.326 158.124C208.637 157.368 209.177 157.123 209.872 156.678Z" fill="#66DA53"/>
<path d="M148.458 60.6348C148.979 60.6692 148.764 60.5669 149.12 60.9548L148.783 61.4399C147.588 62.0925 147.218 62.0386 145.832 62.0195L145.596 62.1103L145.398 61.8293C146.02 60.7019 147.324 60.6917 148.458 60.6348Z" fill="#01040D"/>
<path d="M57.2346 95.3359L57.5693 95.9688C56.9165 98.7205 55.9739 98.7065 55.4126 100.237L55.1465 99.8628C56.0703 98.1758 56.9351 97.2644 57.2346 95.3359Z" fill="#989FAF"/>
<path d="M48.1211 85.3363C49.0066 84.8488 51.3835 85.2313 52.3018 85.5861C51.0908 85.6708 49.5725 85.8273 48.3867 85.7377L48.1211 85.3363Z" fill="#D9D5E4"/>
<path d="M205.688 76.4954C207.244 76.325 208.377 75.939 209.206 77.3604C207.876 77.5984 206.91 77.0239 205.688 76.4954Z" fill="#091932"/>
<path d="M201.282 81.8535C201.948 82.1082 202.621 82.342 203.301 82.5549L203.326 82.7161C202.345 82.6719 201.749 82.6321 200.783 82.4697L201.282 81.8535Z" fill="#D9D5E4"/>
</g>
<defs>
<clipPath id="clip0_353_107">
<rect width="250" height="250" fill="white"/>
</clipPath>
</defs>
</svg>
