<svg width="360" height="360" viewBox="0 0 360 360" fill="none" xmlns="http://www.w3.org/2000/svg">
<path d="M129.439 52.7274C142.049 46.5066 149.478 46.9109 162.246 52.1319C167.66 55.8781 175.463 54.1666 180.005 57.3686L180.959 59.1309C181.175 60.5341 181.302 61.0709 181.117 62.4666C192.618 62.0439 204.508 62.7071 215.946 62.4046C226.778 62.1181 237.156 63.5634 236.968 76.8594C236.992 82.3834 237.009 88.6189 236.995 94.2709L236.96 125.25L236.967 150.417C236.967 154.39 237.147 160.033 236.883 163.804C236.958 164.262 236.896 164.108 237.17 164.475C241.173 162.645 249.456 161.631 251.712 159.822C253.5 157.87 254.165 155.658 256.688 153.903C257.175 153.967 257.322 153.919 257.81 153.872C261.517 153.256 264.365 153.054 268.135 152.967C269.603 152.932 273.527 152.882 274.672 152.631C276.232 152.727 277.395 153.183 278.872 153.641C280.977 155.568 281.115 157.258 282.022 158.241L282.078 158.522C286.225 160.774 297.29 163.711 299.26 167.218C303.563 174.872 305.695 185.175 308.49 193.59C310.287 199.275 314.697 214.072 313.86 219.279C313.497 220.465 312.928 222.007 312.035 222.886C307.33 227.514 299.482 233.434 293.612 236.53C293.055 239.799 293.95 240.195 292.578 243.876L292.225 244.393C292.67 247.818 293.707 251.37 293.905 254.703C294.232 260.278 293.77 266.088 293.668 271.708C293.558 277.743 294.593 286.263 293.785 291.99C292.54 293.225 282.5 293.573 280.293 293.57C277.688 293.548 275.085 293.408 272.492 293.153C270.217 292.95 267.94 292.773 265.66 292.623C259.978 294.563 249.188 293.568 242.93 293.755C240.711 293.82 232.529 293.495 230.799 291.855C230.074 291.168 230.689 286.868 230.769 285.49C227.157 286.55 224.444 286.68 220.706 286.698C209.36 286.748 198.015 286.72 186.669 286.713L122.576 286.7L88.7555 286.753C83.5407 286.763 74.837 287.025 69.8875 286.453C67.29 286.143 64.8647 284.993 62.9797 283.178C60.9732 281.273 59.9972 278.793 59.8032 276.075C59.197 267.585 59.4607 259.108 59.5617 250.66L59.6402 219.303L59.5235 166.529C59.74 140.895 59.7247 115.259 59.4772 89.6256C59.278 77.7669 57.8205 63.1269 73.232 62.5056C78.589 62.2896 83.7565 62.3516 89.109 62.3911C95.539 62.4511 101.969 62.4409 108.399 62.3606C112.44 62.3699 110.415 60.5691 112.177 57.6019C115.761 54.5179 120.166 55.3569 124.827 54.9946C126.54 54.3024 127.825 53.5959 129.439 52.7274Z" fill="#FBFBFB"/>
<path d="M274.671 152.631C276.231 152.727 277.394 153.183 278.871 153.641C280.976 155.568 281.114 157.258 282.021 158.241L282.076 158.522C286.224 160.774 297.289 163.712 299.259 167.218C303.561 174.872 305.694 185.175 308.489 193.591C310.286 199.275 314.696 214.072 313.859 219.279C313.496 220.465 312.926 222.007 312.034 222.887C307.329 227.514 299.481 233.435 293.611 236.531C293.054 239.8 293.949 240.196 292.576 243.876L292.224 244.393C292.669 247.818 293.706 251.37 293.904 254.703C294.231 260.278 293.769 266.088 293.666 271.708C293.556 277.743 294.591 286.263 293.784 291.99C292.539 293.225 282.499 293.573 280.291 293.57C277.686 293.548 275.084 293.408 272.491 293.153C270.216 292.95 267.939 292.773 265.659 292.623C259.976 294.563 249.187 293.568 242.928 293.755C240.71 293.82 232.527 293.495 230.798 291.855C230.073 291.168 230.688 286.868 230.768 285.49C232.248 271 234.377 259.51 236.774 245.318C236.435 243.745 235.185 244.371 235.51 241.294C236.74 229.667 237.634 218.226 237.208 206.508C237.176 205.639 237.292 205.115 236.665 204.543C233.646 207.618 231.434 210.046 227.181 211.399C225.735 211.74 224.03 211.549 222.525 211.669C212.571 209.92 212.248 196.056 210.332 188.237C209.663 185.51 208.761 181.025 208.529 178.267C207.688 175.083 207.318 171.737 206.437 168.446C205.909 165.75 205.045 165.579 205.529 162.247C206.279 160.787 206.82 160.226 207.954 159.054L208.357 158.963C209.086 158.316 209.881 158.004 210.763 157.578C212.364 156.822 215.177 156.379 216.998 156.024L218.622 156.551C220.301 158.726 221.922 163.107 222.479 163.517L222.962 163.493C223.38 164.268 222.834 165.347 223.397 166.944C224.588 170.322 226.004 174.328 227.542 177.535C228.728 174.314 229.083 174.114 230.675 171.434C232.175 168.907 236.6 165.712 236.881 163.804C236.957 164.262 236.895 164.109 237.169 164.476C241.172 162.645 249.455 161.631 251.711 159.823C253.499 157.87 254.164 155.658 256.686 153.903C257.174 153.967 257.321 153.92 257.809 153.872C261.516 153.256 264.364 153.055 268.134 152.967C269.601 152.933 273.526 152.882 274.671 152.631Z" fill="#0E347E"/>
<path d="M238.25 246.228L238.499 245.728C238.954 245.533 247.304 245.721 248.536 245.759C259.585 246.097 270.207 246.087 281.235 245.024C284.022 244.755 290.59 243.141 292.577 243.876L292.225 244.393C292.67 247.818 293.707 251.37 293.905 254.702C294.232 260.277 293.77 266.087 293.667 271.707C293.557 277.742 294.592 286.262 293.785 291.99C292.54 293.225 282.5 293.572 280.292 293.57C277.687 293.547 275.085 293.407 272.492 293.152C270.217 292.95 267.94 292.772 265.66 292.622C259.977 294.562 249.188 293.567 242.929 293.755C240.711 293.82 232.528 293.495 230.799 291.855C230.074 291.167 230.688 286.867 230.768 285.49C232.249 271 234.378 259.51 236.774 245.318L237.771 245.22C238.262 245.781 238.094 245.463 238.25 246.228Z" fill="#253248"/>
<path d="M265.659 292.622C265.454 289.775 267.489 273.912 269.209 271.835C271.354 270.757 279.276 270.155 281.881 269.897L282.051 269.995C279.636 270.652 277.021 271.037 274.541 271.457L272.509 273.487C271.764 276.872 270.286 289.347 270.779 292.47C271.336 292.597 271.846 292.717 272.399 292.87L272.491 293.152C270.216 292.95 267.939 292.772 265.659 292.622Z" fill="#141721"/>
<path d="M238.25 246.228L238.5 245.728C238.954 245.533 247.304 245.721 248.536 245.759C259.585 246.097 270.207 246.087 281.235 245.024C284.022 244.755 290.59 243.141 292.577 243.876L292.225 244.393C288.095 245.1 284.515 246.22 280.09 246.608C266.565 247.793 252.695 247.449 239.191 247.905C238.536 247.435 238.575 247.089 238.25 246.228Z" fill="#141721"/>
<path d="M295.591 197.207L295.554 198.239C295.571 198.96 295.599 200.199 295.856 200.846C297.014 203.773 296.261 209.682 297.659 212.207C298.661 213.001 300.039 213.094 301.341 213.333C302.429 213.801 303.914 214.388 304.886 214.997L305.371 215.705L305.216 216.059C304.104 216.294 301.001 215.54 300.034 215.128C298.799 215.223 298.149 215.238 296.914 215.179C297.359 217.065 301.569 219.795 303.199 220.722C306.529 220.535 307.486 219.853 310.441 218.43C311.571 218.926 312.661 219.579 313.861 219.279C313.499 220.465 312.929 222.007 312.036 222.887C307.331 227.514 299.484 233.435 293.614 236.531C292.804 230.196 292.534 227.245 292.454 220.843C291.701 218.36 293.959 200.288 295.591 197.207Z" fill="#031746"/>
<path d="M295.551 198.238C295.568 198.96 295.596 200.199 295.853 200.846C297.011 203.773 296.258 209.681 297.656 212.206C298.658 213 300.036 213.093 301.338 213.332C302.426 213.8 303.911 214.387 304.883 214.996L305.368 215.705L305.213 216.058C304.101 216.294 300.998 215.54 300.031 215.127C298.488 214.621 297.796 214.61 296.153 214.583C295.063 214.565 295.103 214.327 294.386 213.554L296.221 211.249C295.528 210.577 294.686 209.849 293.961 209.194C294.276 205.514 294.806 201.856 295.551 198.238Z" fill="#030C27"/>
<path d="M274.671 152.631C276.231 152.727 277.393 153.183 278.871 153.641C280.976 155.568 281.113 157.258 282.021 158.241L282.076 158.522C280.638 159.282 274.008 159.62 272.133 159.742C268.878 160.518 256.711 159.129 251.711 159.823C253.498 157.87 254.163 155.658 256.686 153.903C257.173 153.967 257.321 153.92 257.808 153.872C261.516 153.256 264.363 153.055 268.133 152.967C269.601 152.933 273.526 152.882 274.671 152.631Z" fill="#124193"/>
<path d="M272.134 159.742C271.461 159.701 271.074 159.689 270.421 159.547C271.681 159.457 274.461 159.352 275.526 158.966C275.171 158.165 269.346 159.373 268.004 158.702C269.646 158.416 280.604 157.961 282.021 158.241L282.076 158.522C280.639 159.282 274.009 159.62 272.134 159.742Z" fill="#031746"/>
<path d="M295.588 197.206C296.931 190.481 297.156 185.772 298.041 179.142C301.058 181.436 298.228 187.857 298.696 191.01C299.013 193.145 300.678 199.946 301.558 201.639L301.456 201.941C300.198 201.392 299.491 195.766 298.876 194.546C298.588 195.523 298.646 195.88 299.063 196.844C299.626 198.14 299.126 199.629 299.351 201.096C300.053 205.655 302.026 211.402 304.883 214.996C303.911 214.387 302.426 213.8 301.338 213.332C300.036 213.093 298.658 213 297.656 212.206C296.258 209.681 297.011 203.773 295.853 200.846C295.596 200.199 295.568 198.96 295.551 198.238L295.588 197.206Z" fill="#07183F"/>
<path d="M301.341 213.333C299.801 210.176 296.303 195.628 298.251 193.063C298.563 193.35 298.721 194.077 298.878 194.547C298.591 195.524 298.648 195.881 299.066 196.845C299.628 198.14 299.128 199.629 299.353 201.096C300.056 205.656 302.028 211.403 304.886 214.997C303.913 214.388 302.428 213.801 301.341 213.333Z" fill="#031746"/>
<path d="M243.383 194.947C244.55 194.267 245.789 190.075 247.163 188.938C248.194 190.316 246.37 194.311 246.716 196.041C246.075 197.427 242.911 204.629 242.392 205.385C241.804 205.066 241.74 204.58 241.404 203.859C240.779 205.07 242.2 205.392 240.238 206.129C239.761 206.038 237.823 205.485 237.583 205.51C237.488 204.611 237.645 204.556 237.156 204.064C236.96 204.231 236.781 204.34 236.666 204.543C233.646 207.618 231.435 210.045 227.182 211.399L226.57 211.069C235.222 209.509 238.159 199.342 243.383 194.947Z" fill="#141721"/>
<path d="M214.919 162.841C216.018 162.843 217.468 162.755 218.445 163.145C219.177 164.216 220.447 168.523 219.945 169.574C219.574 169.225 218.601 164.513 217.768 163.381L217.445 163.567C216.76 167.673 222.299 174.726 220.59 177.915L220.028 178.244C217.764 177.287 216.075 167.555 214.261 164.78L214.102 164.903C214.236 166.08 216.084 172.704 216.596 174.263C216.853 175.048 218.536 176.871 218.886 178.065C215 177.766 214.276 165.608 213.027 163.977C213.608 163.191 214.005 162.985 214.919 162.841Z" fill="#1762DC"/>
<path d="M217 156.023L218.624 156.55C217.574 156.687 216.649 156.651 215.951 157.359C215.359 158.38 215.111 161.099 215.697 162.097C216.428 162.167 217.493 161.511 219.022 161.793L218.322 161.745L218.123 162.014C217.076 162.137 215.014 162.32 214.1 162.613C213.039 162.858 213.14 163.008 212.197 162.676C211.032 161.477 211.066 159.313 210.766 157.578C212.366 156.822 215.179 156.379 217 156.023Z" fill="#1762DC"/>
<path d="M246.936 181.581C246.395 179.873 246.218 178.196 246.256 176.416C246.701 177.043 247.384 179.944 247.482 180.754C248.338 184.8 248.94 187.133 248.187 191.339C247.865 193.139 247.289 195.275 247.427 197.036C246.985 196.583 246.996 196.606 246.715 196.04C246.37 194.31 248.194 190.316 247.162 188.938C245.788 190.074 244.55 194.267 243.383 194.947C243.53 194.209 244.167 193.158 244.42 192.385C245.914 187.819 247.519 186.329 246.936 181.581Z" fill="#0B358F"/>
<path d="M210.766 157.578C211.066 159.313 211.032 161.478 212.197 162.676C213.14 163.008 213.039 162.858 214.1 162.614L214.919 162.841C214.005 162.985 213.608 163.191 213.028 163.977C211.248 165.403 213.446 165.603 212.713 167.68C211.599 167.606 212.465 164.71 211.556 163.703C210.958 163.669 210.86 163.711 210.33 163.419C209.301 161.523 210.359 159.868 208.359 158.963C209.089 158.316 209.884 158.004 210.766 157.578Z" fill="#0B358F"/>
<path d="M206.438 168.446L206.967 168.364L207.172 169.124C208.135 169.546 208.178 169.452 208.618 170.536C209.405 172.477 209.155 176.298 208.529 178.267C207.688 175.082 207.318 171.736 206.438 168.446Z" fill="#0B358F"/>
<path d="M223.322 182.556C223.52 182.57 223.563 182.637 223.763 182.753L223.631 183.32C222.121 184.152 220.689 183.565 218.408 184.836L218.296 184.845L218.156 184.511C219.495 183.405 221.664 182.932 223.322 182.556Z" fill="#031746"/>
<path d="M230.769 285.49C227.157 286.55 224.444 286.68 220.706 286.698C209.36 286.748 198.015 286.72 186.669 286.713L122.576 286.7L88.7555 286.753C83.5407 286.763 74.837 287.025 69.8875 286.453C67.29 286.143 64.8647 284.993 62.9797 283.178C60.9732 281.273 59.9972 278.793 59.8032 276.075C59.197 267.585 59.4607 259.108 59.5617 250.66L59.6402 219.303L59.5235 166.529C59.74 140.895 59.7247 115.259 59.4772 89.6257C59.278 77.7669 57.8205 63.1269 73.232 62.5057C78.589 62.2897 83.7565 62.3517 89.109 62.3912C95.539 62.4512 101.969 62.4409 108.399 62.3607C109.143 62.4402 109.689 62.3682 110.203 62.7699C109.69 66.7299 107.642 71.3617 107.081 74.8134L108.786 75.1972L107.109 75.2467L89.2408 75.2569C86.675 75.2574 84.0987 75.2159 81.5342 75.2714C78.0625 75.3467 76.575 76.2134 74.5447 78.8859C74.1312 84.0702 74.2667 89.8352 74.2662 95.0914L74.2657 119.211L74.268 195.521L74.2645 244.753C74.2648 249.122 73.9435 265.57 74.841 268.935C75.7165 270.368 76.795 272.035 78.5717 272.243C82.6492 272.72 87.8825 272.498 92.0245 272.483L116.902 272.463L184.296 272.433C194.863 272.423 205.43 272.463 215.996 272.43C218.375 272.423 219.789 271.99 221.421 270.19C222.99 266.49 222.53 265.02 222.542 261.065L222.544 245.748L222.641 224.471C222.662 220.53 222.817 215.52 222.526 211.669C224.031 211.549 225.736 211.74 227.182 211.399C231.435 210.045 233.647 207.618 236.667 204.543C237.293 205.115 237.177 205.639 237.209 206.508C237.635 218.225 236.741 229.666 235.512 241.294C235.186 244.371 236.436 243.744 236.775 245.318C234.378 259.51 232.25 271 230.769 285.49Z" fill="#0F59D1"/>
<path d="M73.9592 272.722C73.8892 272.152 73.865 271.58 73.8865 271.007C73.9222 270.047 74.166 269.56 74.8415 268.935C75.717 270.367 76.7955 272.035 78.5722 272.242C82.6497 272.72 87.883 272.497 92.025 272.482L116.902 272.462L184.297 272.432C194.864 272.422 205.43 272.462 215.996 272.43C218.375 272.422 219.789 271.99 221.421 270.19C221.574 271.737 219.539 275.882 218.215 276.73C218.664 275.975 219.336 275.077 219.366 274.255L219.076 274.137C215.761 278.445 197.751 275.142 192.162 275.87C191.017 276.017 185.539 274.69 183.75 274.677C174.063 274.605 164.34 275.095 154.657 274.87C153.325 274.84 143.702 274.677 143.261 274.46C141.28 274.265 138.994 274.427 136.948 274.297C126.071 273.6 115.243 274.585 104.368 274.827C98.0407 274.97 91.7147 274.287 85.4285 274.032L85.2102 274.265C82.632 274.427 80.0197 274.6 77.4952 273.96C74.9797 273.322 75.3972 273.295 74.2517 271.437L73.9592 272.722Z" fill="#0B358F"/>
<path d="M73.9599 272.723C74.0774 278.145 88.1864 276.998 91.8869 276.885L91.8554 277.052C88.9901 277.31 78.1924 277.695 76.1111 276.36C73.7891 274.87 72.7766 272.295 72.2226 269.672C72.0134 268.682 72.1654 268.4 72.7259 267.56C72.7994 267.45 73.1444 196.822 73.1299 189.887C73.1216 185.879 72.8656 181.881 72.8744 177.875C72.8901 170.853 73.1509 163.837 73.1354 156.809C73.1226 151.074 72.8649 145.351 72.8624 139.614C72.8604 134.886 73.0904 130.135 73.0441 125.416L72.8666 104.976C72.8031 100.501 71.6869 81.7495 74.5459 78.8857C74.1324 84.07 74.2679 89.835 74.2674 95.0912L74.2669 119.21L74.2691 195.521L74.2656 244.753C74.2659 249.122 73.9446 265.57 74.8421 268.935C74.1666 269.56 73.9229 270.048 73.8871 271.008C73.8656 271.58 73.8899 272.153 73.9599 272.723Z" fill="#1762DC"/>
<path d="M129.44 52.7274C142.05 46.5066 149.479 46.9109 162.247 52.1319C167.661 55.8781 175.464 54.1666 180.005 57.3686L180.96 59.1309C181.176 60.5341 181.303 61.0709 181.118 62.4666C180.547 65.2649 180.738 72.2831 180.995 75.2364C190.806 75.3119 202.655 74.8831 212.135 75.2974C207.911 75.8869 182.289 75.1544 181.279 75.7386L181.195 76.5299C181.1 79.5701 181.205 80.7914 180.065 83.6456L179.504 83.8604L178.96 83.5799C174.654 84.1964 168.447 83.4804 163.758 83.4924C150.261 83.5271 136.747 83.4916 123.249 83.5004C121.09 83.5019 113.536 84.4259 112.341 83.5839C111.828 82.8364 111.958 82.4206 112.013 81.4976C111.697 79.3831 111.729 77.1909 111.386 75.0316L110.664 75.2721L108.787 75.1971L107.082 74.8134C107.643 71.3616 109.691 66.7299 110.204 62.7699C109.69 62.3681 109.144 62.4401 108.4 62.3606C112.441 62.3699 110.416 60.5691 112.178 57.6019C115.762 54.5179 120.167 55.3569 124.828 54.9946C126.541 54.3024 127.826 53.5959 129.44 52.7274Z" fill="#D6D8E5"/>
<path d="M129.438 52.7274C142.047 46.5066 149.476 46.9109 162.244 52.1319C167.658 55.8781 175.461 54.1666 180.003 57.3686L180.957 59.1309C178.977 60.0949 166.647 59.7154 163.528 59.7176C153.551 59.8054 143.575 59.8041 133.598 59.7136L119.408 59.5679C117.582 59.5549 115.294 59.8789 113.53 59.4534C112.872 58.8481 113.056 59.1664 112.956 58.1269L112.77 58.1049L112.176 57.6019C115.759 54.5179 120.165 55.3569 124.826 54.9946C126.539 54.3024 127.823 53.5959 129.438 52.7274Z" fill="#E7E8F0"/>
<path d="M112.176 57.6014C115.759 54.5174 120.165 55.3564 124.826 54.9941C125.975 56.0794 126.134 55.9441 127.633 56.0991C123.491 56.3601 119.098 56.0349 115.238 56.3241C114.16 56.9636 113.741 57.1424 112.956 58.1264L112.77 58.1044L112.176 57.6014Z" fill="#D6D8E5"/>
<path d="M129.44 52.7275C129.138 53.7373 128.103 55.651 128.138 56.072L127.635 56.0998C126.136 55.9448 125.977 56.08 124.828 54.9948C126.541 54.3025 127.825 53.596 129.44 52.7275Z" fill="#ACB0C2"/>
<path d="M112.013 81.4978C113.88 82.3026 120.074 83.0626 122.239 83.1159C136.226 83.4596 150.245 83.2431 164.236 83.2143C167.382 83.2078 170.319 82.7656 173.434 82.4394C175.398 82.2239 177.864 82.4271 179.722 81.9041C180.862 80.8726 180.345 78.2954 180.757 76.4541L181.195 76.5301C181.1 79.5703 181.205 80.7916 180.065 83.6459L179.504 83.8606L178.96 83.5801C174.654 84.1966 168.447 83.4806 163.758 83.4926C150.261 83.5273 136.747 83.4919 123.249 83.5006C121.09 83.5021 113.536 84.4261 112.341 83.5841C111.828 82.8366 111.958 82.4208 112.013 81.4978Z" fill="#ACB0C2"/>
<path d="M108.4 62.3603C112.441 62.3696 110.416 60.5688 112.178 57.6016L112.773 58.1046C110.853 62.2818 111.084 70.2673 111.386 75.0313L110.664 75.2718L108.787 75.1968L107.082 74.8131C107.643 71.3613 109.691 66.7296 110.204 62.7696C109.69 62.3678 109.144 62.4398 108.4 62.3603Z" fill="#031746"/>
<path d="M181.118 62.4669C192.62 62.0441 204.51 62.7074 215.947 62.4049C226.78 62.1184 237.158 63.5636 236.97 76.8596C236.993 82.3836 237.01 88.6191 236.997 94.2711L236.961 125.25L236.968 150.417C236.968 154.391 237.148 160.033 236.884 163.804C236.603 165.712 232.178 168.907 230.677 171.434C229.086 174.114 228.73 174.314 227.544 177.535C226.007 174.328 224.591 170.322 223.4 166.944C222.837 165.347 223.383 164.268 222.964 163.493L222.482 163.517C222.896 159.577 222.488 152.881 222.478 148.778L222.452 119.639L222.479 94.5196C222.483 89.8094 222.572 85.1196 222.333 80.4151C222.045 74.7349 216.266 75.2426 212.135 75.2976C202.656 74.8834 190.806 75.3121 180.995 75.2366C180.739 72.2834 180.547 65.2651 181.118 62.4669Z" fill="#1762DC"/>
<path d="M111.383 75.0312C111.727 77.1905 111.695 79.3827 112.01 81.4972C111.956 82.4202 111.826 82.836 112.339 83.5835C113.534 84.4255 121.087 83.5015 123.247 83.5C136.744 83.4912 150.258 83.5267 163.755 83.492C168.445 83.48 174.652 84.196 178.958 83.5795L179.501 83.86L180.063 83.6452C180.067 86.4985 178.399 88.6427 176.048 90.0725C170.113 90.5027 161.129 90.2762 155.037 90.2725L118.272 90.2607C116.234 90.2622 110.834 90.5632 109.59 89.2115C106.822 86.2055 107.04 79.1145 107.108 75.2462L108.784 75.1967L110.662 75.2718L111.383 75.0312Z" fill="#D6D8E5"/>
<path d="M111.385 75.0312C111.729 77.1905 111.697 79.3827 112.012 81.4972C111.958 82.4202 111.828 82.836 112.341 83.5835C113.536 84.4255 121.089 83.5015 123.249 83.5C136.747 83.4912 150.26 83.5267 163.757 83.492C168.447 83.48 174.654 84.196 178.96 83.5795L179.504 83.86C178.301 84.6535 177.903 84.8387 176.442 84.8445C165.984 84.8857 155.534 84.8002 145.071 84.814C135.474 84.742 125.846 85.0105 116.253 84.906C112.978 84.8702 111.223 84.6008 110.859 80.8828C110.679 79.0533 110.709 77.1005 110.664 75.2718L111.385 75.0312Z" fill="#141721"/>
<path d="M204.888 135.737C217.153 142.182 215.749 154.962 216.89 155.999L216.998 156.023C215.177 156.379 212.364 156.821 210.763 157.578C209.881 158.003 209.086 158.315 208.357 158.963L207.954 159.054C205.387 158.549 201.65 153.933 199.535 152.311C198.605 151.599 197.674 150.895 196.689 150.244L196.911 149.921C197.086 148.964 196.717 148.162 196.419 147.204L197.628 144.911C196.305 142.57 195.997 142.008 196.084 139.347L196.313 138.656C196.963 137.909 197.753 137.755 198.69 137.449C199.262 138.481 200.088 140.081 200.723 141.012C201.62 140.904 202.314 140.928 203.019 140.404C203.385 139.499 203.29 139.831 203.14 138.767L203.287 138.313L203.161 137.962C203.793 137.215 204.31 136.519 204.888 135.737Z" fill="#F1AE6E"/>
<path d="M198.692 137.449C199.264 138.481 200.09 140.081 200.725 141.012C202.061 142.82 203.6 144.661 205.662 145.679L206.237 146.194L206.326 146.416C205.715 146.77 205.526 147.014 204.987 147.446C199.308 147.367 198.887 144.497 196.567 139.994C196.262 139.402 196.856 139.89 196.086 139.347L196.315 138.656C196.965 137.909 197.755 137.755 198.692 137.449Z" fill="#F9BF85"/>
<path d="M203.404 138.25C204.262 137.829 203.973 137.809 204.692 138.025C205.531 139.088 205.691 140.177 206.276 141.434C206.786 142.463 207.634 143.913 207.635 145.005C207.294 145.807 207.099 145.936 206.235 146.195L205.66 145.679C203.598 144.662 202.059 142.821 200.723 141.013C201.62 140.904 202.314 140.929 203.019 140.404C203.385 139.5 203.29 139.832 203.14 138.768L203.287 138.313L203.404 138.25Z" fill="#E59E6D"/>
<path d="M203.287 138.313L203.404 138.25C204.174 140.553 205.046 143.072 206.072 145.278L205.66 145.679C203.598 144.662 202.059 142.82 200.723 141.013C201.62 140.904 202.314 140.929 203.019 140.404C203.385 139.5 203.29 139.831 203.14 138.768L203.287 138.313Z" fill="#4B4D65"/>
<path d="M198.691 137.45C196.628 133.414 194.236 129.139 192.785 124.829C192.452 123.842 192.439 123.181 193.235 122.487L193.87 122.535C198.795 127.462 199.906 131.887 203.162 137.962L203.288 138.313L203.141 138.768C203.292 139.832 203.386 139.5 203.021 140.404C202.316 140.929 201.622 140.904 200.724 141.013C200.089 140.081 199.263 138.482 198.691 137.45Z" fill="#0B358F"/>
<path d="M193.87 122.534C198.796 127.461 199.906 131.886 203.162 137.961L203.288 138.313L203.142 138.767C202.991 139.011 202.924 139.003 202.662 139.187C201.811 138.716 200.883 137.045 200.432 136.135C198.421 132.075 196.171 128.232 193.863 124.346C193.635 123.962 193.799 122.982 193.87 122.534Z" fill="#3F7ECE"/>
<path d="M196.691 150.244C197.676 150.895 198.607 151.599 199.537 152.312C201.652 153.933 205.388 158.549 207.956 159.054C206.822 160.226 206.281 160.787 205.531 162.246C203.193 161.377 198.73 157.511 197.324 155.25C197.286 153.311 196.606 151.196 196.691 150.244Z" fill="#C57944"/>
<path d="M185.155 171.108C189.162 170.942 196.806 170.828 200.637 171.165C201.075 173.577 200.933 179.153 200.936 181.832L200.973 199.651L201.005 218.061C201.008 220.48 201.561 228.726 199.73 229.991C194.978 230.048 188.653 230.231 184.011 229.819C183.753 227.419 183.877 223.907 183.895 221.411L183.975 207.445C184 196.064 183.604 182.975 184.047 171.747C184.419 171.142 184.244 171.338 185.155 171.108Z" fill="#FDBF04"/>
<path d="M119.898 189.807C119.661 191.454 119.766 197.431 119.764 199.382L119.791 219.987C119.794 221.441 120.108 229.791 118.664 229.826C114.652 229.922 101.092 230.732 97.84 229.622C97.118 228.881 96.97 226.1 97.0525 225.162C97.3915 221.307 96.2095 190.308 97.868 188.563C99.7675 187.893 117.298 187.79 119.263 188.267C119.726 188.926 119.775 189.013 119.898 189.807Z" fill="#1762DC"/>
<path d="M119.262 188.268C119.725 188.926 119.774 189.014 119.897 189.808C117.927 190.105 115.115 189.618 113.242 188.868C115.3 188.486 116.982 188.709 119.262 188.268Z" fill="#3F7ECE"/>
<path d="M157.204 198.043C157.444 197.452 157.516 197.411 157.907 196.928C159.717 196.077 167.345 196.464 169.723 196.411C171.217 196.378 173.073 196.277 174.124 197.357C174.178 201.729 174.381 227.187 173.502 229.514C171.856 230.75 159.95 230.074 157.332 229.94C156.514 222.416 157.366 212.606 157.143 204.916C157.084 202.904 157.347 199.877 157.204 198.043Z" fill="#FC9C02"/>
<path d="M157.207 198.043C157.447 197.452 157.519 197.411 157.91 196.928C159.72 196.077 167.348 196.464 169.726 196.411C171.22 196.378 173.076 196.277 174.127 197.357C171.131 198.417 161.751 197.317 157.207 198.043Z" fill="#FDBF04"/>
<path d="M104.984 128.873C123.637 128.679 142.594 128.924 161.281 128.958L180.753 128.984C183.357 128.983 185.974 128.885 188.568 128.883C192.76 128.879 193.359 134.176 188.913 134.511C186.813 134.669 184.67 134.565 182.563 134.527L126.336 134.547C122.026 134.543 96.718 134.883 95.5133 133.961C94.6338 132.581 94.959 130.66 95.0643 129.011C98.2015 128.868 101.809 128.912 104.984 128.873Z" fill="#4FA7F1"/>
<path d="M95.9844 239.589C96.8404 239.547 97.5559 239.627 98.3992 239.679C103.6 239.999 108.865 239.893 114.078 239.879L139.888 239.817C143.125 239.822 149.538 239.649 152.488 240.128C152.555 242.781 152.837 245.909 151.955 248.378C149.192 249.227 100.452 248.967 95.3517 248.667C95.2599 248.226 95.1897 247.781 95.1409 247.333C94.8452 244.71 94.3019 241.699 95.9844 239.589Z" fill="#2EC362"/>
<path d="M130.579 205.032C131.133 204.371 131.579 204.12 132.556 204.124C135.312 204.137 144.467 203.553 146.461 204.583C146.777 205.032 146.82 205.058 147.005 205.568L147.001 218.908C147.002 222.153 147.178 226.904 146.492 229.969C143.76 230.411 133.331 230.179 130.364 229.965C130.131 226.853 130.062 207.507 130.579 205.032Z" fill="#2EC362"/>
<path d="M130.578 205.032C131.132 204.371 131.577 204.12 132.555 204.124C135.311 204.137 144.466 203.553 146.46 204.583C146.776 205.032 146.819 205.058 147.004 205.568C144.91 205.937 134.969 205.159 132.245 205.434C131.91 205.468 130.927 205.164 130.578 205.032Z" fill="#59E17E"/>
<path d="M103.323 149.227C101.131 149.355 95.8862 150.396 96.2139 147.036C96.2994 146.159 96.1809 145.775 96.7267 145.014C98.3304 144.389 108.718 144.731 110.983 144.732L138.138 144.723L159.843 144.73C162.269 144.732 171.442 144.551 173.242 145.12C174.489 146.884 173.482 149.637 171.149 149.475C163.614 148.953 154.852 149.887 147.432 149.231C133.178 149.491 117.612 149.381 103.323 149.227Z" fill="#ACAFC3"/>
<path d="M103.324 149.227C103.915 148.921 122.031 148.343 123.488 148.671C125.955 149.225 146.802 148.749 147.433 149.231C133.179 149.491 117.613 149.381 103.324 149.227Z" fill="#777990"/>
<path d="M111.849 161.039C109.281 161.181 98.642 161.615 96.806 160.815C95.7415 159.72 96.1462 158.094 96.7805 156.869C97.3817 156.408 97.3732 156.297 98.2432 156.324C102.659 156.459 107.118 156.458 111.533 156.477L140.751 156.491L158.5 156.484C161.119 156.485 166.818 155.808 168.772 157.627C169.572 158.372 168.648 160.302 167.864 160.95C165.662 161.58 128.524 161.361 124.888 161.049C120.698 161.149 116.073 161.045 111.849 161.039Z" fill="#ACB0C2"/>
<path d="M111.848 161.038C110.284 160.936 101.983 161.025 101.371 160.759C103.255 160.465 106.985 160.65 109.04 160.589C113.437 160.461 117.895 160.45 122.296 160.447L142.805 160.484C147.574 160.499 152.504 160.41 157.245 160.775C149.687 161.369 140.586 160.708 132.923 160.957C130.441 161.038 127.3 160.834 124.887 161.049C120.697 161.148 116.072 161.045 111.848 161.038Z" fill="#777990"/>
<path d="M96.6213 168.248C110.67 167.857 125.197 168.315 139.273 168.376C140.08 168.379 140.254 168.679 140.684 169.224C141.049 170.653 140.593 171.665 140.052 172.959C138.529 173.124 136.773 173.169 135.232 173.181L111.59 173.161C109.184 173.163 97.7711 173.702 96.3468 172.304C95.8338 170.878 96.1748 169.639 96.6213 168.248Z" fill="#ACB0C2"/>
<path d="M103.084 99.1689C104.729 100.42 106.154 104.016 106.876 105.918C108.593 105.731 111.626 105.379 112.351 107.255C112.034 109.067 109.936 110.75 108.576 112.087C108.783 113.103 108.979 114.121 109.166 115.142C109.388 116.415 109.666 117.671 108.92 118.731C107.611 119.026 104.471 116.811 103.095 116.057C101.568 116.909 98.5983 118.971 97.1003 118.763C96.285 117.692 97.05 113.52 97.1603 111.855C95.9598 110.483 93.5348 108.85 93.708 106.98C94.9073 105.724 97.3283 105.819 99.1345 105.663C100.476 103.659 101.483 100.947 103.084 99.1689Z" fill="#FDBF04"/>
<path d="M149.003 99.3281C150.613 99.6369 152.491 104.553 153.127 105.983C154.88 105.931 157.645 105.451 158.554 107.153C158.388 108.818 156.016 110.81 154.767 112.076C155.139 113.647 156.533 118.041 154.697 118.646C152.978 118.367 151.163 117.211 149.575 116.358C148.343 116.201 144.842 118.709 143.067 119.541C142.842 116.627 143.069 115.015 143.51 112.2C142.384 110.588 139.451 108.87 139.917 106.928C141.204 105.7 143.305 105.83 145.162 105.673C146.547 103.665 147.413 101.509 149.003 99.3281Z" fill="#FDBF04"/>
<path d="M125.634 99.2998C127.499 99.8193 129.092 103.947 129.874 105.582C132.399 105.983 133.749 105.921 136.199 106.828C134.948 108.786 133.182 110.451 131.555 112.114C132.036 113.705 133.629 118.085 131.505 118.728C129.869 118.421 127.946 117.098 126.44 116.214C124.593 116.36 121.944 118.931 120.397 119.366L120.033 119.076C119.449 117.347 120.168 113.738 120.453 111.855C119.047 110.391 117.596 109.643 116.785 107.785C116.893 105.57 120.896 105.658 122.665 105.447C123.612 103.299 124.57 101.393 125.634 99.2998Z" fill="#FDBF04"/>
<path d="M172.254 99.3301C173.868 99.6741 175.752 104.562 176.386 106.024C178.112 105.912 181.067 105.477 181.671 107.455C181.297 109.26 179.428 110.663 178.054 111.968C178.415 113.589 179.832 118.154 177.826 118.786C176.284 118.493 173.992 117.034 172.52 116.21C170.564 116.693 168.072 119.423 166.389 119.035C165.326 117.103 167.134 114.497 166.666 112.239C166.22 110.091 162.134 108.849 162.84 107.048C164.311 105.907 166.887 105.757 168.754 105.51C169.909 103.335 170.922 101.401 172.254 99.3301Z" fill="#FDBF04"/>
<path d="M195.57 99.3848C197.237 100.583 198.582 103.781 199.452 105.655C200.981 105.756 204.204 105.689 205.184 106.923C205.094 108.462 202.383 110.835 201.158 112.221C201.612 113.884 202.603 117.281 201.473 118.626C199.989 118.939 197.201 116.956 195.585 116.15C193.964 116.865 191.042 119.291 189.426 118.496C188.746 117.031 189.773 113.957 190.184 112.313C189.024 110.728 186.151 108.958 186.53 106.958C187.756 105.712 190.267 105.691 192.073 105.469C193.173 103.258 194.103 101.382 195.57 99.3848Z" fill="#FDBF04"/>
<path d="M160.164 239.603C161.857 239.579 164.484 239.736 166.269 239.786C170.089 239.894 175.139 239.537 178.746 240.138C178.831 242.606 179.615 247.396 177.236 248.702C172.178 248.874 164.846 248.952 159.702 248.515C158.311 248.396 158.382 244.403 158.395 243.234C158.416 241.354 158.084 240.377 160.164 239.603Z" fill="#2EC362"/>
<path d="M186.184 239.618C188.983 239.655 201.569 239.444 203.301 240.056C203.658 240.183 203.748 240.236 203.888 240.607C204.378 241.903 204.292 246.361 203.695 247.616C203.387 248.262 202.963 248.479 202.317 248.723C196.928 248.863 190.527 249.057 185.162 248.503C183.561 248.337 183.481 242.336 183.96 241.107C184.349 240.111 185.234 239.941 186.184 239.618Z" fill="#2EC362"/>
<path d="M93.7266 231.664C94.2031 231.979 94.5403 232.569 94.9098 233.065C97.6341 233.974 120.115 233.215 124.592 233.214C148.877 233.431 173.164 233.449 197.45 233.27C198.183 233.259 204.422 232.791 204.205 232.75C203.912 233.089 203.305 233.692 202.883 233.717C195.014 234.175 184.971 233.895 177.259 233.915L126.88 233.916C117.041 233.951 107.158 233.96 97.3251 234.116C96.4038 234.13 95.2306 233.987 94.4008 233.568C93.7516 232.794 93.9106 232.739 93.7266 231.664Z" fill="#777990"/>
<path d="M241.177 108.626C244.566 101.716 262.403 101.011 268.998 102.473C278.261 104.525 284.203 110.839 283.531 120.617C283.471 121.433 283.433 123.204 283.078 123.921C282.563 127.126 276.068 143.515 274.508 145.068C274.476 145.872 274.416 146.757 274.453 147.554C274.481 148.384 274.466 152.14 274.671 152.63C273.526 152.881 269.601 152.932 268.133 152.966C264.363 153.054 261.516 153.255 257.808 153.872C257.321 153.919 257.173 153.966 256.686 153.903C256.231 153.003 256.101 152.602 255.241 152.03C253.206 152.054 251.236 152.134 249.277 151.512C245.445 151.009 244.935 146.039 244.574 143.019C242.226 135.598 244.488 130.181 243.996 122.714C243.897 121.2 244.515 117.906 244.755 116.323C241.343 113.818 240.489 112.963 241.177 108.626Z" fill="#2B3241"/>
<path d="M244.757 116.323C245.092 116.431 245.97 116.691 246.244 116.821C245.851 120.655 246.645 122.935 248.819 125.981L248.934 126.229C250.222 129.059 249.112 131.776 250.894 133.21L251.547 133.351C252.387 132.718 252.479 132.233 252.589 131.188C252.827 129.919 253.054 128.118 253.757 127.096C254.092 126.82 254.844 126.348 255.234 126.085C257.267 127.191 257.849 128.21 258.267 130.465C258.984 134.64 258.384 134.079 260.232 138.621C262.032 142.231 263.357 143.29 267.052 144.823C270.482 145.71 271.087 146.028 274.509 145.068C274.477 145.872 274.417 146.757 274.454 147.554C274.482 148.384 274.467 152.14 274.672 152.631C273.527 152.882 269.602 152.933 268.134 152.967C264.364 153.055 261.517 153.256 257.809 153.872C257.322 153.919 257.174 153.967 256.687 153.903C256.232 153.004 256.102 152.602 255.242 152.03C253.207 152.055 251.237 152.134 249.279 151.512C245.446 151.009 244.936 146.039 244.576 143.019C242.227 135.598 244.49 130.182 243.998 122.715C243.898 121.2 244.516 117.907 244.757 116.323Z" fill="#D28955"/>
<path d="M257.809 153.872L258.769 152.933C258.036 150.411 257.186 143.397 260.604 142.576C261.569 142.84 261.341 142.859 262.001 143.84C262.594 144.119 262.431 144.181 262.901 144.099L263.319 144.295L263.081 144.101C262.426 143.568 262.099 143.399 261.849 142.603C263.119 143.013 263.384 145.005 267.051 144.822C270.481 145.71 271.086 146.028 274.509 145.068C274.476 145.872 274.416 146.757 274.454 147.554C274.481 148.384 274.466 152.14 274.671 152.63C273.526 152.881 269.601 152.932 268.134 152.966C264.364 153.054 261.516 153.255 257.809 153.872Z" fill="#E7A169"/>
<path d="M262.004 143.84C262.597 144.119 262.434 144.181 262.904 144.1L263.322 144.295L263.084 144.102C262.429 143.569 262.102 143.4 261.852 142.604C263.122 143.013 263.387 145.006 267.054 144.823C270.484 145.71 271.089 146.028 274.512 145.068C274.479 145.872 274.419 146.758 274.457 147.555C273.639 146.595 265.217 148.148 262.004 143.84Z" fill="#E59E6D"/>
<path d="M244.757 116.323C245.092 116.431 245.97 116.691 246.244 116.821C245.851 120.655 246.645 122.935 248.819 125.981C248.083 126.386 247.623 126.988 247.456 127.832C246.936 130.447 246.327 133.024 245.995 135.666C245.83 136.979 245.939 140.646 245.637 141.548C245.556 141.105 245.004 136.097 244.967 135.627L244.519 136.156C244.163 135.747 244.259 135.744 244.132 135.143C243.467 138.312 245.51 141.28 244.576 143.019C242.227 135.598 244.49 130.182 243.998 122.715C243.898 121.2 244.516 117.907 244.757 116.323Z" fill="#E59E6D"/>
<path d="M249.277 151.511C250.078 151.152 250.213 151.252 251.126 151.448C252.998 150.61 251.538 147.095 255.063 148.369L255.473 148.19C255.458 147.083 255.318 146.894 255.971 146.153C255.518 147.612 255.836 150.065 255.241 152.03C253.206 152.054 251.236 152.134 249.277 151.511Z" fill="#A15A2F"/>
<path d="M258.266 130.465C258.984 134.64 258.384 134.079 260.231 138.621C257.936 137.253 257.534 138.018 255.006 138.913C254.814 138.593 256.634 136.619 257.041 136.015C258.364 134.054 258.369 132.713 258.266 130.465Z" fill="#A15A2F"/>
<path d="M252.59 131.188C252.827 129.919 253.055 128.118 253.757 127.097C254.065 127.622 254.09 127.68 254.517 128.062C255.4 128.85 255.535 131.013 255.622 132.156C255.695 133.087 255.517 135.1 254.36 135.189C253.845 133.946 254.59 131.987 254.115 130.336L253.712 130.2C253.09 130.623 253.08 130.622 252.59 131.188Z" fill="#A15A2F"/>
<path d="M255.236 126.085L254.844 125.867C256.059 125.676 256.154 125.181 256.896 125.238C256.874 125.883 256.771 125.917 257.024 126.425C262.266 124.014 265.701 129.769 267.716 133.685C268.479 135.165 273.624 132.172 274.886 131.549C276.584 130.711 279.436 129.918 280.919 128.838C281.916 128.11 281.911 124.923 283.081 123.921C282.566 127.127 276.071 143.515 274.511 145.068C271.089 146.028 270.484 145.71 267.054 144.823C263.359 143.29 262.034 142.231 260.234 138.621C258.386 134.079 258.986 134.64 258.269 130.465C257.851 128.21 257.269 127.191 255.236 126.085Z" fill="#141721"/>
<path d="M244.755 116.323C241.343 113.819 240.489 112.964 241.177 108.626C241.261 109.818 241.32 111.355 241.588 112.489C243.144 112.318 244.031 112.736 245.444 113.243C249.551 114.719 251.226 116.325 251.551 120.781C250.973 121.465 251.321 121.26 250.526 121.492C247.463 119.902 249.952 118.333 246.243 116.821C245.969 116.691 245.091 116.431 244.755 116.323Z" fill="#141721"/>
</svg>
